<svg width="880" height="280" viewBox="0 0 880 280" fill="none" xmlns="http://www.w3.org/2000/svg">
<path d="M40 42C40 40.8954 40.8954 40 42 40H838C839.105 40 840 40.8954 840 42V238C840 239.105 839.105 240 838 240H42C40.8954 240 40 239.105 40 238V42Z" fill="white"/>
<path d="M42 41H838V39H42V41ZM839 42V238H841V42H839ZM838 239H42V241H838V239ZM41 238V42H39V238H41ZM42 239C41.4477 239 41 238.552 41 238H39C39 239.657 40.3431 241 42 241V239ZM839 238C839 238.552 838.552 239 838 239V241C839.657 241 841 239.657 841 238H839ZM838 41C838.552 41 839 41.4477 839 42H841C841 40.3431 839.657 39 838 39V41ZM42 39C40.3431 39 39 40.3431 39 42H41C41 41.4477 41.4477 41 42 41V39Z" fill="black" fill-opacity="0.1"/>
<rect x="90.5" y="96.5" width="180.591" height="84" fill="white" stroke="black"/>
<circle cx="110.44" cy="113.557" r="8.21023" fill="#D9D9D9"/>
<circle cx="148.111" cy="113.557" r="8.21023" fill="#D9D9D9"/>
<circle cx="182.883" cy="113.557" r="8.21023" fill="#D9D9D9"/>
<circle cx="217.656" cy="113.557" r="8.21023" fill="#D9D9D9"/>
<circle cx="251.463" cy="113.557" r="8.21023" fill="#D9D9D9"/>
<circle cx="110.353" cy="138.721" r="8.21023" fill="#D9D9D9"/>
<circle cx="148.024" cy="138.721" r="8.21023" fill="#D9D9D9"/>
<circle cx="182.796" cy="138.721" r="8.21023" fill="#D9D9D9"/>
<circle cx="217.569" cy="138.721" r="8.21023" fill="#D9D9D9"/>
<circle cx="251.376" cy="138.721" r="8.21023" fill="#D9D9D9"/>
<circle cx="110.353" cy="164.925" r="8.21023" fill="#D9D9D9"/>
<circle cx="148.024" cy="164.925" r="8.21023" fill="#D9D9D9"/>
<circle cx="182.796" cy="164.925" r="8.21023" fill="#D9D9D9"/>
<circle cx="217.569" cy="164.925" r="8.21023" fill="#D9D9D9"/>
<circle cx="251.376" cy="164.925" r="8.21023" fill="#D9D9D9"/>
<rect x="368.5" y="106.5" width="135" height="62.6596" fill="white" stroke="black"/>
<circle cx="383.308" cy="119.149" r="6.14894" fill="#D9D9D9"/>
<circle cx="411.521" cy="119.149" r="6.14894" fill="#D9D9D9"/>
<circle cx="437.564" cy="119.149" r="6.14894" fill="#D9D9D9"/>
<circle cx="463.606" cy="119.149" r="6.14894" fill="#D9D9D9"/>
<circle cx="488.925" cy="119.149" r="6.14894" fill="#D9D9D9"/>
<circle cx="383.243" cy="137.996" r="6.14894" fill="#D9D9D9"/>
<circle cx="411.456" cy="137.996" r="6.14894" fill="#D9D9D9"/>
<circle cx="437.498" cy="137.996" r="6.14894" fill="#D9D9D9"/>
<circle cx="463.541" cy="137.996" r="6.14894" fill="#D9D9D9"/>
<circle cx="488.86" cy="137.996" r="6.14894" fill="#D9D9D9"/>
<circle cx="383.243" cy="157.62" r="6.14894" fill="#D9D9D9"/>
<circle cx="411.456" cy="157.62" r="6.14894" fill="#D9D9D9"/>
<circle cx="437.498" cy="157.62" r="6.14894" fill="#D9D9D9"/>
<circle cx="463.541" cy="157.62" r="6.14894" fill="#D9D9D9"/>
<circle cx="488.86" cy="157.62" r="6.14894" fill="#D9D9D9"/>
<path d="M133 89L139 92.4641V85.5359L133 89ZM232 88.4L138.4 88.4V89.6L232 89.6V88.4Z" fill="black"/>
<path d="M279 167L282.464 161H275.536L279 167ZM278.4 111V161.6H279.6V111H278.4Z" fill="black"/>
<path d="M437 81L433.536 87L440.464 87L437 81ZM437.6 138L437.6 86.4L436.4 86.4L436.4 138L437.6 138Z" fill="black"/>
<path d="M513 138L507 134.536V141.464L513 138ZM437 138.6H507.6V137.4H437V138.6Z" fill="black"/>
<path d="M171.262 73.63H172.522V82.89H171.262V73.63ZM170.152 77.18H171.692V78.26H170.152V77.18ZM169.272 73.77H170.512V82.47H169.272V73.77ZM166.152 75.07H167.162V75.89C167.162 78.18 166.662 80.2 165.122 81.13L164.322 80.11C165.712 79.31 166.152 77.67 166.152 75.89V75.07ZM166.422 75.07H167.442V75.89C167.442 77.52 167.912 79.06 169.292 79.78L168.532 80.79C166.972 79.95 166.422 78.04 166.422 75.89V75.07ZM164.622 74.57H168.832V75.64H164.622V74.57ZM179.641 73.63H180.961V82.89H179.641V73.63ZM180.661 77.24H182.301V78.35H180.661V77.24ZM173.661 75H179.051V76.06H173.661V75ZM176.371 76.58C177.721 76.58 178.721 77.5 178.721 78.79C178.721 80.08 177.721 81 176.371 81C175.021 81 174.021 80.08 174.021 78.79C174.021 77.5 175.021 76.58 176.371 76.58ZM176.371 77.66C175.741 77.66 175.291 78.08 175.291 78.79C175.291 79.5 175.741 79.92 176.371 79.92C177.001 79.92 177.451 79.5 177.451 78.79C177.451 78.08 177.001 77.66 176.371 77.66ZM175.701 73.78H177.031V75.4H175.701V73.78ZM187.17 79.29C189.09 79.29 190.3 79.96 190.3 81.09C190.3 82.23 189.09 82.9 187.17 82.9C185.24 82.9 184.03 82.23 184.03 81.09C184.03 79.96 185.24 79.29 187.17 79.29ZM187.17 80.33C185.99 80.33 185.35 80.57 185.35 81.09C185.35 81.62 185.99 81.87 187.17 81.87C188.35 81.87 188.98 81.62 188.98 81.09C188.98 80.57 188.35 80.33 187.17 80.33ZM188.86 73.63H190.19V79.08H188.86V73.63ZM189.82 75.78H191.42V76.88H189.82V75.78ZM183.17 74.22H184.49V75.36H186.3V74.22H187.62V78.57H183.17V74.22ZM184.49 76.39V77.53H186.3V76.39H184.49ZM198.979 74.96H200.579V76.04H198.979V74.96ZM198.979 76.97H200.579V78.05H198.979V76.97ZM198.059 73.63H199.389V79.5H198.059V73.63ZM196.379 79.6C198.289 79.6 199.489 80.21 199.489 81.25C199.489 82.28 198.289 82.89 196.379 82.89C194.469 82.89 193.269 82.28 193.269 81.25C193.269 80.21 194.469 79.6 196.379 79.6ZM196.379 80.6C195.209 80.6 194.589 80.81 194.589 81.25C194.589 81.69 195.209 81.9 196.379 81.9C197.549 81.9 198.169 81.69 198.169 81.25C198.169 80.81 197.549 80.6 196.379 80.6ZM192.099 74.51H197.549V75.54H192.099V74.51ZM194.829 75.85C196.169 75.85 197.099 76.52 197.099 77.51C197.099 78.51 196.169 79.17 194.829 79.17C193.479 79.17 192.549 78.51 192.549 77.51C192.549 76.52 193.479 75.85 194.829 75.85ZM194.829 76.82C194.229 76.82 193.829 77.06 193.829 77.51C193.829 77.96 194.229 78.2 194.829 78.2C195.419 78.2 195.829 77.96 195.829 77.51C195.829 77.06 195.419 76.82 194.829 76.82ZM194.159 73.57H195.489V75.06H194.159V73.57Z" fill="black"/>
<path d="M128.672 210.031V199.246H132.034V200.601H130.428V208.672H132.034V210.031H128.672ZM135.848 209V200.273H139.292C139.953 200.273 140.517 200.399 140.983 200.652C141.449 200.902 141.804 201.25 142.049 201.696C142.296 202.139 142.419 202.651 142.419 203.23C142.419 203.81 142.294 204.321 142.044 204.764C141.794 205.207 141.432 205.553 140.958 205.8C140.486 206.047 139.915 206.17 139.245 206.17H137.05V204.692H138.946C139.301 204.692 139.594 204.631 139.824 204.509C140.057 204.384 140.23 204.212 140.344 203.993C140.461 203.771 140.519 203.517 140.519 203.23C140.519 202.94 140.461 202.687 140.344 202.472C140.23 202.253 140.057 202.084 139.824 201.964C139.591 201.842 139.296 201.781 138.938 201.781H137.694V209H135.848ZM145.399 200.273V209H143.584V200.273H145.399ZM151.051 206.213V202.455H152.866V209H151.123V207.811H151.055C150.907 208.195 150.662 208.503 150.318 208.736C149.977 208.969 149.561 209.085 149.069 209.085C148.632 209.085 148.247 208.986 147.914 208.787C147.582 208.588 147.322 208.305 147.135 207.939C146.95 207.572 146.856 207.134 146.853 206.622V202.455H148.669V206.298C148.672 206.685 148.775 206.99 148.98 207.214C149.184 207.439 149.458 207.551 149.802 207.551C150.021 207.551 150.225 207.501 150.416 207.402C150.606 207.3 150.76 207.149 150.876 206.95C150.995 206.751 151.054 206.506 151.051 206.213ZM157.267 211.591C156.679 211.591 156.175 211.51 155.754 211.348C155.337 211.189 155.004 210.972 154.757 210.696C154.51 210.42 154.349 210.111 154.276 209.767L155.955 209.541C156.006 209.672 156.087 209.794 156.197 209.908C156.308 210.021 156.455 210.112 156.636 210.18C156.821 210.251 157.045 210.287 157.31 210.287C157.705 210.287 158.03 210.19 158.286 209.997C158.544 209.807 158.673 209.487 158.673 209.038V207.841H158.597C158.517 208.023 158.398 208.195 158.239 208.357C158.08 208.518 157.875 208.651 157.625 208.753C157.375 208.855 157.077 208.906 156.73 208.906C156.239 208.906 155.791 208.793 155.388 208.565C154.987 208.335 154.668 207.984 154.429 207.513C154.193 207.038 154.075 206.439 154.075 205.714C154.075 204.973 154.196 204.354 154.438 203.857C154.679 203.359 155 202.987 155.401 202.74C155.804 202.493 156.246 202.369 156.726 202.369C157.092 202.369 157.399 202.432 157.646 202.557C157.893 202.679 158.092 202.832 158.243 203.017C158.396 203.199 158.514 203.378 158.597 203.554H158.665V202.455H160.467V209.064C160.467 209.621 160.331 210.087 160.058 210.462C159.786 210.837 159.408 211.118 158.925 211.305C158.445 211.496 157.892 211.591 157.267 211.591ZM157.305 207.543C157.598 207.543 157.845 207.47 158.047 207.325C158.251 207.178 158.408 206.967 158.516 206.695C158.626 206.419 158.682 206.089 158.682 205.706C158.682 205.322 158.628 204.99 158.52 204.709C158.412 204.425 158.256 204.205 158.051 204.048C157.847 203.892 157.598 203.814 157.305 203.814C157.007 203.814 156.756 203.895 156.551 204.057C156.347 204.216 156.192 204.437 156.087 204.722C155.982 205.006 155.929 205.334 155.929 205.706C155.929 206.084 155.982 206.411 156.087 206.686C156.195 206.959 156.349 207.17 156.551 207.321C156.756 207.469 157.007 207.543 157.305 207.543ZM166.569 200.273V209H164.723V200.273H166.569ZM169.868 205.216V209H168.053V202.455H169.783V203.609H169.859C170.004 203.229 170.247 202.928 170.588 202.706C170.929 202.482 171.342 202.369 171.828 202.369C172.283 202.369 172.679 202.469 173.017 202.668C173.355 202.866 173.618 203.151 173.805 203.52C173.993 203.886 174.087 204.324 174.087 204.832V209H172.271V205.156C172.274 204.756 172.172 204.443 171.964 204.219C171.757 203.991 171.472 203.878 171.108 203.878C170.864 203.878 170.648 203.93 170.46 204.036C170.276 204.141 170.131 204.294 170.026 204.496C169.923 204.695 169.871 204.935 169.868 205.216ZM180.57 200.276H181.866V200.888C181.866 202.868 180.858 204.62 178.758 205.244L177.978 204.008C179.778 203.468 180.57 202.184 180.57 200.888V200.276ZM180.894 200.276H182.19V200.888C182.19 202.088 182.946 203.288 184.71 203.804L183.966 205.04C181.878 204.44 180.894 202.772 180.894 200.888V200.276ZM178.374 199.832H184.386V201.128H178.374V199.832ZM180.582 204.764H182.178V207.152H180.582V204.764ZM186.33 203.336H188.286V204.668H186.33V203.336ZM185.226 198.956H186.822V210.068H185.226V198.956ZM178.122 207.956L177.93 206.672C179.838 206.672 182.442 206.684 184.65 206.372L184.77 207.536C182.454 207.968 179.982 207.968 178.122 207.956ZM191.561 205.004H193.157V207.992H191.561V205.004ZM195.053 205.016H196.637V208.004H195.053V205.016ZM189.101 207.56H199.157V208.856H189.101V207.56ZM189.869 199.832H198.329V201.104H189.869V199.832ZM189.917 204.224H198.293V205.484H189.917V204.224ZM191.381 200.888H192.977V204.404H191.381V200.888ZM195.233 200.888H196.817V204.404H195.233V200.888ZM204.412 201.884H206.668V203.156H204.412V201.884ZM204.352 204.656H206.62V205.928H204.352V204.656ZM208.18 198.956H209.704V210.068H208.18V198.956ZM205.888 199.196H207.376V209.576H205.888V199.196ZM203.38 200.264H204.916C204.916 203.42 203.968 205.94 200.872 207.764L199.972 206.648C202.48 205.124 203.38 203.276 203.38 200.588V200.264ZM200.608 200.264H203.92V201.536H200.608V200.264ZM217.104 200.111V210.896H213.742V209.537H215.348V201.466H213.742V200.111H217.104Z" fill="black"/>
<path d="M370.224 209.859V200.871H373.026V202.001H371.687V208.727H373.026V209.859H370.224ZM376.204 201.727H378.101L380.104 206.614H380.189L382.192 201.727H384.088V209H382.596V204.266H382.536L380.654 208.964H379.638L377.756 204.249H377.696V209H376.204V201.727ZM385.326 209V203.545H386.839V209H385.326ZM386.086 202.842C385.861 202.842 385.668 202.768 385.507 202.619C385.349 202.467 385.27 202.286 385.27 202.075C385.27 201.867 385.349 201.688 385.507 201.539C385.668 201.388 385.861 201.312 386.086 201.312C386.311 201.312 386.503 201.388 386.662 201.539C386.823 201.688 386.903 201.867 386.903 202.075C386.903 202.286 386.823 202.467 386.662 202.619C386.503 202.768 386.311 202.842 386.086 202.842ZM390.061 209.089C389.647 209.089 389.271 208.982 388.935 208.769C388.601 208.554 388.336 208.238 388.14 207.821C387.946 207.402 387.849 206.888 387.849 206.28C387.849 205.655 387.949 205.135 388.15 204.721C388.352 204.304 388.619 203.993 388.953 203.787C389.289 203.579 389.657 203.474 390.057 203.474C390.363 203.474 390.617 203.527 390.821 203.631C391.027 203.732 391.193 203.86 391.318 204.014C391.446 204.166 391.543 204.315 391.609 204.462H391.655V201.727H393.165V209H391.673V208.126H391.609C391.538 208.278 391.438 208.428 391.307 208.577C391.18 208.724 391.013 208.846 390.807 208.943C390.603 209.04 390.354 209.089 390.061 209.089ZM390.54 207.885C390.784 207.885 390.99 207.819 391.158 207.686C391.329 207.551 391.459 207.363 391.549 207.121C391.641 206.88 391.687 206.597 391.687 206.273C391.687 205.948 391.642 205.667 391.552 205.428C391.462 205.188 391.332 205.004 391.162 204.874C390.991 204.743 390.784 204.678 390.54 204.678C390.292 204.678 390.082 204.746 389.912 204.881C389.741 205.016 389.612 205.203 389.525 205.442C389.437 205.681 389.393 205.958 389.393 206.273C389.393 206.59 389.437 206.871 389.525 207.114C389.615 207.356 389.744 207.545 389.912 207.683C390.082 207.817 390.292 207.885 390.54 207.885ZM395.964 209.103C395.616 209.103 395.306 209.043 395.033 208.922C394.761 208.799 394.546 208.618 394.387 208.379C394.231 208.137 394.153 207.836 394.153 207.477C394.153 207.174 394.208 206.919 394.32 206.713C394.431 206.507 394.582 206.341 394.774 206.216C394.966 206.09 395.184 205.996 395.428 205.932C395.674 205.868 395.932 205.823 396.202 205.797C396.519 205.764 396.775 205.733 396.969 205.705C397.163 205.674 397.304 205.629 397.391 205.57C397.479 205.51 397.523 205.423 397.523 205.307V205.286C397.523 205.061 397.452 204.887 397.31 204.763C397.17 204.64 396.971 204.579 396.713 204.579C396.441 204.579 396.224 204.639 396.063 204.76C395.902 204.878 395.796 205.027 395.744 205.207L394.344 205.094C394.415 204.762 394.555 204.476 394.763 204.234C394.972 203.991 395.241 203.804 395.57 203.673C395.901 203.541 396.285 203.474 396.72 203.474C397.023 203.474 397.313 203.51 397.59 203.581C397.87 203.652 398.117 203.762 398.332 203.911C398.55 204.06 398.722 204.252 398.847 204.487C398.973 204.719 399.036 204.997 399.036 205.321V209H397.601V208.244H397.558C397.471 208.414 397.353 208.564 397.207 208.695C397.06 208.822 396.884 208.923 396.678 208.996C396.472 209.067 396.234 209.103 395.964 209.103ZM396.397 208.059C396.62 208.059 396.816 208.015 396.987 207.928C397.157 207.838 397.291 207.717 397.388 207.565C397.485 207.414 397.533 207.242 397.533 207.05V206.472C397.486 206.502 397.421 206.531 397.338 206.557C397.258 206.58 397.166 206.603 397.065 206.624C396.963 206.643 396.861 206.661 396.759 206.678C396.657 206.692 396.565 206.705 396.482 206.717C396.305 206.743 396.15 206.784 396.017 206.841C395.884 206.898 395.781 206.975 395.708 207.072C395.635 207.166 395.598 207.285 395.598 207.427C395.598 207.633 395.673 207.79 395.822 207.899C395.973 208.006 396.165 208.059 396.397 208.059ZM404.748 205.101L403.363 205.186C403.339 205.068 403.288 204.961 403.21 204.866C403.132 204.769 403.029 204.692 402.901 204.636C402.775 204.576 402.625 204.547 402.45 204.547C402.216 204.547 402.018 204.597 401.857 204.696C401.696 204.793 401.615 204.923 401.615 205.087C401.615 205.217 401.667 205.327 401.772 205.417C401.876 205.507 402.055 205.579 402.308 205.634L403.295 205.832C403.825 205.941 404.221 206.116 404.481 206.358C404.742 206.599 404.872 206.917 404.872 207.31C404.872 207.667 404.766 207.981 404.556 208.251C404.347 208.521 404.061 208.731 403.696 208.883C403.334 209.032 402.916 209.107 402.443 209.107C401.721 209.107 401.145 208.956 400.717 208.656C400.291 208.353 400.041 207.941 399.968 207.42L401.456 207.342C401.501 207.562 401.609 207.73 401.782 207.846C401.955 207.96 402.176 208.016 402.446 208.016C402.712 208.016 402.925 207.965 403.086 207.864C403.249 207.759 403.332 207.626 403.334 207.462C403.332 207.325 403.274 207.213 403.16 207.125C403.047 207.035 402.871 206.966 402.635 206.919L401.69 206.731C401.157 206.624 400.761 206.44 400.5 206.177C400.242 205.914 400.113 205.579 400.113 205.172C400.113 204.821 400.208 204.52 400.397 204.266C400.589 204.013 400.858 203.818 401.203 203.68C401.551 203.543 401.959 203.474 402.425 203.474C403.114 203.474 403.656 203.62 404.051 203.911C404.449 204.202 404.681 204.599 404.748 205.101ZM414.584 204.273H413.029C413 204.072 412.942 203.893 412.855 203.737C412.767 203.579 412.655 203.444 412.517 203.332C412.38 203.221 412.221 203.136 412.042 203.077C411.864 203.018 411.671 202.988 411.463 202.988C411.086 202.988 410.758 203.081 410.479 203.268C410.2 203.453 409.983 203.723 409.829 204.078C409.675 204.431 409.598 204.859 409.598 205.364C409.598 205.882 409.675 206.318 409.829 206.67C409.985 207.023 410.203 207.29 410.483 207.469C410.762 207.649 411.085 207.739 411.452 207.739C411.658 207.739 411.849 207.712 412.024 207.658C412.201 207.603 412.359 207.524 412.496 207.42C412.633 207.313 412.747 207.184 412.837 207.033C412.929 206.881 412.993 206.708 413.029 206.514L414.584 206.521C414.544 206.855 414.443 207.177 414.282 207.487C414.124 207.795 413.909 208.071 413.64 208.315C413.372 208.556 413.052 208.748 412.681 208.89C412.311 209.03 411.894 209.099 411.427 209.099C410.779 209.099 410.199 208.953 409.687 208.659C409.178 208.366 408.776 207.941 408.48 207.384C408.186 206.828 408.039 206.154 408.039 205.364C408.039 204.571 408.189 203.896 408.487 203.339C408.785 202.783 409.19 202.359 409.701 202.068C410.213 201.775 410.788 201.628 411.427 201.628C411.849 201.628 412.239 201.687 412.599 201.805C412.961 201.924 413.282 202.097 413.561 202.324C413.841 202.549 414.068 202.825 414.243 203.151C414.421 203.478 414.534 203.852 414.584 204.273ZM415.658 209V203.545H417.171V209H415.658ZM416.418 202.842C416.193 202.842 416 202.768 415.839 202.619C415.681 202.467 415.602 202.286 415.602 202.075C415.602 201.867 415.681 201.688 415.839 201.539C416 201.388 416.193 201.312 416.418 201.312C416.643 201.312 416.835 201.388 416.994 201.539C417.155 201.688 417.235 201.867 417.235 202.075C417.235 202.286 417.155 202.467 416.994 202.619C416.835 202.768 416.643 202.842 416.418 202.842ZM423.468 203.545L421.561 209H419.857L417.95 203.545H419.548L420.681 207.448H420.737L421.867 203.545H423.468ZM424.242 209V203.545H425.755V209H424.242ZM425.002 202.842C424.777 202.842 424.584 202.768 424.423 202.619C424.265 202.467 424.186 202.286 424.186 202.075C424.186 201.867 424.265 201.688 424.423 201.539C424.584 201.388 424.777 201.312 425.002 201.312C425.227 201.312 425.419 201.388 425.578 201.539C425.739 201.688 425.819 201.867 425.819 202.075C425.819 202.286 425.739 202.467 425.578 202.619C425.419 202.768 425.227 202.842 425.002 202.842ZM428.48 201.727V209H426.967V201.727H428.48ZM433.902 201.73H434.982V202.24C434.982 203.89 434.142 205.35 432.392 205.87L431.742 204.84C433.242 204.39 433.902 203.32 433.902 202.24V201.73ZM434.172 201.73H435.252V202.24C435.252 203.24 435.882 204.24 437.352 204.67L436.732 205.7C434.992 205.2 434.172 203.81 434.172 202.24V201.73ZM432.072 201.36H437.082V202.44H432.072V201.36ZM433.912 205.47H435.242V207.46H433.912V205.47ZM438.702 204.28H440.332V205.39H438.702V204.28ZM437.782 200.63H439.112V209.89H437.782V200.63ZM431.862 208.13L431.702 207.06C433.292 207.06 435.462 207.07 437.302 206.81L437.402 207.78C435.472 208.14 433.412 208.14 431.862 208.13ZM443.062 205.67H444.392V208.16H443.062V205.67ZM445.972 205.68H447.292V208.17H445.972V205.68ZM441.012 207.8H449.392V208.88H441.012V207.8ZM441.652 201.36H448.702V202.42H441.652V201.36ZM441.692 205.02H448.672V206.07H441.692V205.02ZM442.912 202.24H444.242V205.17H442.912V202.24ZM446.122 202.24H447.442V205.17H446.122V202.24ZM453.771 203.07H455.651V204.13H453.771V203.07ZM453.721 205.38H455.611V206.44H453.721V205.38ZM456.911 200.63H458.181V209.89H456.911V200.63ZM455.001 200.83H456.241V209.48H455.001V200.83ZM452.911 201.72H454.191C454.191 204.35 453.401 206.45 450.821 207.97L450.071 207.04C452.161 205.77 452.911 204.23 452.911 201.99V201.72ZM450.601 201.72H453.361V202.78H450.601V201.72ZM465.317 204.763V205.964H462V204.763H465.317ZM468.672 202.995V201.727H474.645V202.995H472.418V209H470.898V202.995H468.672ZM475.909 211.045C475.717 211.045 475.537 211.03 475.369 210.999C475.203 210.971 475.066 210.934 474.957 210.889L475.298 209.76C475.475 209.814 475.635 209.844 475.777 209.849C475.922 209.853 476.046 209.82 476.15 209.749C476.257 209.678 476.343 209.558 476.409 209.387L476.498 209.156L474.542 203.545H476.132L477.262 207.551H477.319L478.458 203.545H480.06L477.94 209.589C477.838 209.883 477.7 210.139 477.525 210.357C477.352 210.577 477.133 210.746 476.868 210.864C476.602 210.985 476.283 211.045 475.909 211.045ZM480.834 211.045V203.545H482.326V204.462H482.393C482.459 204.315 482.555 204.166 482.681 204.014C482.809 203.86 482.974 203.732 483.178 203.631C483.384 203.527 483.64 203.474 483.945 203.474C484.343 203.474 484.71 203.579 485.046 203.787C485.382 203.993 485.651 204.304 485.852 204.721C486.053 205.135 486.154 205.655 486.154 206.28C486.154 206.888 486.056 207.402 485.859 207.821C485.665 208.238 485.4 208.554 485.064 208.769C484.73 208.982 484.356 209.089 483.941 209.089C483.648 209.089 483.398 209.04 483.192 208.943C482.989 208.846 482.822 208.724 482.691 208.577C482.561 208.428 482.462 208.278 482.393 208.126H482.347V211.045H480.834ZM482.315 206.273C482.315 206.597 482.36 206.88 482.45 207.121C482.54 207.363 482.67 207.551 482.841 207.686C483.011 207.819 483.218 207.885 483.462 207.885C483.708 207.885 483.917 207.817 484.087 207.683C484.257 207.545 484.386 207.356 484.474 207.114C484.564 206.871 484.609 206.59 484.609 206.273C484.609 205.958 484.565 205.681 484.478 205.442C484.39 205.203 484.261 205.016 484.091 204.881C483.92 204.746 483.711 204.678 483.462 204.678C483.216 204.678 483.007 204.743 482.837 204.874C482.669 205.004 482.54 205.188 482.45 205.428C482.36 205.667 482.315 205.948 482.315 206.273ZM489.648 209.107C489.087 209.107 488.604 208.993 488.199 208.766C487.797 208.536 487.487 208.212 487.269 207.793C487.051 207.371 486.942 206.873 486.942 206.298C486.942 205.737 487.051 205.244 487.269 204.82C487.487 204.397 487.793 204.066 488.189 203.83C488.586 203.593 489.053 203.474 489.588 203.474C489.948 203.474 490.283 203.532 490.593 203.648C490.905 203.762 491.177 203.934 491.409 204.163C491.644 204.393 491.826 204.682 491.956 205.03C492.087 205.375 492.152 205.78 492.152 206.244V206.66H487.546V205.722H490.728C490.728 205.504 490.68 205.312 490.586 205.143C490.491 204.975 490.359 204.844 490.191 204.749C490.026 204.652 489.833 204.604 489.613 204.604C489.383 204.604 489.179 204.657 489.002 204.763C488.827 204.868 488.689 205.009 488.59 205.186C488.49 205.361 488.44 205.557 488.437 205.772V206.663C488.437 206.933 488.487 207.166 488.586 207.363C488.688 207.559 488.831 207.711 489.016 207.817C489.201 207.924 489.42 207.977 489.673 207.977C489.841 207.977 489.995 207.954 490.135 207.906C490.274 207.859 490.394 207.788 490.493 207.693C490.593 207.598 490.668 207.482 490.721 207.345L492.12 207.438C492.049 207.774 491.903 208.067 491.683 208.318C491.465 208.567 491.183 208.761 490.838 208.901C490.494 209.038 490.098 209.107 489.648 209.107ZM498.603 201.727V209H497.066V203.187H497.023L495.357 204.231V202.867L497.158 201.727H498.603ZM505.089 200.871V209.859H502.287V208.727H503.626V202.001H502.287V200.871H505.089Z" fill="black"/>
<path d="M524.549 137.078C524.5 136.905 524.43 136.753 524.34 136.62C524.25 136.485 524.14 136.371 524.009 136.279C523.882 136.184 523.735 136.112 523.569 136.062C523.406 136.013 523.225 135.988 523.026 135.988C522.654 135.988 522.327 136.08 522.046 136.265C521.766 136.45 521.549 136.718 521.392 137.071C521.236 137.421 521.158 137.85 521.158 138.357C521.158 138.863 521.235 139.294 521.389 139.649C521.543 140.004 521.76 140.275 522.042 140.462C522.324 140.647 522.657 140.739 523.04 140.739C523.388 140.739 523.685 140.678 523.931 140.555C524.18 140.429 524.369 140.253 524.5 140.026C524.632 139.798 524.698 139.53 524.698 139.219L525.011 139.266H523.136V138.108H526.179V139.024C526.179 139.663 526.044 140.213 525.774 140.672C525.505 141.129 525.133 141.482 524.659 141.73C524.186 141.976 523.644 142.099 523.033 142.099C522.351 142.099 521.752 141.949 521.236 141.648C520.72 141.345 520.318 140.916 520.029 140.359C519.742 139.801 519.599 139.138 519.599 138.371C519.599 137.781 519.684 137.256 519.855 136.794C520.027 136.33 520.269 135.937 520.579 135.615C520.889 135.293 521.25 135.048 521.662 134.88C522.074 134.712 522.52 134.628 523.001 134.628C523.413 134.628 523.796 134.688 524.152 134.809C524.507 134.927 524.822 135.095 525.096 135.313C525.373 135.531 525.599 135.79 525.774 136.091C525.95 136.389 526.062 136.718 526.112 137.078H524.549ZM528.819 134.727V142H527.306V134.727H528.819ZM532.495 142.107C531.943 142.107 531.466 141.989 531.064 141.755C530.664 141.518 530.355 141.189 530.137 140.768C529.919 140.344 529.81 139.853 529.81 139.294C529.81 138.731 529.919 138.238 530.137 137.817C530.355 137.393 530.664 137.064 531.064 136.83C531.466 136.593 531.943 136.474 532.495 136.474C533.047 136.474 533.522 136.593 533.922 136.83C534.325 137.064 534.635 137.393 534.853 137.817C535.071 138.238 535.18 138.731 535.18 139.294C535.18 139.853 535.071 140.344 534.853 140.768C534.635 141.189 534.325 141.518 533.922 141.755C533.522 141.989 533.047 142.107 532.495 142.107ZM532.502 140.935C532.753 140.935 532.963 140.864 533.131 140.722C533.299 140.577 533.425 140.381 533.511 140.132C533.598 139.884 533.642 139.601 533.642 139.283C533.642 138.966 533.598 138.683 533.511 138.435C533.425 138.186 533.299 137.99 533.131 137.845C532.963 137.701 532.753 137.629 532.502 137.629C532.249 137.629 532.036 137.701 531.863 137.845C531.692 137.99 531.563 138.186 531.476 138.435C531.391 138.683 531.348 138.966 531.348 139.283C531.348 139.601 531.391 139.884 531.476 140.132C531.563 140.381 531.692 140.577 531.863 140.722C532.036 140.864 532.249 140.935 532.502 140.935ZM536.192 142V134.727H537.704V137.462H537.751C537.817 137.315 537.913 137.166 538.038 137.014C538.166 136.86 538.332 136.732 538.535 136.631C538.741 136.527 538.997 136.474 539.302 136.474C539.7 136.474 540.067 136.579 540.403 136.787C540.739 136.993 541.008 137.304 541.209 137.721C541.411 138.135 541.511 138.655 541.511 139.28C541.511 139.888 541.413 140.402 541.217 140.821C541.022 141.238 540.757 141.554 540.421 141.769C540.087 141.982 539.713 142.089 539.299 142.089C539.005 142.089 538.756 142.04 538.55 141.943C538.346 141.846 538.179 141.724 538.049 141.577C537.919 141.428 537.819 141.278 537.751 141.126H537.683V142H536.192ZM537.672 139.273C537.672 139.597 537.717 139.88 537.807 140.121C537.897 140.363 538.028 140.551 538.198 140.686C538.369 140.819 538.576 140.885 538.82 140.885C539.066 140.885 539.274 140.817 539.445 140.683C539.615 140.545 539.744 140.356 539.832 140.114C539.922 139.871 539.967 139.59 539.967 139.273C539.967 138.958 539.923 138.681 539.835 138.442C539.748 138.203 539.619 138.016 539.448 137.881C539.278 137.746 539.068 137.678 538.82 137.678C538.573 137.678 538.365 137.743 538.195 137.874C538.026 138.004 537.897 138.188 537.807 138.428C537.717 138.667 537.672 138.948 537.672 139.273ZM544.076 142.103C543.728 142.103 543.418 142.043 543.146 141.922C542.873 141.799 542.658 141.618 542.499 141.379C542.343 141.137 542.265 140.836 542.265 140.477C542.265 140.174 542.321 139.919 542.432 139.713C542.543 139.507 542.695 139.341 542.886 139.216C543.078 139.09 543.296 138.996 543.54 138.932C543.786 138.868 544.044 138.823 544.314 138.797C544.631 138.764 544.887 138.733 545.081 138.705C545.275 138.674 545.416 138.629 545.504 138.57C545.591 138.51 545.635 138.423 545.635 138.307V138.286C545.635 138.061 545.564 137.887 545.422 137.763C545.282 137.64 545.083 137.579 544.825 137.579C544.553 137.579 544.336 137.639 544.176 137.76C544.015 137.878 543.908 138.027 543.856 138.207L542.457 138.094C542.528 137.762 542.667 137.476 542.876 137.234C543.084 136.991 543.353 136.804 543.682 136.673C544.013 136.541 544.397 136.474 544.832 136.474C545.136 136.474 545.426 136.51 545.703 136.581C545.982 136.652 546.229 136.762 546.445 136.911C546.662 137.06 546.834 137.252 546.96 137.487C547.085 137.719 547.148 137.997 547.148 138.321V142H545.713V141.244H545.671C545.583 141.414 545.466 141.564 545.319 141.695C545.172 141.822 544.996 141.923 544.79 141.996C544.584 142.067 544.346 142.103 544.076 142.103ZM544.509 141.059C544.732 141.059 544.928 141.015 545.099 140.928C545.269 140.838 545.403 140.717 545.5 140.565C545.597 140.414 545.646 140.242 545.646 140.05V139.472C545.598 139.502 545.533 139.531 545.45 139.557C545.37 139.58 545.279 139.603 545.177 139.624C545.075 139.643 544.973 139.661 544.872 139.678C544.77 139.692 544.677 139.705 544.595 139.717C544.417 139.743 544.262 139.784 544.129 139.841C543.997 139.898 543.894 139.975 543.82 140.072C543.747 140.166 543.71 140.285 543.71 140.427C543.71 140.633 543.785 140.79 543.934 140.899C544.086 141.006 544.277 141.059 544.509 141.059ZM549.834 134.727V142H548.321V134.727H549.834ZM554.831 134.727L556.297 137.206H556.354L557.828 134.727H559.564L557.345 138.364L559.614 142H557.846L556.354 139.518H556.297L554.806 142H553.044L555.321 138.364L553.087 134.727H554.831Z" fill="black"/>
<path d="M424.5 66.0781C424.451 65.9053 424.381 65.7526 424.291 65.62C424.201 65.4851 424.091 65.3714 423.961 65.2791C423.833 65.1844 423.686 65.1122 423.52 65.0625C423.357 65.0128 423.176 64.9879 422.977 64.9879C422.605 64.9879 422.279 65.0803 421.997 65.2649C421.718 65.4496 421.5 65.7183 421.343 66.071C421.187 66.4214 421.109 66.8499 421.109 67.3565C421.109 67.8632 421.186 68.294 421.34 68.6491C421.494 69.0043 421.712 69.2753 421.993 69.4624C422.275 69.647 422.608 69.7393 422.991 69.7393C423.339 69.7393 423.636 69.6778 423.883 69.5547C424.131 69.4292 424.321 69.2528 424.451 69.0256C424.583 68.7983 424.65 68.5296 424.65 68.2195L424.962 68.2656H423.087V67.108H426.13V68.0241C426.13 68.6634 425.995 69.2126 425.726 69.6719C425.456 70.1288 425.084 70.4815 424.611 70.7301C424.137 70.9763 423.595 71.0994 422.984 71.0994C422.302 71.0994 421.703 70.9491 421.187 70.6484C420.671 70.3454 420.269 69.9157 419.98 69.3594C419.693 68.8007 419.55 68.1378 419.55 67.3707C419.55 66.7812 419.635 66.2557 419.806 65.794C419.979 65.33 420.22 64.937 420.53 64.6151C420.84 64.2931 421.201 64.0481 421.613 63.88C422.025 63.7119 422.472 63.6278 422.952 63.6278C423.364 63.6278 423.748 63.6882 424.103 63.8089C424.458 63.9273 424.773 64.0954 425.047 64.3132C425.324 64.531 425.55 64.7902 425.726 65.0909C425.901 65.3892 426.013 65.7183 426.063 66.0781H424.5ZM428.77 63.7273V71H427.257V63.7273H428.77ZM432.446 71.1065C431.895 71.1065 431.417 70.9893 431.015 70.755C430.615 70.5182 430.306 70.1892 430.088 69.7678C429.87 69.344 429.761 68.8527 429.761 68.294C429.761 67.7306 429.87 67.2382 430.088 66.8168C430.306 66.393 430.615 66.0639 431.015 65.8295C431.417 65.5928 431.895 65.4744 432.446 65.4744C432.998 65.4744 433.474 65.5928 433.874 65.8295C434.276 66.0639 434.586 66.393 434.804 66.8168C435.022 67.2382 435.131 67.7306 435.131 68.294C435.131 68.8527 435.022 69.344 434.804 69.7678C434.586 70.1892 434.276 70.5182 433.874 70.755C433.474 70.9893 432.998 71.1065 432.446 71.1065ZM432.453 69.9347C432.704 69.9347 432.914 69.8636 433.082 69.7216C433.25 69.5772 433.377 69.3807 433.462 69.1321C433.549 68.8835 433.593 68.6006 433.593 68.2834C433.593 67.9661 433.549 67.6832 433.462 67.4347C433.377 67.1861 433.25 66.9896 433.082 66.8452C432.914 66.7008 432.704 66.6286 432.453 66.6286C432.2 66.6286 431.987 66.7008 431.814 66.8452C431.644 66.9896 431.515 67.1861 431.427 67.4347C431.342 67.6832 431.299 67.9661 431.299 68.2834C431.299 68.6006 431.342 68.8835 431.427 69.1321C431.515 69.3807 431.644 69.5772 431.814 69.7216C431.987 69.8636 432.2 69.9347 432.453 69.9347ZM436.143 71V63.7273H437.656V66.4616H437.702C437.768 66.3149 437.864 66.1657 437.989 66.0142C438.117 65.8603 438.283 65.7325 438.487 65.6307C438.693 65.5265 438.948 65.4744 439.254 65.4744C439.651 65.4744 440.018 65.5786 440.354 65.7869C440.691 65.9929 440.959 66.3042 441.161 66.7209C441.362 67.1352 441.462 67.6548 441.462 68.2798C441.462 68.8883 441.364 69.402 441.168 69.821C440.974 70.2377 440.708 70.5537 440.372 70.7692C440.038 70.9822 439.664 71.0888 439.25 71.0888C438.957 71.0888 438.707 71.0402 438.501 70.9432C438.297 70.8461 438.13 70.7242 438 70.5774C437.87 70.4283 437.77 70.2779 437.702 70.1264H437.634V71H436.143ZM437.624 68.2727C437.624 68.5971 437.669 68.88 437.759 69.1214C437.849 69.3629 437.979 69.5511 438.149 69.6861C438.32 69.8187 438.527 69.8849 438.771 69.8849C439.017 69.8849 439.225 69.8175 439.396 69.6825C439.566 69.5452 439.695 69.3558 439.783 69.1143C439.873 68.8705 439.918 68.59 439.918 68.2727C439.918 67.9579 439.874 67.6809 439.786 67.4418C439.699 67.2027 439.57 67.0156 439.399 66.8807C439.229 66.7457 439.019 66.6783 438.771 66.6783C438.524 66.6783 438.316 66.7434 438.146 66.8736C437.978 67.0038 437.849 67.1884 437.759 67.4276C437.669 67.6667 437.624 67.9484 437.624 68.2727ZM444.027 71.103C443.679 71.103 443.369 71.0426 443.097 70.9219C442.825 70.7988 442.609 70.6177 442.451 70.3786C442.294 70.1371 442.216 69.8364 442.216 69.4766C442.216 69.1735 442.272 68.919 442.383 68.7131C442.494 68.5071 442.646 68.3414 442.838 68.2159C443.029 68.0904 443.247 67.9957 443.491 67.9318C443.737 67.8679 443.995 67.8229 444.265 67.7969C444.582 67.7637 444.838 67.733 445.032 67.7045C445.226 67.6738 445.367 67.6288 445.455 67.5696C445.542 67.5104 445.586 67.4228 445.586 67.3068V67.2855C445.586 67.0606 445.515 66.8866 445.373 66.7635C445.233 66.6404 445.035 66.5788 444.777 66.5788C444.504 66.5788 444.288 66.6392 444.127 66.7599C443.966 66.8783 443.859 67.0275 443.807 67.2074L442.408 67.0938C442.479 66.7623 442.619 66.4759 442.827 66.2344C443.035 65.9905 443.304 65.8035 443.633 65.6733C443.965 65.5407 444.348 65.4744 444.784 65.4744C445.087 65.4744 445.377 65.5099 445.654 65.581C445.933 65.652 446.18 65.7621 446.396 65.9112C446.614 66.0604 446.785 66.2521 446.911 66.4865C447.036 66.7185 447.099 66.9967 447.099 67.321V71H445.664V70.2436H445.622C445.534 70.4141 445.417 70.5644 445.27 70.6946C445.123 70.8224 444.947 70.9231 444.741 70.9964C444.535 71.0675 444.297 71.103 444.027 71.103ZM444.46 70.0589C444.683 70.0589 444.88 70.0152 445.05 69.9276C445.22 69.8376 445.354 69.7169 445.451 69.5653C445.548 69.4138 445.597 69.2422 445.597 69.0504V68.4716C445.55 68.5024 445.484 68.5308 445.402 68.5568C445.321 68.5805 445.23 68.603 445.128 68.6243C445.026 68.6432 444.925 68.661 444.823 68.6776C444.721 68.6918 444.629 68.7048 444.546 68.7166C444.368 68.7427 444.213 68.7841 444.081 68.8409C443.948 68.8977 443.845 68.9747 443.772 69.0717C443.698 69.1664 443.661 69.2848 443.661 69.4268C443.661 69.6328 443.736 69.7902 443.885 69.8991C444.037 70.0057 444.228 70.0589 444.46 70.0589ZM449.785 63.7273V71H448.273V63.7273H449.785ZM452.914 63.7273H454.636L456.295 66.8594H456.366L458.024 63.7273H459.746L457.094 68.429V71H455.567V68.429L452.914 63.7273Z" fill="black"/>
<rect x="640.5" y="188.33" width="99.8298" height="46.1969" transform="rotate(-90 640.5 188.33)" fill="white" stroke="black"/>
<circle cx="649.749" cy="177.48" r="4.55879" transform="rotate(-90 649.749 177.48)" fill="#D9D9D9"/>
<circle cx="649.749" cy="156.563" r="4.55879" transform="rotate(-90 649.749 156.563)" fill="#D9D9D9"/>
<circle cx="649.749" cy="137.256" r="4.55879" transform="rotate(-90 649.749 137.256)" fill="#D9D9D9"/>
<circle cx="649.749" cy="117.948" r="4.55879" transform="rotate(-90 649.749 117.948)" fill="#D9D9D9"/>
<circle cx="649.749" cy="99.1762" r="4.55879" transform="rotate(-90 649.749 99.1762)" fill="#D9D9D9"/>
<circle cx="663.721" cy="177.529" r="4.55879" transform="rotate(-90 663.721 177.529)" fill="#D9D9D9"/>
<circle cx="663.721" cy="156.612" r="4.55879" transform="rotate(-90 663.721 156.612)" fill="#D9D9D9"/>
<circle cx="663.721" cy="137.304" r="4.55879" transform="rotate(-90 663.721 137.304)" fill="#D9D9D9"/>
<circle cx="663.721" cy="117.996" r="4.55879" transform="rotate(-90 663.721 117.996)" fill="#D9D9D9"/>
<circle cx="663.721" cy="99.2246" r="4.55879" transform="rotate(-90 663.721 99.2246)" fill="#D9D9D9"/>
<circle cx="678.271" cy="177.529" r="4.55879" transform="rotate(-90 678.271 177.529)" fill="#D9D9D9"/>
<circle cx="678.271" cy="156.612" r="4.55879" transform="rotate(-90 678.271 156.612)" fill="#D9D9D9"/>
<circle cx="678.271" cy="137.304" r="4.55879" transform="rotate(-90 678.271 137.304)" fill="#D9D9D9"/>
<circle cx="678.271" cy="117.996" r="4.55879" transform="rotate(-90 678.271 117.996)" fill="#D9D9D9"/>
<circle cx="678.271" cy="99.2246" r="4.55879" transform="rotate(-90 678.271 99.2246)" fill="#D9D9D9"/>
<path d="M663 81L659.536 87L666.464 87L663 81ZM663.6 138L663.6 86.4L662.4 86.4L662.4 138L663.6 138Z" fill="black"/>
<path d="M708 138L702 134.536V141.464L708 138ZM663 138.6H702.6V137.4H663V138.6Z" fill="black"/>
<path d="M595.521 209.859V200.871H598.323V202.001H596.984V208.727H598.323V209.859H595.521ZM601.501 201.727H603.398L605.4 206.614H605.486L607.488 201.727H609.385V209H607.893V204.266H607.833L605.951 208.964H604.935L603.053 204.249H602.993V209H601.501V201.727ZM610.623 209V203.545H612.136V209H610.623ZM611.383 202.842C611.158 202.842 610.965 202.768 610.804 202.619C610.646 202.467 610.566 202.286 610.566 202.075C610.566 201.867 610.646 201.688 610.804 201.539C610.965 201.388 611.158 201.312 611.383 201.312C611.608 201.312 611.8 201.388 611.958 201.539C612.119 201.688 612.2 201.867 612.2 202.075C612.2 202.286 612.119 202.467 611.958 202.619C611.8 202.768 611.608 202.842 611.383 202.842ZM615.358 209.089C614.943 209.089 614.568 208.982 614.232 208.769C613.898 208.554 613.633 208.238 613.437 207.821C613.242 207.402 613.145 206.888 613.145 206.28C613.145 205.655 613.246 205.135 613.447 204.721C613.648 204.304 613.916 203.993 614.25 203.787C614.586 203.579 614.954 203.474 615.354 203.474C615.66 203.474 615.914 203.527 616.118 203.631C616.324 203.732 616.489 203.86 616.615 204.014C616.743 204.166 616.84 204.315 616.906 204.462H616.952V201.727H618.461V209H616.97V208.126H616.906C616.835 208.278 616.734 208.428 616.604 208.577C616.476 208.724 616.309 208.846 616.104 208.943C615.9 209.04 615.651 209.089 615.358 209.089ZM615.837 207.885C616.081 207.885 616.287 207.819 616.455 207.686C616.626 207.551 616.756 207.363 616.846 207.121C616.938 206.88 616.984 206.597 616.984 206.273C616.984 205.948 616.939 205.667 616.849 205.428C616.759 205.188 616.629 205.004 616.459 204.874C616.288 204.743 616.081 204.678 615.837 204.678C615.589 204.678 615.379 204.746 615.209 204.881C615.038 205.016 614.909 205.203 614.822 205.442C614.734 205.681 614.69 205.958 614.69 206.273C614.69 206.59 614.734 206.871 614.822 207.114C614.912 207.356 615.041 207.545 615.209 207.683C615.379 207.817 615.589 207.885 615.837 207.885ZM621.261 209.103C620.913 209.103 620.603 209.043 620.33 208.922C620.058 208.799 619.843 208.618 619.684 208.379C619.528 208.137 619.45 207.836 619.45 207.477C619.45 207.174 619.505 206.919 619.616 206.713C619.728 206.507 619.879 206.341 620.071 206.216C620.263 206.09 620.481 205.996 620.724 205.932C620.971 205.868 621.229 205.823 621.499 205.797C621.816 205.764 622.071 205.733 622.266 205.705C622.46 205.674 622.601 205.629 622.688 205.57C622.776 205.51 622.82 205.423 622.82 205.307V205.286C622.82 205.061 622.749 204.887 622.607 204.763C622.467 204.64 622.268 204.579 622.01 204.579C621.738 204.579 621.521 204.639 621.36 204.76C621.199 204.878 621.093 205.027 621.04 205.207L619.641 205.094C619.712 204.762 619.852 204.476 620.06 204.234C620.269 203.991 620.537 203.804 620.866 203.673C621.198 203.541 621.581 203.474 622.017 203.474C622.32 203.474 622.61 203.51 622.887 203.581C623.166 203.652 623.414 203.762 623.629 203.911C623.847 204.06 624.019 204.252 624.144 204.487C624.27 204.719 624.332 204.997 624.332 205.321V209H622.898V208.244H622.855C622.768 208.414 622.65 208.564 622.504 208.695C622.357 208.822 622.18 208.923 621.974 208.996C621.768 209.067 621.531 209.103 621.261 209.103ZM621.694 208.059C621.916 208.059 622.113 208.015 622.283 207.928C622.454 207.838 622.588 207.717 622.685 207.565C622.782 207.414 622.83 207.242 622.83 207.05V206.472C622.783 206.502 622.718 206.531 622.635 206.557C622.554 206.58 622.463 206.603 622.362 206.624C622.26 206.643 622.158 206.661 622.056 206.678C621.954 206.692 621.862 206.705 621.779 206.717C621.602 206.743 621.446 206.784 621.314 206.841C621.181 206.898 621.078 206.975 621.005 207.072C620.932 207.166 620.895 207.285 620.895 207.427C620.895 207.633 620.969 207.79 621.119 207.899C621.27 208.006 621.462 208.059 621.694 208.059ZM630.044 205.101L628.659 205.186C628.636 205.068 628.585 204.961 628.507 204.866C628.429 204.769 628.326 204.692 628.198 204.636C628.072 204.576 627.922 204.547 627.747 204.547C627.512 204.547 627.315 204.597 627.154 204.696C626.993 204.793 626.912 204.923 626.912 205.087C626.912 205.217 626.964 205.327 627.069 205.417C627.173 205.507 627.351 205.579 627.605 205.634L628.592 205.832C629.122 205.941 629.518 206.116 629.778 206.358C630.038 206.599 630.169 206.917 630.169 207.31C630.169 207.667 630.063 207.981 629.853 208.251C629.644 208.521 629.358 208.731 628.993 208.883C628.631 209.032 628.213 209.107 627.74 209.107C627.018 209.107 626.442 208.956 626.014 208.656C625.588 208.353 625.338 207.941 625.265 207.42L626.752 207.342C626.797 207.562 626.906 207.73 627.079 207.846C627.252 207.96 627.473 208.016 627.743 208.016C628.008 208.016 628.221 207.965 628.382 207.864C628.546 207.759 628.629 207.626 628.631 207.462C628.629 207.325 628.571 207.213 628.457 207.125C628.343 207.035 628.168 206.966 627.931 206.919L626.987 206.731C626.454 206.624 626.058 206.44 625.797 206.177C625.539 205.914 625.41 205.579 625.41 205.172C625.41 204.821 625.505 204.52 625.694 204.266C625.886 204.013 626.155 203.818 626.5 203.68C626.848 203.543 627.256 203.474 627.722 203.474C628.411 203.474 628.953 203.62 629.348 203.911C629.746 204.202 629.978 204.599 630.044 205.101ZM639.881 204.273H638.326C638.297 204.072 638.239 203.893 638.152 203.737C638.064 203.579 637.952 203.444 637.814 203.332C637.677 203.221 637.518 203.136 637.338 203.077C637.161 203.018 636.968 202.988 636.76 202.988C636.383 202.988 636.055 203.081 635.776 203.268C635.497 203.453 635.28 203.723 635.126 204.078C634.972 204.431 634.895 204.859 634.895 205.364C634.895 205.882 634.972 206.318 635.126 206.67C635.282 207.023 635.5 207.29 635.779 207.469C636.059 207.649 636.382 207.739 636.749 207.739C636.955 207.739 637.145 207.712 637.321 207.658C637.498 207.603 637.656 207.524 637.793 207.42C637.93 207.313 638.044 207.184 638.134 207.033C638.226 206.881 638.29 206.708 638.326 206.514L639.881 206.521C639.841 206.855 639.74 207.177 639.579 207.487C639.421 207.795 639.206 208.071 638.936 208.315C638.669 208.556 638.349 208.748 637.978 208.89C637.608 209.03 637.19 209.099 636.724 209.099C636.075 209.099 635.495 208.953 634.984 208.659C634.475 208.366 634.073 207.941 633.777 207.384C633.483 206.828 633.336 206.154 633.336 205.364C633.336 204.571 633.485 203.896 633.784 203.339C634.082 202.783 634.487 202.359 634.998 202.068C635.51 201.775 636.085 201.628 636.724 201.628C637.145 201.628 637.536 201.687 637.896 201.805C638.258 201.924 638.579 202.097 638.858 202.324C639.138 202.549 639.365 202.825 639.54 203.151C639.718 203.478 639.831 203.852 639.881 204.273ZM640.955 209V203.545H642.468V209H640.955ZM641.715 202.842C641.49 202.842 641.297 202.768 641.136 202.619C640.978 202.467 640.898 202.286 640.898 202.075C640.898 201.867 640.978 201.688 641.136 201.539C641.297 201.388 641.49 201.312 641.715 201.312C641.94 201.312 642.132 201.388 642.29 201.539C642.451 201.688 642.532 201.867 642.532 202.075C642.532 202.286 642.451 202.467 642.29 202.619C642.132 202.768 641.94 202.842 641.715 202.842ZM648.765 203.545L646.858 209H645.154L643.247 203.545H644.845L645.977 207.448H646.034L647.164 203.545H648.765ZM649.539 209V203.545H651.052V209H649.539ZM650.299 202.842C650.074 202.842 649.881 202.768 649.72 202.619C649.562 202.467 649.482 202.286 649.482 202.075C649.482 201.867 649.562 201.688 649.72 201.539C649.881 201.388 650.074 201.312 650.299 201.312C650.524 201.312 650.716 201.388 650.874 201.539C651.035 201.688 651.116 201.867 651.116 202.075C651.116 202.286 651.035 202.467 650.874 202.619C650.716 202.768 650.524 202.842 650.299 202.842ZM653.777 201.727V209H652.264V201.727H653.777ZM659.199 201.73H660.279V202.24C660.279 203.89 659.439 205.35 657.689 205.87L657.039 204.84C658.539 204.39 659.199 203.32 659.199 202.24V201.73ZM659.469 201.73H660.549V202.24C660.549 203.24 661.179 204.24 662.649 204.67L662.029 205.7C660.289 205.2 659.469 203.81 659.469 202.24V201.73ZM657.369 201.36H662.379V202.44H657.369V201.36ZM659.209 205.47H660.539V207.46H659.209V205.47ZM663.999 204.28H665.629V205.39H663.999V204.28ZM663.079 200.63H664.409V209.89H663.079V200.63ZM657.159 208.13L656.999 207.06C658.589 207.06 660.759 207.07 662.599 206.81L662.699 207.78C660.769 208.14 658.709 208.14 657.159 208.13ZM668.358 205.67H669.688V208.16H668.358V205.67ZM671.268 205.68H672.588V208.17H671.268V205.68ZM666.308 207.8H674.688V208.88H666.308V207.8ZM666.948 201.36H673.998V202.42H666.948V201.36ZM666.988 205.02H673.968V206.07H666.988V205.02ZM668.208 202.24H669.538V205.17H668.208V202.24ZM671.418 202.24H672.738V205.17H671.418V202.24ZM679.068 203.07H680.948V204.13H679.068V203.07ZM679.018 205.38H680.908V206.44H679.018V205.38ZM682.208 200.63H683.478V209.89H682.208V200.63ZM680.298 200.83H681.538V209.48H680.298V200.83ZM678.208 201.72H679.488C679.488 204.35 678.698 206.45 676.118 207.97L675.368 207.04C677.458 205.77 678.208 204.23 678.208 201.99V201.72ZM675.898 201.72H678.658V202.78H675.898V201.72ZM690.613 204.763V205.964H687.297V204.763H690.613ZM693.968 202.995V201.727H699.941V202.995H697.715V209H696.195V202.995H693.968ZM701.206 211.045C701.014 211.045 700.834 211.03 700.666 210.999C700.5 210.971 700.363 210.934 700.254 210.889L700.595 209.76C700.772 209.814 700.932 209.844 701.074 209.849C701.219 209.853 701.343 209.82 701.447 209.749C701.554 209.678 701.64 209.558 701.706 209.387L701.795 209.156L699.838 203.545H701.429L702.559 207.551H702.615L703.755 203.545H705.357L703.237 209.589C703.135 209.883 702.997 210.139 702.821 210.357C702.649 210.577 702.43 210.746 702.164 210.864C701.899 210.985 701.58 211.045 701.206 211.045ZM706.131 211.045V203.545H707.623V204.462H707.69C707.756 204.315 707.852 204.166 707.978 204.014C708.105 203.86 708.271 203.732 708.475 203.631C708.681 203.527 708.936 203.474 709.242 203.474C709.64 203.474 710.007 203.579 710.343 203.787C710.679 203.993 710.948 204.304 711.149 204.721C711.35 205.135 711.451 205.655 711.451 206.28C711.451 206.888 711.352 207.402 711.156 207.821C710.962 208.238 710.697 208.554 710.36 208.769C710.027 208.982 709.653 209.089 709.238 209.089C708.945 209.089 708.695 209.04 708.489 208.943C708.285 208.846 708.118 208.724 707.988 208.577C707.858 208.428 707.759 208.278 707.69 208.126H707.644V211.045H706.131ZM707.612 206.273C707.612 206.597 707.657 206.88 707.747 207.121C707.837 207.363 707.967 207.551 708.137 207.686C708.308 207.819 708.515 207.885 708.759 207.885C709.005 207.885 709.213 207.817 709.384 207.683C709.554 207.545 709.683 207.356 709.771 207.114C709.861 206.871 709.906 206.59 709.906 206.273C709.906 205.958 709.862 205.681 709.775 205.442C709.687 205.203 709.558 205.016 709.387 204.881C709.217 204.746 709.007 204.678 708.759 204.678C708.513 204.678 708.304 204.743 708.134 204.874C707.966 205.004 707.837 205.188 707.747 205.428C707.657 205.667 707.612 205.948 707.612 206.273ZM714.945 209.107C714.384 209.107 713.901 208.993 713.496 208.766C713.094 208.536 712.783 208.212 712.566 207.793C712.348 207.371 712.239 206.873 712.239 206.298C712.239 205.737 712.348 205.244 712.566 204.82C712.783 204.397 713.09 204.066 713.485 203.83C713.883 203.593 714.35 203.474 714.885 203.474C715.244 203.474 715.579 203.532 715.89 203.648C716.202 203.762 716.474 203.934 716.706 204.163C716.941 204.393 717.123 204.682 717.253 205.03C717.383 205.375 717.449 205.78 717.449 206.244V206.66H712.843V205.722H716.025C716.025 205.504 715.977 205.312 715.882 205.143C715.788 204.975 715.656 204.844 715.488 204.749C715.323 204.652 715.13 204.604 714.909 204.604C714.68 204.604 714.476 204.657 714.299 204.763C714.123 204.868 713.986 205.009 713.887 205.186C713.787 205.361 713.736 205.557 713.734 205.772V206.663C713.734 206.933 713.784 207.166 713.883 207.363C713.985 207.559 714.128 207.711 714.313 207.817C714.498 207.924 714.717 207.977 714.97 207.977C715.138 207.977 715.292 207.954 715.431 207.906C715.571 207.859 715.691 207.788 715.79 207.693C715.89 207.598 715.965 207.482 716.017 207.345L717.417 207.438C717.346 207.774 717.2 208.067 716.98 208.318C716.762 208.567 716.48 208.761 716.135 208.901C715.791 209.038 715.395 209.107 714.945 209.107ZM720.736 209V207.892L723.325 205.495C723.545 205.282 723.73 205.09 723.879 204.92C724.03 204.749 724.145 204.582 724.223 204.419C724.301 204.253 724.34 204.075 724.34 203.883C724.34 203.67 724.292 203.486 724.195 203.332C724.098 203.176 723.965 203.057 723.797 202.974C723.629 202.888 723.438 202.846 723.225 202.846C723.003 202.846 722.809 202.891 722.643 202.981C722.477 203.071 722.349 203.2 722.259 203.368C722.169 203.536 722.124 203.736 722.124 203.968H720.665C720.665 203.492 720.773 203.079 720.988 202.729C721.204 202.378 721.505 202.107 721.894 201.915C722.282 201.724 722.729 201.628 723.236 201.628C723.757 201.628 724.21 201.72 724.596 201.905C724.984 202.087 725.286 202.34 725.502 202.665C725.717 202.989 725.825 203.361 725.825 203.78C725.825 204.054 725.77 204.326 725.661 204.593C725.555 204.861 725.364 205.158 725.09 205.484C724.815 205.809 724.428 206.198 723.928 206.653L722.867 207.693V207.743H725.921V209H720.736ZM731.792 200.871V209.859H728.991V208.727H730.329V202.001H728.991V200.871H731.792Z" fill="black"/>
<path d="M726.549 137.078C726.5 136.905 726.43 136.753 726.34 136.62C726.25 136.485 726.14 136.371 726.009 136.279C725.882 136.184 725.735 136.112 725.569 136.062C725.406 136.013 725.225 135.988 725.026 135.988C724.654 135.988 724.327 136.08 724.046 136.265C723.766 136.45 723.549 136.718 723.392 137.071C723.236 137.421 723.158 137.85 723.158 138.357C723.158 138.863 723.235 139.294 723.389 139.649C723.543 140.004 723.76 140.275 724.042 140.462C724.324 140.647 724.657 140.739 725.04 140.739C725.388 140.739 725.685 140.678 725.931 140.555C726.18 140.429 726.369 140.253 726.5 140.026C726.632 139.798 726.698 139.53 726.698 139.219L727.011 139.266H725.136V138.108H728.179V139.024C728.179 139.663 728.044 140.213 727.774 140.672C727.505 141.129 727.133 141.482 726.659 141.73C726.186 141.976 725.644 142.099 725.033 142.099C724.351 142.099 723.752 141.949 723.236 141.648C722.72 141.345 722.318 140.916 722.029 140.359C721.742 139.801 721.599 139.138 721.599 138.371C721.599 137.781 721.684 137.256 721.855 136.794C722.027 136.33 722.269 135.937 722.579 135.615C722.889 135.293 723.25 135.048 723.662 134.88C724.074 134.712 724.52 134.628 725.001 134.628C725.413 134.628 725.796 134.688 726.152 134.809C726.507 134.927 726.822 135.095 727.096 135.313C727.373 135.531 727.599 135.79 727.774 136.091C727.95 136.389 728.062 136.718 728.112 137.078H726.549ZM730.819 134.727V142H729.306V134.727H730.819ZM734.495 142.107C733.943 142.107 733.466 141.989 733.064 141.755C732.664 141.518 732.355 141.189 732.137 140.768C731.919 140.344 731.81 139.853 731.81 139.294C731.81 138.731 731.919 138.238 732.137 137.817C732.355 137.393 732.664 137.064 733.064 136.83C733.466 136.593 733.943 136.474 734.495 136.474C735.047 136.474 735.522 136.593 735.922 136.83C736.325 137.064 736.635 137.393 736.853 137.817C737.071 138.238 737.18 138.731 737.18 139.294C737.18 139.853 737.071 140.344 736.853 140.768C736.635 141.189 736.325 141.518 735.922 141.755C735.522 141.989 735.047 142.107 734.495 142.107ZM734.502 140.935C734.753 140.935 734.963 140.864 735.131 140.722C735.299 140.577 735.425 140.381 735.511 140.132C735.598 139.884 735.642 139.601 735.642 139.283C735.642 138.966 735.598 138.683 735.511 138.435C735.425 138.186 735.299 137.99 735.131 137.845C734.963 137.701 734.753 137.629 734.502 137.629C734.249 137.629 734.036 137.701 733.863 137.845C733.692 137.99 733.563 138.186 733.476 138.435C733.391 138.683 733.348 138.966 733.348 139.283C733.348 139.601 733.391 139.884 733.476 140.132C733.563 140.381 733.692 140.577 733.863 140.722C734.036 140.864 734.249 140.935 734.502 140.935ZM738.192 142V134.727H739.704V137.462H739.751C739.817 137.315 739.913 137.166 740.038 137.014C740.166 136.86 740.332 136.732 740.535 136.631C740.741 136.527 740.997 136.474 741.302 136.474C741.7 136.474 742.067 136.579 742.403 136.787C742.739 136.993 743.008 137.304 743.209 137.721C743.411 138.135 743.511 138.655 743.511 139.28C743.511 139.888 743.413 140.402 743.217 140.821C743.022 141.238 742.757 141.554 742.421 141.769C742.087 141.982 741.713 142.089 741.299 142.089C741.005 142.089 740.756 142.04 740.55 141.943C740.346 141.846 740.179 141.724 740.049 141.577C739.919 141.428 739.819 141.278 739.751 141.126H739.683V142H738.192ZM739.672 139.273C739.672 139.597 739.717 139.88 739.807 140.121C739.897 140.363 740.028 140.551 740.198 140.686C740.369 140.819 740.576 140.885 740.82 140.885C741.066 140.885 741.274 140.817 741.445 140.683C741.615 140.545 741.744 140.356 741.832 140.114C741.922 139.871 741.967 139.59 741.967 139.273C741.967 138.958 741.923 138.681 741.835 138.442C741.748 138.203 741.619 138.016 741.448 137.881C741.278 137.746 741.068 137.678 740.82 137.678C740.573 137.678 740.365 137.743 740.195 137.874C740.026 138.004 739.897 138.188 739.807 138.428C739.717 138.667 739.672 138.948 739.672 139.273ZM746.076 142.103C745.728 142.103 745.418 142.043 745.146 141.922C744.873 141.799 744.658 141.618 744.499 141.379C744.343 141.137 744.265 140.836 744.265 140.477C744.265 140.174 744.321 139.919 744.432 139.713C744.543 139.507 744.695 139.341 744.886 139.216C745.078 139.09 745.296 138.996 745.54 138.932C745.786 138.868 746.044 138.823 746.314 138.797C746.631 138.764 746.887 138.733 747.081 138.705C747.275 138.674 747.416 138.629 747.504 138.57C747.591 138.51 747.635 138.423 747.635 138.307V138.286C747.635 138.061 747.564 137.887 747.422 137.763C747.282 137.64 747.083 137.579 746.825 137.579C746.553 137.579 746.336 137.639 746.176 137.76C746.015 137.878 745.908 138.027 745.856 138.207L744.457 138.094C744.528 137.762 744.667 137.476 744.876 137.234C745.084 136.991 745.353 136.804 745.682 136.673C746.013 136.541 746.397 136.474 746.832 136.474C747.136 136.474 747.426 136.51 747.703 136.581C747.982 136.652 748.229 136.762 748.445 136.911C748.662 137.06 748.834 137.252 748.96 137.487C749.085 137.719 749.148 137.997 749.148 138.321V142H747.713V141.244H747.671C747.583 141.414 747.466 141.564 747.319 141.695C747.172 141.822 746.996 141.923 746.79 141.996C746.584 142.067 746.346 142.103 746.076 142.103ZM746.509 141.059C746.732 141.059 746.928 141.015 747.099 140.928C747.269 140.838 747.403 140.717 747.5 140.565C747.597 140.414 747.646 140.242 747.646 140.05V139.472C747.598 139.502 747.533 139.531 747.45 139.557C747.37 139.58 747.279 139.603 747.177 139.624C747.075 139.643 746.973 139.661 746.872 139.678C746.77 139.692 746.677 139.705 746.595 139.717C746.417 139.743 746.262 139.784 746.129 139.841C745.997 139.898 745.894 139.975 745.82 140.072C745.747 140.166 745.71 140.285 745.71 140.427C745.71 140.633 745.785 140.79 745.934 140.899C746.086 141.006 746.277 141.059 746.509 141.059ZM751.834 134.727V142H750.321V134.727H751.834ZM756.831 134.727L758.297 137.206H758.354L759.828 134.727H761.564L759.345 138.364L761.614 142H759.846L758.354 139.518H758.297L756.806 142H755.044L757.321 138.364L755.087 134.727H756.831Z" fill="black"/>
<path d="M650.5 66.0781C650.451 65.9053 650.381 65.7526 650.291 65.62C650.201 65.4851 650.091 65.3714 649.961 65.2791C649.833 65.1844 649.686 65.1122 649.52 65.0625C649.357 65.0128 649.176 64.9879 648.977 64.9879C648.605 64.9879 648.279 65.0803 647.997 65.2649C647.718 65.4496 647.5 65.7183 647.343 66.071C647.187 66.4214 647.109 66.8499 647.109 67.3565C647.109 67.8632 647.186 68.294 647.34 68.6491C647.494 69.0043 647.712 69.2753 647.993 69.4624C648.275 69.647 648.608 69.7393 648.991 69.7393C649.339 69.7393 649.636 69.6778 649.883 69.5547C650.131 69.4292 650.321 69.2528 650.451 69.0256C650.583 68.7983 650.65 68.5296 650.65 68.2195L650.962 68.2656H649.087V67.108H652.13V68.0241C652.13 68.6634 651.995 69.2126 651.726 69.6719C651.456 70.1288 651.084 70.4815 650.611 70.7301C650.137 70.9763 649.595 71.0994 648.984 71.0994C648.302 71.0994 647.703 70.9491 647.187 70.6484C646.671 70.3454 646.269 69.9157 645.98 69.3594C645.693 68.8007 645.55 68.1378 645.55 67.3707C645.55 66.7812 645.635 66.2557 645.806 65.794C645.979 65.33 646.22 64.937 646.53 64.6151C646.84 64.2931 647.201 64.0481 647.613 63.88C648.025 63.7119 648.472 63.6278 648.952 63.6278C649.364 63.6278 649.748 63.6882 650.103 63.8089C650.458 63.9273 650.773 64.0954 651.047 64.3132C651.324 64.531 651.55 64.7902 651.726 65.0909C651.901 65.3892 652.013 65.7183 652.063 66.0781H650.5ZM654.77 63.7273V71H653.257V63.7273H654.77ZM658.446 71.1065C657.895 71.1065 657.417 70.9893 657.015 70.755C656.615 70.5182 656.306 70.1892 656.088 69.7678C655.87 69.344 655.761 68.8527 655.761 68.294C655.761 67.7306 655.87 67.2382 656.088 66.8168C656.306 66.393 656.615 66.0639 657.015 65.8295C657.417 65.5928 657.895 65.4744 658.446 65.4744C658.998 65.4744 659.474 65.5928 659.874 65.8295C660.276 66.0639 660.586 66.393 660.804 66.8168C661.022 67.2382 661.131 67.7306 661.131 68.294C661.131 68.8527 661.022 69.344 660.804 69.7678C660.586 70.1892 660.276 70.5182 659.874 70.755C659.474 70.9893 658.998 71.1065 658.446 71.1065ZM658.453 69.9347C658.704 69.9347 658.914 69.8636 659.082 69.7216C659.25 69.5772 659.377 69.3807 659.462 69.1321C659.549 68.8835 659.593 68.6006 659.593 68.2834C659.593 67.9661 659.549 67.6832 659.462 67.4347C659.377 67.1861 659.25 66.9896 659.082 66.8452C658.914 66.7008 658.704 66.6286 658.453 66.6286C658.2 66.6286 657.987 66.7008 657.814 66.8452C657.644 66.9896 657.515 67.1861 657.427 67.4347C657.342 67.6832 657.299 67.9661 657.299 68.2834C657.299 68.6006 657.342 68.8835 657.427 69.1321C657.515 69.3807 657.644 69.5772 657.814 69.7216C657.987 69.8636 658.2 69.9347 658.453 69.9347ZM662.143 71V63.7273H663.656V66.4616H663.702C663.768 66.3149 663.864 66.1657 663.989 66.0142C664.117 65.8603 664.283 65.7325 664.487 65.6307C664.693 65.5265 664.948 65.4744 665.254 65.4744C665.651 65.4744 666.018 65.5786 666.354 65.7869C666.691 65.9929 666.959 66.3042 667.161 66.7209C667.362 67.1352 667.462 67.6548 667.462 68.2798C667.462 68.8883 667.364 69.402 667.168 69.821C666.974 70.2377 666.708 70.5537 666.372 70.7692C666.038 70.9822 665.664 71.0888 665.25 71.0888C664.957 71.0888 664.707 71.0402 664.501 70.9432C664.297 70.8461 664.13 70.7242 664 70.5774C663.87 70.4283 663.77 70.2779 663.702 70.1264H663.634V71H662.143ZM663.624 68.2727C663.624 68.5971 663.669 68.88 663.759 69.1214C663.849 69.3629 663.979 69.5511 664.149 69.6861C664.32 69.8187 664.527 69.8849 664.771 69.8849C665.017 69.8849 665.225 69.8175 665.396 69.6825C665.566 69.5452 665.695 69.3558 665.783 69.1143C665.873 68.8705 665.918 68.59 665.918 68.2727C665.918 67.9579 665.874 67.6809 665.786 67.4418C665.699 67.2027 665.57 67.0156 665.399 66.8807C665.229 66.7457 665.019 66.6783 664.771 66.6783C664.524 66.6783 664.316 66.7434 664.146 66.8736C663.978 67.0038 663.849 67.1884 663.759 67.4276C663.669 67.6667 663.624 67.9484 663.624 68.2727ZM670.027 71.103C669.679 71.103 669.369 71.0426 669.097 70.9219C668.825 70.7988 668.609 70.6177 668.451 70.3786C668.294 70.1371 668.216 69.8364 668.216 69.4766C668.216 69.1735 668.272 68.919 668.383 68.7131C668.494 68.5071 668.646 68.3414 668.838 68.2159C669.029 68.0904 669.247 67.9957 669.491 67.9318C669.737 67.8679 669.995 67.8229 670.265 67.7969C670.582 67.7637 670.838 67.733 671.032 67.7045C671.226 67.6738 671.367 67.6288 671.455 67.5696C671.542 67.5104 671.586 67.4228 671.586 67.3068V67.2855C671.586 67.0606 671.515 66.8866 671.373 66.7635C671.233 66.6404 671.035 66.5788 670.777 66.5788C670.504 66.5788 670.288 66.6392 670.127 66.7599C669.966 66.8783 669.859 67.0275 669.807 67.2074L668.408 67.0938C668.479 66.7623 668.619 66.4759 668.827 66.2344C669.035 65.9905 669.304 65.8035 669.633 65.6733C669.965 65.5407 670.348 65.4744 670.784 65.4744C671.087 65.4744 671.377 65.5099 671.654 65.581C671.933 65.652 672.18 65.7621 672.396 65.9112C672.614 66.0604 672.785 66.2521 672.911 66.4865C673.036 66.7185 673.099 66.9967 673.099 67.321V71H671.664V70.2436H671.622C671.534 70.4141 671.417 70.5644 671.27 70.6946C671.123 70.8224 670.947 70.9231 670.741 70.9964C670.535 71.0675 670.297 71.103 670.027 71.103ZM670.46 70.0589C670.683 70.0589 670.88 70.0152 671.05 69.9276C671.22 69.8376 671.354 69.7169 671.451 69.5653C671.548 69.4138 671.597 69.2422 671.597 69.0504V68.4716C671.55 68.5024 671.484 68.5308 671.402 68.5568C671.321 68.5805 671.23 68.603 671.128 68.6243C671.026 68.6432 670.925 68.661 670.823 68.6776C670.721 68.6918 670.629 68.7048 670.546 68.7166C670.368 68.7427 670.213 68.7841 670.081 68.8409C669.948 68.8977 669.845 68.9747 669.772 69.0717C669.698 69.1664 669.661 69.2848 669.661 69.4268C669.661 69.6328 669.736 69.7902 669.885 69.8991C670.037 70.0057 670.228 70.0589 670.46 70.0589ZM675.785 63.7273V71H674.273V63.7273H675.785ZM678.914 63.7273H680.636L682.295 66.8594H682.366L684.024 63.7273H685.746L683.094 68.429V71H681.567V68.429L678.914 63.7273Z" fill="black"/>
<path d="M297.37 121.062V122.322H288.11V121.062H297.37ZM293.82 119.952V121.492H292.74V119.952H293.82ZM297.23 119.072V120.312H288.53V119.072H297.23ZM295.93 115.952V116.962H295.11C292.82 116.962 290.8 116.462 289.87 114.922L290.89 114.122C291.69 115.512 293.33 115.952 295.11 115.952H295.93ZM295.93 116.222V117.242H295.11C293.48 117.242 291.94 117.712 291.22 119.092L290.21 118.332C291.05 116.772 292.96 116.222 295.11 116.222H295.93ZM296.43 114.422V118.632H295.36V114.422H296.43ZM297.37 129.442V130.762H288.11V129.442H297.37ZM293.76 130.462V132.102H292.65V130.462H293.76ZM296 123.462V128.852H294.94V123.462H296ZM294.42 126.172C294.42 127.522 293.5 128.522 292.21 128.522C290.92 128.522 290 127.522 290 126.172C290 124.822 290.92 123.822 292.21 123.822C293.5 123.822 294.42 124.822 294.42 126.172ZM293.34 126.172C293.34 125.542 292.92 125.092 292.21 125.092C291.5 125.092 291.08 125.542 291.08 126.172C291.08 126.802 291.5 127.252 292.21 127.252C292.92 127.252 293.34 126.802 293.34 126.172ZM297.22 125.502V126.832H295.6V125.502H297.22ZM296.42 134.951V136.051H295.84C294.09 136.051 292.51 135.201 291.94 133.421L292.97 132.741C293.47 134.281 294.68 134.951 295.84 134.951H296.42ZM296.42 135.221V136.311H295.84C294.74 136.311 293.61 136.971 293.13 138.481L292.1 137.801C292.65 136.061 294.17 135.221 295.84 135.221H296.42ZM297.37 139.061V140.401H291.79V139.061H297.37ZM291.38 134.081V140.401H288.11V139.061H290.32V134.081H291.38ZM296.83 133.091V138.131H295.78V133.091H296.83ZM297.37 147.86V149.19H292V147.86H297.37ZM295.22 148.82V150.42H294.12V148.82H295.22ZM296.85 145.2V146.61C294.38 146.61 292.71 145.07 292 142.32L293.02 141.78C293.6 144.06 294.79 145.2 296.19 145.2H296.85ZM296.85 142.24V146H295.8V142.24H296.85ZM291.61 143.01V149.19H288.11V147.86H290.56V143.01H291.61ZM291.71 155.369C291.71 157.289 291.04 158.499 289.91 158.499C288.77 158.499 288.1 157.289 288.1 155.369C288.1 153.439 288.77 152.229 289.91 152.229C291.04 152.229 291.71 153.439 291.71 155.369ZM290.67 155.369C290.67 154.189 290.43 153.549 289.91 153.549C289.38 153.549 289.13 154.189 289.13 155.369C289.13 156.549 289.38 157.179 289.91 157.179C290.43 157.179 290.67 156.549 290.67 155.369ZM297.37 157.059V158.389H291.92V157.059H297.37ZM295.22 158.019V159.619H294.12V158.019H295.22ZM296.78 151.369V152.689H295.64V154.499H296.78V155.819H292.43V151.369H296.78ZM294.61 152.689H293.47V154.499H294.61V152.689ZM296.04 167.178V168.778H294.96V167.178H296.04ZM294.03 167.178V168.778H292.95V167.178H294.03ZM297.37 166.258V167.588H291.5V166.258H297.37ZM291.4 164.578C291.4 166.488 290.79 167.688 289.75 167.688C288.72 167.688 288.11 166.488 288.11 164.578C288.11 162.668 288.72 161.468 289.75 161.468C290.79 161.468 291.4 162.668 291.4 164.578ZM290.4 164.578C290.4 163.408 290.19 162.788 289.75 162.788C289.31 162.788 289.1 163.408 289.1 164.578C289.1 165.748 289.31 166.368 289.75 166.368C290.19 166.368 290.4 165.748 290.4 164.578ZM296.49 160.298V165.748H295.46V160.298H296.49ZM295.15 163.028C295.15 164.368 294.48 165.298 293.49 165.298C292.49 165.298 291.83 164.368 291.83 163.028C291.83 161.678 292.49 160.748 293.49 160.748C294.48 160.748 295.15 161.678 295.15 163.028ZM294.18 163.028C294.18 162.428 293.94 162.028 293.49 162.028C293.04 162.028 292.8 162.428 292.8 163.028C292.8 163.618 293.04 164.028 293.49 164.028C293.94 164.028 294.18 163.618 294.18 163.028ZM297.43 162.358V163.688H295.94V162.358H297.43Z" fill="black"/>
<rect x="46.5" y="46.5" width="788" height="187" stroke="#A7A7A7"/>
</svg>
