<svg width="30" height="30" viewBox="0 0 30 30" fill="none" xmlns="http://www.w3.org/2000/svg">
<rect x="0.5" y="0.5" width="29" height="29" rx="4.5" stroke="black"/>
<path d="M5.49219 20.5H3.77832L7.58691 9.89453H9.44727L13.2705 20.5H11.5566L10.5898 17.7021H6.45898L5.49219 20.5ZM6.92773 16.3545H10.1211L8.55371 11.8281H8.48047L6.92773 16.3545ZM15.5117 20.6025C14.9404 20.6025 14.457 20.1338 14.4717 19.5625C14.457 18.9912 14.9404 18.5225 15.5117 18.5225C16.0684 18.5225 16.5518 18.9912 16.5518 19.5625C16.5518 20.1338 16.0684 20.6025 15.5117 20.6025ZM18.5732 20.5V9.89453H20.1846V19.1084H24.9746V20.5H18.5732Z" fill="black"/>
</svg>
