<svg width="29" height="28" viewBox="0 0 29 28" fill="none" xmlns="http://www.w3.org/2000/svg">
<rect x="1.35547" y="0.5" width="27" height="27" rx="4.5" stroke="black"/>
<path d="M10.2935 4.4815C10.656 4.17079 11.1177 4 11.5951 4H24.5036C24.9678 4 25.1815 4.57753 24.829 4.87963L19.417 9.51851C19.0545 9.82922 18.5928 10 18.1154 10H5.20707C4.74287 10 4.52923 9.42248 4.88167 9.12038L10.2935 4.4815Z" stroke="#434950" stroke-width="1.2" stroke-linecap="round"/>
<path d="M10.2935 18.4815C10.656 18.1708 11.1177 18 11.5951 18H24.5036C24.9678 18 25.1815 18.5775 24.829 18.8796L19.417 23.5185C19.0545 23.8292 18.5928 24 18.1154 24H5.20707C4.74287 24 4.52923 23.4225 4.88167 23.1204L10.2935 18.4815Z" stroke="#5F98ED" stroke-width="1.2" stroke-linecap="round"/>
<path fill-rule="evenodd" clip-rule="evenodd" d="M11.6547 3.39844C10.771 3.39844 10.0547 4.11478 10.0547 4.99844V17.1933C10.4249 16.9901 10.8327 16.8616 11.2547 16.8165V4.99844C11.2547 4.77752 11.4338 4.59844 11.6547 4.59844H24.0053C24.2262 4.59844 24.4053 4.77752 24.4053 4.99844V16.7984H24.5031C24.9452 16.7984 25.3204 16.9525 25.6053 17.1969V4.99844C25.6053 4.11478 24.8889 3.39844 24.0053 3.39844H11.6547Z" fill="#434950"/>
<path fill-rule="evenodd" clip-rule="evenodd" d="M4.65469 9.39844H4.05469V9.99844V22.2479C4.06951 22.2344 4.08466 22.221 4.10012 22.2077L5.25469 21.2181V10.5984H18.4053V22.7439C18.4886 22.7114 18.5665 22.6649 18.6355 22.6058L19.6053 21.7746V9.99844V9.39844H19.0053H4.65469Z" fill="#434950"/>
</svg>
