<svg width="29" height="28" viewBox="0 0 29 28" fill="none" xmlns="http://www.w3.org/2000/svg">
<rect x="0.785156" y="0.5" width="27" height="27" rx="4.5" stroke="black"/>
<mask id="mask0_568_17405" style="mask-type:alpha" maskUnits="userSpaceOnUse" x="0" y="0" width="29" height="28">
<rect x="0.285156" width="28" height="28" rx="4" fill="#33353A"/>
</mask>
<g mask="url(#mask0_568_17405)">
<path d="M4.08594 10.3125C4.08594 9.7325 4.33776 9.18103 4.77609 8.80115L9.25867 4.91633C9.58246 4.63573 10.0861 4.86572 10.0861 5.29418V17.1974C10.0861 17.7708 9.83998 18.3167 9.41018 18.6963L4.91695 22.6652C4.59416 22.9504 4.08594 22.7212 4.08594 22.2905V10.3125Z" stroke="#5F98ED" stroke-width="1.2" stroke-linecap="round"/>
<path fill-rule="evenodd" clip-rule="evenodd" d="M9.94887 3.6316C10.4629 3.74692 10.9189 4.0959 11.1414 4.59844H23.6632L18.4564 9.0614C18.2027 9.27889 17.8795 9.39844 17.5453 9.39844H5.91744L5.56122 9.70715C5.38589 9.8591 5.28516 10.0797 5.28516 10.3117V10.5984H17.5453C18.166 10.5984 18.7661 10.3764 19.2374 9.9725L24.6494 5.33362C25.4248 4.669 24.9548 3.39844 23.9335 3.39844H11.025C10.6509 3.39844 10.2843 3.47909 9.94887 3.6316Z" fill="#434950"/>
<path fill-rule="evenodd" clip-rule="evenodd" d="M3.54297 23.6355C3.61052 24.1434 4.02426 24.5984 4.63542 24.5984H17.5438C18.1644 24.5984 18.7646 24.3764 19.2358 23.9725L24.6479 19.3336C25.4233 18.669 24.9532 17.3984 23.932 17.3984H11.2775C11.2509 17.8192 11.1417 18.227 10.9597 18.5999C10.9809 18.5989 11.0022 18.5984 11.0235 18.5984H23.6617L18.4549 23.0614C18.2011 23.2789 17.878 23.3984 17.5438 23.3984H5.89625L5.70906 23.5638C5.04357 24.1516 4.14626 24.0965 3.54297 23.6355Z" fill="#434950"/>
<path fill-rule="evenodd" clip-rule="evenodd" d="M17.8357 23.3984H5.89814L5.71089 23.5638C5.0839 24.1177 4.25113 24.1008 3.65234 23.7114C3.91452 24.2373 4.45762 24.5984 5.08508 24.5984H18.1857C18.6551 24.5984 19.0357 24.2179 19.0357 23.7484V9.99844V9.39844H18.4357H11.2857V10.5984H17.8357V23.3984Z" fill="#434950"/>
<path fill-rule="evenodd" clip-rule="evenodd" d="M11.1419 4.59844C10.9504 4.16584 10.5858 3.84704 10.1602 3.69312C10.4214 3.50754 10.7408 3.39844 11.0857 3.39844H23.4362C24.3199 3.39844 25.0362 4.11478 25.0362 4.99844V17.9984V18.5984H24.4362H10.9624C11.144 18.2259 11.2529 17.8186 11.2795 17.3984H23.8362V4.99844C23.8362 4.77752 23.6572 4.59844 23.4362 4.59844H11.1419Z" fill="#434950"/>
</g>
</svg>
