<svg width="28" height="28" viewBox="0 0 28 28" fill="none" xmlns="http://www.w3.org/2000/svg">
<rect x="27.5" y="0.5" width="27" height="27" rx="4.5" transform="rotate(90 27.5 0.5)" stroke="black"/>
<rect x="9.5" y="6.5" width="3" height="3" rx="1.5" transform="rotate(90 9.5 6.5)" fill="#5F98ED"/>
<path fill-rule="evenodd" clip-rule="evenodd" d="M25 11.5C25 10.6716 24.3284 10 23.5 10C22.6716 10 22 10.6716 22 11.5C22 12.3284 22.6716 13 23.5 13C24.3284 13 25 12.3284 25 11.5Z" fill="#434950"/>
<rect x="6" y="21" width="3" height="3" rx="1.5" transform="rotate(90 6 21)" fill="#434950"/>
<path fill-rule="evenodd" clip-rule="evenodd" d="M21.5903 13.2963L18.8535 14.8807C18.8022 14.8742 18.7505 14.8681 18.6985 14.8624L18.6985 13.9983C18.6985 13.8658 18.6771 13.7384 18.6374 13.6192L20.989 12.2578C21.0292 12.2345 21.063 12.2066 21.0908 12.1753C21.2035 12.577 21.4142 12.9379 21.6953 13.2304C21.6616 13.2533 21.6266 13.2753 21.5903 13.2963ZM6.29791 20.7632L10.5637 18.2935C10.3102 18.684 10.0923 19.0903 9.90532 19.5034C9.81468 19.7037 9.78357 19.9157 9.80449 20.1196L6.89969 21.8014C6.78521 21.4062 6.57586 21.0514 6.29791 20.7632ZM21.2603 10.3823C21.2215 10.3706 21.1817 10.3601 21.141 10.3509L13.1691 8.55078C13.1262 8.95679 13.0366 9.34887 12.9057 9.72154L20.8767 11.5214C20.9222 11.5317 20.9631 11.5484 20.999 11.5702C20.9984 11.5463 20.998 11.5223 20.998 11.4983C20.998 11.0972 21.0925 10.7182 21.2603 10.3823ZM6.20276 12.8801C6.57366 13.0166 6.9644 13.112 7.36948 13.1608L5.65116 20.2795C5.30616 20.0999 4.91401 19.9983 4.49813 19.9983L4.48456 19.9984L6.20276 12.8801Z" fill="#434950"/>
<circle cx="17.5" cy="20.5" r="2.5" stroke="#434950" stroke-width="1.2" stroke-linecap="round" stroke-linejoin="round"/>
<path d="M24 20C23 17.7909 21.0899 16 17.5 16C13.9101 16 12 17.7909 11 20" stroke="#434950" stroke-width="1.2" stroke-linecap="round" stroke-linejoin="round"/>
<path d="M17.5 16V14" stroke="#434950" stroke-width="1.2" stroke-linecap="round" stroke-linejoin="round"/>
<path d="M14 16.5988L13 15.1328" stroke="#434950" stroke-width="1.2" stroke-linecap="round" stroke-linejoin="round"/>
<path d="M21 16.5988L22 15.1328" stroke="#434950" stroke-width="1.2" stroke-linecap="round" stroke-linejoin="round"/>
<path fill-rule="evenodd" clip-rule="evenodd" d="M8.00156 3.39844C10.5421 3.39844 12.6016 5.45793 12.6016 7.99844C12.6016 10.5389 10.5421 12.5984 8.00156 12.5984C5.46105 12.5984 3.40156 10.5389 3.40156 7.99844C3.40156 5.45793 5.46105 3.39844 8.00156 3.39844ZM11.4016 7.99844C11.4016 6.12067 9.87933 4.59844 8.00156 4.59844C6.12379 4.59844 4.60156 6.12067 4.60156 7.99844C4.60156 9.87621 6.12379 11.3984 8.00156 11.3984C9.87933 11.3984 11.4016 9.87621 11.4016 7.99844Z" fill="#5F98ED"/>
</svg>
