<svg width="30" height="30" viewBox="0 0 30 30" fill="none" xmlns="http://www.w3.org/2000/svg">
<rect x="0.5" y="0.5" width="29" height="29" rx="4.5" stroke="black"/>
<path d="M9.19531 9.89453V20.5H7.58398V9.89453H9.19531ZM12.2422 20.6025C11.6709 20.6025 11.1875 20.1338 11.2021 19.5625C11.1875 18.9912 11.6709 18.5225 12.2422 18.5225C12.7988 18.5225 13.2822 18.9912 13.2822 19.5625C13.2822 20.1338 12.7988 20.6025 12.2422 20.6025ZM21.0752 12.6924C20.9727 11.7109 20.1084 11.1396 18.8926 11.1396C17.5889 11.1396 16.7686 11.7988 16.7686 12.707C16.7686 13.7178 17.8672 14.0986 18.7021 14.3037L19.7275 14.582C21.0898 14.9043 22.7744 15.6514 22.7891 17.5703C22.7744 19.3574 21.3535 20.6758 18.8486 20.6758C16.4756 20.6758 14.9814 19.4893 14.8789 17.5557H16.4902C16.5928 18.7129 17.6035 19.2695 18.8486 19.2695C20.1963 19.2695 21.1777 18.5811 21.1924 17.541C21.1777 16.6182 20.3135 16.2373 19.1855 15.9443L17.9258 15.6074C16.2266 15.1387 15.1572 14.2744 15.1572 12.7949C15.1572 10.9639 16.7979 9.74805 18.9365 9.74805C21.0898 9.74805 22.5986 10.9785 22.6426 12.6924H21.0752Z" fill="black"/>
</svg>
