<svg width="30" height="30" viewBox="0 0 30 30" fill="none" xmlns="http://www.w3.org/2000/svg">
<rect x="0.5" y="0.5" width="29" height="29" rx="4.5" stroke="black"/>
<path d="M8.31641 10.5156H9.60547V16.0938C9.60547 17.875 8.26953 19.1406 6.24219 19.1406C4.19141 19.1406 2.86719 17.875 2.86719 16.0938V10.5156H4.15625V15.9883C4.15625 17.1367 4.95312 17.9688 6.24219 17.9688C7.51953 17.9688 8.31641 17.1367 8.31641 15.9883V10.5156ZM14.8086 14.3711C14.6914 13.8672 14.293 13.5391 13.6016 13.5391C12.8867 13.5391 12.3711 13.9141 12.3828 14.3945C12.3711 14.7695 12.6758 15.0391 13.3789 15.2031L14.3867 15.4375C15.5586 15.6953 16.1211 16.2578 16.1328 17.1602C16.1211 18.3086 15.1602 19.1289 13.5312 19.1289C12.0078 19.1289 11.0938 18.4492 10.9414 17.2656H12.2188C12.3242 17.8398 12.7695 18.1211 13.5195 18.1211C14.3281 18.1211 14.8438 17.793 14.8555 17.2539C14.8438 16.8438 14.5391 16.5742 13.8711 16.4219L12.875 16.2109C11.7266 15.9531 11.1289 15.3438 11.1289 14.4648C11.1289 13.3281 12.1133 12.5547 13.5898 12.5547C15.0078 12.5547 15.8867 13.2812 16.0156 14.3711H14.8086ZM20.0938 19.1289C18.2188 19.1289 17.0703 17.8398 17.0703 15.8594C17.0703 13.9023 18.2422 12.5547 20.0117 12.5547C21.4648 12.5547 22.8359 13.457 22.8359 15.7539V16.1992H18.3125C18.3477 17.4062 19.0566 18.0977 20.1055 18.0977C20.8203 18.0977 21.2773 17.793 21.4883 17.4062H22.7539C22.4727 18.4375 21.4883 19.1289 20.0938 19.1289ZM18.3242 15.2617H21.6055C21.6055 14.2891 20.9844 13.5859 20.0234 13.5859C19.0215 13.5859 18.3711 14.3594 18.3242 15.2617ZM24.0781 19V12.6367H25.2852V13.6445H25.3555C25.5898 12.9648 26.2227 12.543 26.9727 12.543C27.125 12.543 27.3711 12.5547 27.5 12.5664V13.7617C27.3945 13.7383 27.1016 13.6914 26.8438 13.6914C25.9766 13.6914 25.332 14.2891 25.332 15.1211V19H24.0781Z" fill="black"/>
</svg>
