<svg width="225" height="181" viewBox="0 0 225 181" fill="none" xmlns="http://www.w3.org/2000/svg">
<path d="M40 42C40 40.8954 40.8954 40 42 40H183C184.105 40 185 40.8954 185 42V139C185 140.105 184.105 141 183 141H42C40.8954 141 40 140.105 40 139V42Z" fill="white"/>
<path d="M42 41H183V39H42V41ZM184 42V139H186V42H184ZM183 140H42V142H183V140ZM41 139V42H39V139H41ZM42 140C41.4477 140 41 139.552 41 139H39C39 140.657 40.3431 142 42 142V140ZM184 139C184 139.552 183.552 140 183 140V142C184.657 142 186 140.657 186 139H184ZM183 41C183.552 41 184 41.4477 184 42H186C186 40.3431 184.657 39 183 39V41ZM42 39C40.3431 39 39 40.3431 39 42H41C41 41.4477 41.4477 41 42 41V39Z" fill="black" fill-opacity="0.1"/>
<path d="M68.0486 53.304H69.1206V58.856H68.0486V53.304ZM64.1846 59.736H69.3046V60.584H64.1846V59.736ZM64.1846 58.424H65.2486V59.896H64.1846V58.424ZM63.0486 54.096H67.5046V54.928H63.0486V54.096ZM65.2806 55.176C66.3686 55.176 67.1366 55.76 67.1366 56.608C67.1366 57.464 66.3686 58.032 65.2806 58.032C64.2006 58.032 63.4326 57.464 63.4326 56.608C63.4326 55.76 64.2006 55.176 65.2806 55.176ZM65.2806 55.992C64.7846 55.992 64.4406 56.216 64.4406 56.608C64.4406 57.008 64.7846 57.224 65.2806 57.224C65.7846 57.224 66.1206 57.008 66.1206 56.608C66.1206 56.216 65.7846 55.992 65.2806 55.992ZM64.7446 53.296H65.8166V54.576H64.7446V53.296ZM72.104 54.472H72.952V55.304C72.952 57.016 72.256 58.688 70.864 59.32L70.264 58.48C71.504 57.928 72.104 56.56 72.104 55.304V54.472ZM72.344 54.472H73.184V55.304C73.184 56.504 73.776 57.784 75.016 58.296L74.44 59.136C73.032 58.528 72.344 56.952 72.344 55.304V54.472ZM70.56 54.016H74.712V54.888H70.56V54.016ZM75.4 53.304H76.472V60.712H75.4V53.304Z" fill="black"/>
<path d="M129.533 53.728H130.461V54.264C130.461 55.872 129.317 57.296 127.397 57.672L126.941 56.792C128.613 56.504 129.533 55.328 129.533 54.264V53.728ZM129.749 53.728H130.669V54.264C130.669 55.352 131.581 56.504 133.261 56.792L132.805 57.672C130.885 57.296 129.749 55.896 129.749 54.264V53.728ZM126.789 58.944H133.493V59.808H126.789V58.944ZM134.148 58.984H140.852V59.856H134.148V58.984ZM134.66 53.944H140.3V54.792H134.66V53.944ZM134.692 57.008H140.276V57.864H134.692V57.008ZM135.668 54.728H136.732V57.088H135.668V54.728ZM138.236 54.728H139.292V57.088H138.236V54.728ZM146.588 53.312H147.66V57.8H146.588V53.312ZM141.884 56.648H142.532C143.972 56.648 144.908 56.616 145.98 56.44L146.1 57.288C144.996 57.48 144.012 57.504 142.532 57.504H141.884V56.648ZM141.876 53.744H145.284V56H142.932V57.128H141.884V55.208H144.236V54.592H141.876V53.744ZM145.164 57.936C146.732 57.936 147.708 58.44 147.708 59.328C147.708 60.208 146.732 60.72 145.164 60.72C143.596 60.72 142.636 60.208 142.636 59.328C142.636 58.44 143.596 57.936 145.164 57.936ZM145.164 58.76C144.196 58.76 143.692 58.936 143.692 59.328C143.692 59.712 144.196 59.896 145.164 59.896C146.14 59.896 146.644 59.712 146.644 59.328C146.644 58.936 146.14 58.76 145.164 58.76Z" fill="black"/>
<path d="M78.8038 123L84 114L89.1962 123H78.8038Z" fill="white" stroke="#FF0000"/>
<line x1="69.4732" y1="70.8384" x2="83.4732" y2="111.838" stroke="black"/>
<line x1="138.473" y1="68.8384" x2="152.473" y2="109.838" stroke="black"/>
<circle cx="83.5" cy="111.5" r="1.5" fill="black"/>
<circle cx="69.5" cy="70.5" r="1.5" fill="black"/>
<circle cx="83.5" cy="111.5" r="1.5" fill="black"/>
<circle cx="69.5" cy="70.5" r="1.5" fill="black"/>
<circle cx="152.5" cy="109.5" r="1.5" fill="black"/>
<circle cx="138.5" cy="68.5" r="1.5" fill="black"/>
<circle cx="152.5" cy="109.5" r="1.5" fill="black"/>
<circle cx="138.5" cy="68.5" r="1.5" fill="black"/>
<path d="M150.5 110L149 110.5L147 109.5L147 112.5L144 110.5L144.5 114L142 112.5L139.5 114" stroke="#7B7B7B" stroke-width="0.5"/>
<path d="M80.5901 112.772L79.0901 113.272L77.0901 112.272L77.0901 115.272L74.0901 113.272L74.5901 116.772L72.0901 115.272L69.5901 116.772" stroke="#7B7B7B" stroke-width="0.5"/>
<path d="M154.467 111.82L153.5 115.5L157.5 115.5L156 119.5L160 119L158.5 123.5" stroke="#FF0000"/>
</svg>
