<svg xmlns="http://www.w3.org/2000/svg" width="15" height="10" viewBox="-72 -48 144 96"><path fill="#fff" d="M-72-48v96H72v-96z"/><g stroke="#000" stroke-width="4"><path transform="rotate(-56.30993247402)" d="M12-50h-24m24 6h-24m24 6h-24m11 76h-11m24 0H1m-2 6h-11m24 0H1m-2 6h-11m24 0H1"/><path transform="rotate(-123.69006752598)" d="M-12-50h24m-24 6h11m2 0h11m-24 6h24m-24 76h11m2 0h11m-24 6h24m-24 6h11m2 0h11"/></g><g transform="rotate(-56.30993247402)"><path fill="#cd2e3a" d="M0 12a18 18 0 110-36 24 24 0 110 48"/><path fill="#0047a0" d="M0-24a24 24 0 100 48 12 12 0 100-24 12 12 0 110-24"/></g></svg>