<svg width="36" height="25" viewBox="0 0 36 25" fill="none" xmlns="http://www.w3.org/2000/svg">
<rect x="1" y="0.5" width="34" height="24" rx="4.5" stroke="black"/>
<path d="M9.99219 18H8.27832L12.0869 7.39453H13.9473L17.7705 18H16.0566L15.0898 15.2021H10.959L9.99219 18ZM11.4277 13.8545H14.6211L13.0537 9.32812H12.9805L11.4277 13.8545ZM22.7363 18.1465C20.5391 18.1465 18.9717 16.96 18.9131 15.2314H20.5537C20.6123 16.1689 21.5352 16.7549 22.7217 16.7549C23.9961 16.7549 24.9336 16.0518 24.9336 15.0264C24.9336 13.9863 24.0547 13.2246 22.5459 13.2246H21.6377V11.9062H22.5459C23.7471 11.9062 24.5967 11.2324 24.5967 10.2217C24.5967 9.25488 23.8789 8.5957 22.751 8.5957C21.6816 8.5957 20.7441 9.18164 20.7002 10.1484H19.1475C19.1914 8.41992 20.7881 7.24805 22.7656 7.24805C24.8457 7.24805 26.1641 8.56641 26.1494 10.1338C26.1641 11.335 25.417 12.2139 24.2744 12.4922V12.5654C25.7246 12.7705 26.5596 13.7373 26.5596 15.085C26.5596 16.8574 24.9336 18.1465 22.7363 18.1465Z" fill="black"/>
</svg>
