<svg width="30" height="30" viewBox="0 0 30 30" fill="none" xmlns="http://www.w3.org/2000/svg">
<rect x="0.5" y="0.5" width="29" height="29" rx="4.5" stroke="black"/>
<path d="M18.5156 12.4688C18.1641 10.6523 16.6602 9.63672 14.8633 9.63672C12.4219 9.63672 10.6055 11.5117 10.6055 14.9297C10.6055 18.3672 12.4414 20.2227 14.8633 20.2227C16.6406 20.2227 18.1445 19.2266 18.5156 17.4297L20.6836 17.4492C20.2344 20.2422 17.9492 22.1953 14.8438 22.1953C11.1523 22.1953 8.47656 19.4414 8.47656 14.9297C8.47656 10.3984 11.1719 7.66406 14.8438 7.66406C17.832 7.66406 20.1953 9.42188 20.6836 12.4688H18.5156Z" fill="black"/>
</svg>
