<svg width="30" height="30" viewBox="0 0 30 30" fill="none" xmlns="http://www.w3.org/2000/svg">
<rect x="0.5" y="0.5" width="29" height="29" rx="4.5" stroke="black"/>
<path d="M10.7617 13.3516C10.498 11.9893 9.37012 11.2275 8.02246 11.2275C6.19141 11.2275 4.8291 12.6338 4.8291 15.1973C4.8291 17.7754 6.20605 19.167 8.02246 19.167C9.35547 19.167 10.4834 18.4199 10.7617 17.0723L12.3877 17.0869C12.0508 19.1816 10.3369 20.6465 8.00781 20.6465C5.23926 20.6465 3.23242 18.5811 3.23242 15.1973C3.23242 11.7988 5.25391 9.74805 8.00781 9.74805C10.249 9.74805 12.0215 11.0664 12.3877 13.3516H10.7617ZM15.0244 20.6025C14.4531 20.6025 13.9697 20.1338 13.9844 19.5625C13.9697 18.9912 14.4531 18.5225 15.0244 18.5225C15.5811 18.5225 16.0645 18.9912 16.0645 19.5625C16.0645 20.1338 15.5811 20.6025 15.0244 20.6025ZM21.5283 20.5H18.0859V9.89453H21.6309C24.751 9.89453 26.626 11.8867 26.626 15.1826C26.626 18.4932 24.751 20.5 21.5283 20.5ZM19.6973 19.0938H21.4404C23.8428 19.0938 25.0293 17.6875 25.0293 15.1826C25.0293 12.6924 23.8428 11.3008 21.5283 11.3008H19.6973V19.0938Z" fill="black"/>
</svg>
