<svg width="30" height="30" viewBox="0 0 30 30" fill="none" xmlns="http://www.w3.org/2000/svg">
<rect x="0.5" y="0.5" width="29" height="29" rx="4.5" stroke="black"/>
<path d="M11.2617 13.3516C10.998 11.9893 9.87012 11.2275 8.52246 11.2275C6.69141 11.2275 5.3291 12.6338 5.3291 15.1973C5.3291 17.7754 6.70605 19.167 8.52246 19.167C9.85547 19.167 10.9834 18.4199 11.2617 17.0723L12.8877 17.0869C12.5508 19.1816 10.8369 20.6465 8.50781 20.6465C5.73926 20.6465 3.73242 18.5811 3.73242 15.1973C3.73242 11.7988 5.75391 9.74805 8.50781 9.74805C10.749 9.74805 12.5215 11.0664 12.8877 13.3516H11.2617ZM15.5244 20.6025C14.9531 20.6025 14.4697 20.1338 14.4844 19.5625C14.4697 18.9912 14.9531 18.5225 15.5244 18.5225C16.0811 18.5225 16.5645 18.9912 16.5645 19.5625C16.5645 20.1338 16.0811 20.6025 15.5244 20.6025ZM18.5859 20.5V9.89453H22.3652C24.8262 9.89453 26.042 11.374 26.042 13.3369C26.042 15.2852 24.8262 16.7793 22.3652 16.7793H20.1973V20.5H18.5859ZM20.1973 15.4023H22.2041C23.7715 15.4023 24.416 14.5234 24.416 13.3369C24.416 12.1357 23.7715 11.2715 22.2041 11.2715H20.1973V15.4023Z" fill="black"/>
</svg>
