<svg width="30" height="30" viewBox="0 0 30 30" fill="none" xmlns="http://www.w3.org/2000/svg">
<rect x="0.5" y="0.5" width="29" height="29" rx="4.5" stroke="black"/>
<path d="M11.7617 13.3516C11.498 11.9893 10.3701 11.2275 9.02246 11.2275C7.19141 11.2275 5.8291 12.6338 5.8291 15.1973C5.8291 17.7754 7.20605 19.167 9.02246 19.167C10.3555 19.167 11.4834 18.4199 11.7617 17.0723L13.3877 17.0869C13.0508 19.1816 11.3369 20.6465 9.00781 20.6465C6.23926 20.6465 4.23242 18.5811 4.23242 15.1973C4.23242 11.7988 6.25391 9.74805 9.00781 9.74805C11.249 9.74805 13.0215 11.0664 13.3877 13.3516H11.7617ZM16.0244 20.6025C15.4531 20.6025 14.9697 20.1338 14.9844 19.5625C14.9697 18.9912 15.4531 18.5225 16.0244 18.5225C16.5811 18.5225 17.0645 18.9912 17.0645 19.5625C17.0645 20.1338 16.5811 20.6025 16.0244 20.6025ZM19.0859 20.5V9.89453H20.6973V19.1084H25.4873V20.5H19.0859Z" fill="black"/>
</svg>
