<svg width="30" height="30" viewBox="0 0 30 30" fill="none" xmlns="http://www.w3.org/2000/svg">
<rect x="0.5" y="0.5" width="29" height="29" rx="4.5" stroke="black"/>
<path d="M7.02637 20.5H3.58398V9.89453H7.12891C10.249 9.89453 12.124 11.8867 12.124 15.1826C12.124 18.4932 10.249 20.5 7.02637 20.5ZM5.19531 19.0938H6.93848C9.34082 19.0938 10.5273 17.6875 10.5273 15.1826C10.5273 12.6924 9.34082 11.3008 7.02637 11.3008H5.19531V19.0938ZM14.1602 20.6025C13.5889 20.6025 13.1055 20.1338 13.1201 19.5625C13.1055 18.9912 13.5889 18.5225 14.1602 18.5225C14.7168 18.5225 15.2002 18.9912 15.2002 19.5625C15.2002 20.1338 14.7168 20.6025 14.1602 20.6025ZM26.4355 15.1973C26.4355 18.5811 24.3994 20.6465 21.6602 20.6465C18.8916 20.6465 16.8701 18.5811 16.8701 15.1973C16.8701 11.7988 18.8916 9.74805 21.6602 9.74805C24.3994 9.74805 26.4355 11.7988 26.4355 15.1973ZM24.8389 15.1973C24.8389 12.6191 23.4766 11.2275 21.6602 11.2275C19.8291 11.2275 18.4668 12.6191 18.4668 15.1973C18.4668 17.7754 19.8291 19.167 21.6602 19.167C23.4766 19.167 24.8389 17.7754 24.8389 15.1973Z" fill="black"/>
</svg>
