<svg width="36" height="25" viewBox="0 0 36 25" fill="none" xmlns="http://www.w3.org/2000/svg">
<rect x="1" y="0.5" width="34" height="24" rx="4.5" stroke="black"/>
<path d="M4.08398 18V7.39453H10.6611V8.78613H5.69531V11.9941H10.1924V13.3711H5.69531V18H4.08398ZM12.4629 18V7.39453H14.0742V11.9941H19.3477V7.39453H20.959V18H19.3477V13.3711H14.0742V18H12.4629ZM26.5693 18H23.127V7.39453H26.6719C29.792 7.39453 31.667 9.38672 31.667 12.6826C31.667 15.9932 29.792 18 26.5693 18ZM24.7383 16.5938H26.4814C28.8838 16.5938 30.0703 15.1875 30.0703 12.6826C30.0703 10.1924 28.8838 8.80078 26.5693 8.80078H24.7383V16.5938Z" fill="black"/>
</svg>
