<svg width="30" height="30" viewBox="0 0 30 30" fill="none" xmlns="http://www.w3.org/2000/svg">
<rect x="0.5" y="0.5" width="29" height="29" rx="4.5" stroke="black"/>
<path fill-rule="evenodd" clip-rule="evenodd" d="M24.0171 8.92057L23.4 9.32172V17.4578C23.4 17.5932 23.3315 17.7194 23.218 17.7932L15.1999 23.0049V23.5792C15.1999 24.0336 15.0301 24.4271 14.7617 24.721L23.872 18.7993C24.326 18.5042 24.6 17.9994 24.6 17.4578V8.28125C24.471 8.52981 24.2767 8.75187 24.0171 8.92057Z" fill="#434950"/>
<path fill-rule="evenodd" clip-rule="evenodd" d="M11.6937 7.39844C11.3624 7.39844 11.0938 7.66707 11.0938 7.99844V13.2281C11.0938 13.5992 11.2809 13.9453 11.5915 14.1485L17.1728 17.8005C17.4501 17.9819 17.822 17.9042 18.0034 17.627C18.1848 17.3497 18.1071 16.9778 17.8298 16.7964L12.2937 13.174V7.99844C12.2937 7.66707 12.0251 7.39844 11.6937 7.39844Z" fill="#5F98ED"/>
<path fill-rule="evenodd" clip-rule="evenodd" d="M10.4919 8.91406V10.3128L5.13258 13.5226L13.9988 19.2857L16.7206 17.5077L11.3636 14.0039C11.0862 13.8226 11.0085 13.4507 11.1898 13.1734C11.3712 12.8961 11.7431 12.8183 12.0204 12.9997L18.1457 17.0059C18.3152 17.1168 18.4174 17.3057 18.4173 17.5082C18.4172 17.7108 18.315 17.8996 18.1454 18.0104L14.6005 20.326C14.2357 20.5642 13.7647 20.5648 13.3995 20.3273L4.34427 14.4414C3.66222 13.9981 3.68068 12.9934 4.37856 12.5755L10.4919 8.91406Z" fill="#5F98ED"/>
<path fill-rule="evenodd" clip-rule="evenodd" d="M18.4461 17.5V11.5H17.2461V17.5H18.4461Z" fill="#5F98ED"/>
<path d="M16.7562 10.7915L12.3453 7.92441C12.0399 7.72592 12.0424 7.27799 12.35 7.08294L16.9016 4.19652C17.5694 3.77301 18.4241 3.78277 19.0821 4.22142L23.368 7.07869C23.667 7.27798 23.6644 7.71813 23.3632 7.91394L18.9361 10.7915C18.2734 11.2223 17.419 11.2223 16.7562 10.7915Z" stroke="#5F98ED" stroke-width="1.2"/>
<path d="M12.3789 7.07422L11.9224 7.36374C11.7777 7.45545 11.6901 7.61477 11.6901 7.786V8.82139" stroke="#5F98ED" stroke-width="1.2"/>
<path fill-rule="evenodd" clip-rule="evenodd" d="M3.40158 13.9984C3.40158 13.6671 3.67021 13.3984 4.00158 13.3984C4.33295 13.3984 4.60158 13.6671 4.60158 13.9984V16.9131C4.60158 17.3869 4.84129 17.8286 5.2386 18.0869L13.4016 23.3928V19.9984C13.4016 19.6671 13.6702 19.3984 14.0016 19.3984C14.3329 19.3984 14.6016 19.6671 14.6016 19.9984V23.5771C14.6016 24.4499 13.6339 24.975 12.9021 24.4994L4.58461 19.093C3.84675 18.6134 3.40158 17.7931 3.40158 16.9131V13.9984Z" fill="#5F98ED"/>
<path d="M3.99839 14.5005V14.063C3.99839 13.7137 4.18065 13.3897 4.47919 13.2084L5.28516 12.7188" stroke="#5F98ED" stroke-width="1.2" stroke-linecap="round"/>
</svg>
