<svg width="30" height="30" viewBox="0 0 30 30" fill="none" xmlns="http://www.w3.org/2000/svg">
<rect x="0.5" y="0.5" width="29" height="29" rx="4.5" stroke="black"/>
<rect x="4.28516" y="25.4375" width="3.21429" height="21.4286" rx="0.5" transform="rotate(-90 4.28516 25.4375)" stroke="#434950" stroke-width="1.2"/>
<path fill-rule="evenodd" clip-rule="evenodd" d="M16.2521 5.03767C17.5356 5.30639 18.7581 5.63913 19.7743 6.05194C20.5551 6.36916 21.2526 6.7487 21.7638 7.21205C22.281 7.68073 22.6484 8.27576 22.6484 8.99844C22.6484 9.74449 22.2399 10.3248 21.6882 10.7608C21.145 11.1901 20.4075 11.5279 19.5915 11.8108C18.6185 12.1481 17.4616 12.4306 16.2521 12.6907L16.2521 11.4626C17.3379 11.2248 18.3472 10.9721 19.1984 10.677C19.9677 10.4103 20.5569 10.1254 20.9441 9.81935C21.3228 9.52006 21.4484 9.2524 21.4484 8.99844C21.4484 8.72112 21.3159 8.42553 20.958 8.10124C20.5943 7.77162 20.0418 7.45585 19.3226 7.1637C18.4521 6.81004 17.3936 6.51299 16.2521 6.26471L16.2521 5.03767ZM13.8521 5.82515L13.8521 4.61132C11.9279 4.32187 10.0295 4.14547 8.59207 4.04066C7.83665 3.98557 7.20685 3.95014 6.76537 3.92846C6.54459 3.91762 6.37081 3.91021 6.25186 3.9055C6.19238 3.90315 6.1466 3.90147 6.11549 3.90037L6.07996 3.89915L6.07068 3.89885L6.0682 3.89877L6.06751 3.89875C6.06731 3.89874 6.06718 3.89874 6.04844 4.49844L6.02973 5.09815L6.03013 5.09816L6.03202 5.09822L6.0401 5.09849L6.07318 5.09963C6.10262 5.10067 6.14669 5.10228 6.20439 5.10457C6.31981 5.10913 6.48979 5.11638 6.70651 5.12702C7.14002 5.14831 7.76023 5.18319 8.5048 5.23748C9.96939 5.34427 11.9086 5.5257 13.8521 5.82515ZM13.8521 11.9568L13.8521 13.1806L13.7571 13.1996C11.6732 13.6174 9.70074 14.0334 8.31602 14.6023C7.62126 14.8877 7.14137 15.186 6.86793 15.4889C6.62239 15.7609 6.54829 16.024 6.63052 16.3529C6.71749 16.7008 6.9437 17.0412 7.31923 17.3826C7.69559 17.7248 8.19261 18.041 8.76538 18.3425C9.33621 18.6429 9.95744 18.916 10.5747 19.1817L10.7973 19.2773C11.3312 19.5065 11.8606 19.7337 12.3168 19.9618C12.6132 20.11 12.7333 20.4704 12.5851 20.7668C12.5289 20.8791 12.4423 20.9661 12.3403 21.0227H11.7553C11.3385 20.8156 10.8534 20.6074 10.3251 20.3805L10.325 20.3805L10.3249 20.3804L10.1003 20.2839C9.48319 20.0183 8.82316 19.729 8.20649 19.4044C7.59176 19.0809 6.99503 18.7096 6.51202 18.2705C6.02818 17.8307 5.62938 17.2961 5.46635 16.644C5.27573 15.8815 5.49699 15.2167 5.97723 14.6847C6.42958 14.1837 7.10589 13.8021 7.85998 13.4923C9.37294 12.8707 11.4687 12.4345 13.5212 12.023L13.8521 11.9568ZM6.04844 4.49844L6.06718 3.89874C5.73597 3.88839 5.45908 4.14849 5.44873 4.4797C5.43838 4.81091 5.69849 5.0878 6.0297 5.09815L6.04844 4.49844Z" fill="#5F98ED"/>
<path fill-rule="evenodd" clip-rule="evenodd" d="M14.9985 3.6875C14.6671 3.6875 14.3985 3.95613 14.3985 4.2875L14.3984 21.9661C14.3984 22.2974 14.6671 22.5661 14.9984 22.5661C15.3298 22.5661 15.5984 22.2974 15.5984 21.9661L15.5985 4.2875C15.5985 3.95613 15.3298 3.6875 14.9985 3.6875Z" fill="#434950"/>
</svg>
