<svg width="29" height="28" viewBox="0 0 29 28" fill="none" xmlns="http://www.w3.org/2000/svg">
<rect x="0.644531" y="0.5" width="27" height="27" rx="4.5" stroke="black"/>
<path fill-rule="evenodd" clip-rule="evenodd" d="M19.3666 23.7412L24.5088 19.3336C25.2842 18.669 24.8141 17.3984 23.7929 17.3984H19.4951V18.5984H23.5226L19.4951 22.0505V22.9984C19.4951 23.2591 19.4498 23.5092 19.3666 23.7412ZM17.0951 18.5984H10.8844C10.5502 18.5984 10.227 18.718 9.97327 18.9355L5.46663 22.7984H5.14453V21.494L9.19231 18.0244C9.66355 17.6205 10.2637 17.3984 10.8844 17.3984H17.0951V18.5984Z" fill="#434950"/>
<path d="M9.94531 5C9.94531 4.44772 10.393 4 10.9453 4H23.2959C23.8482 4 24.2959 4.44772 24.2959 5V18H9.94531V5Z" stroke="#434950" stroke-width="1.2" stroke-linecap="round"/>
<path d="M3.94531 11C3.94531 10.4477 4.39303 10 4.94531 10H17.2959C17.8482 10 18.2959 10.4477 18.2959 11V23C18.2959 23.5523 17.8482 24 17.2959 24H4.94531C4.39303 24 3.94531 23.5523 3.94531 23V11Z" stroke="#5F98ED" stroke-width="1.2" stroke-linecap="round"/>
<path fill-rule="evenodd" clip-rule="evenodd" d="M10.8836 3.39844C10.2629 3.39844 9.6627 3.62047 9.19147 4.02439L3.7796 8.66326C3.52836 8.87862 3.40787 9.1576 3.39453 9.43635C3.79213 9.04202 4.33946 8.79844 4.94369 8.79844H5.46578L9.97243 4.93549C10.2262 4.71799 10.5493 4.59844 10.8836 4.59844H23.5217L18.3239 9.05374C18.6857 9.24571 18.9876 9.53572 19.1941 9.88835L24.5079 5.33362C25.2833 4.669 24.8133 3.39844 23.7921 3.39844H10.8836Z" fill="#434950"/>
</svg>
