<svg width="28" height="28" viewBox="0 0 28 28" fill="none" xmlns="http://www.w3.org/2000/svg">
<rect x="0.5" y="0.5" width="27" height="27" rx="4.5" stroke="black"/>
<path d="M16.1016 6.10156L13.9802 3.98024L11.8589 6.10156" stroke="#434950" stroke-width="1.2" stroke-linecap="round" stroke-linejoin="round"/>
<path d="M18.4766 12.6016L21.4766 12.6016L21.4766 9.60156" stroke="#5F98ED" stroke-width="1.2" stroke-linecap="round" stroke-linejoin="round"/>
<path d="M3.47656 20.6016L3.47656 23.6016H6.47656" stroke="#434950" stroke-width="1.2" stroke-linecap="round" stroke-linejoin="round"/>
<path d="M21.4766 23.6016L24.4766 23.6016L24.4766 20.6016" stroke="#434950" stroke-width="1.2" stroke-linecap="round" stroke-linejoin="round"/>
<path d="M22.6 16C22.6 15.6686 22.3314 15.4 22 15.4C21.6686 15.4 21.4 15.6686 21.4 16H22.6ZM21.4 16C21.4 20.0869 18.0869 23.4 14 23.4V24.6C18.7496 24.6 22.6 20.7496 22.6 16H21.4ZM14 23.4C9.91309 23.4 6.6 20.0869 6.6 16H5.4C5.4 20.7496 9.25035 24.6 14 24.6V23.4ZM6.6 16C6.6 11.9131 9.91309 8.6 14 8.6V7.4C9.25035 7.4 5.4 11.2504 5.4 16H6.6ZM14 8.6C16.7383 8.6 19.13 10.087 20.4104 12.3004L21.4491 11.6996C19.963 9.13058 17.184 7.4 14 7.4V8.6Z" fill="#5F98ED"/>
<path fill-rule="evenodd" clip-rule="evenodd" d="M14.5985 3.99844C14.5985 3.66707 14.3299 3.39844 13.9985 3.39844C13.6671 3.39844 13.3985 3.66707 13.3985 3.99844V6.81769C13.5968 6.80492 13.7969 6.79844 13.9985 6.79844C14.2001 6.79844 14.4001 6.80492 14.5985 6.8177V3.99844ZM14.5985 9.22453C14.4008 9.20726 14.2007 9.19844 13.9985 9.19844C13.7963 9.19844 13.5962 9.20726 13.3985 9.22455V15.6897L8.13705 19.4478C8.3412 19.794 8.57513 20.1205 8.83532 20.4238L13.9898 16.742L19.0573 20.5426C19.3246 20.2452 19.566 19.9242 19.778 19.5831L14.5985 15.6984V9.22453ZM21.7037 21.0273C21.4841 21.363 21.2432 21.6835 20.9829 21.9868L23.6385 23.9784C23.9036 24.1773 24.2797 24.1235 24.4785 23.8584C24.6773 23.5933 24.6236 23.2173 24.3585 23.0184L21.7037 21.0273ZM6.87659 21.8228C6.62345 21.5137 6.39005 21.1877 6.1783 20.8469L3.14974 23.0102C2.88009 23.2028 2.81764 23.5775 3.01024 23.8472C3.20285 24.1168 3.57758 24.1793 3.84723 23.9867L6.87659 21.8228Z" fill="#434950"/>
</svg>
