<svg width="30" height="30" viewBox="0 0 30 30" fill="none" xmlns="http://www.w3.org/2000/svg">
<rect x="0.5" y="0.5" width="29" height="29" rx="4.5" stroke="black"/>
<path d="M19.2852 19.2852H25.7137" stroke="#434950" stroke-width="1.2" stroke-linecap="round"/>
<path d="M19.2852 25.7148H25.7137" stroke="#434950" stroke-width="1.2" stroke-linecap="round"/>
<path d="M22.5 19.2852L22.5 25.7137" stroke="#434950" stroke-width="1.2" stroke-linecap="round"/>
<path fill-rule="evenodd" clip-rule="evenodd" d="M4.82031 24.961V14.5923C4.82031 14.1899 5.06144 13.8268 5.43226 13.6706L24.4834 5.64908C24.813 5.51032 25.1775 5.75231 25.1775 6.1099V16.4786C25.1775 16.8809 24.9363 17.2441 24.5655 17.4002L22.9382 18.0854H19.2846C18.6219 18.0854 18.0846 18.6227 18.0846 19.2854C18.0846 19.5633 18.179 19.8191 18.3376 20.0225L5.51434 25.4218C5.18477 25.5605 4.82031 25.3186 4.82031 24.961Z" fill="url(#paint0_linear_568_17800)"/>
<path d="M3.63672 10.65C3.63672 11.0143 3.926 11.3036 4.301 11.3036C4.66529 11.3036 4.95458 11.0143 4.95458 10.65V8.19643H8.19029C8.52243 8.19643 8.79029 7.92857 8.79029 7.59643C8.79029 7.26429 8.52243 6.99643 8.19029 6.99643H4.95458V4.95H8.67243C9.00458 4.95 9.27243 4.68214 9.27243 4.35C9.27243 4.01786 9.00458 3.75 8.67243 3.75H4.301C3.926 3.75 3.63672 4.03929 3.63672 4.41429V10.65Z" fill="#5F98ED"/>
<defs>
<linearGradient id="paint0_linear_568_17800" x1="4.82031" y1="16.6383" x2="25.1775" y2="16.6383" gradientUnits="userSpaceOnUse">
<stop stop-color="#F2786D"/>
<stop offset="0.203125" stop-color="#F2786D"/>
<stop offset="0.203225" stop-color="#F2AA61"/>
<stop offset="0.401557" stop-color="#F2AA61"/>
<stop offset="0.401657" stop-color="#F2E555"/>
<stop offset="0.597617" stop-color="#F2E555"/>
<stop offset="0.597717" stop-color="#6CD96C"/>
<stop offset="0.800108" stop-color="#6CD96C"/>
<stop offset="0.800208" stop-color="#619DF2"/>
<stop offset="1" stop-color="#619DF2"/>
</linearGradient>
</defs>
</svg>
