<svg width="21" height="20" viewBox="0 0 21 20" fill="none" xmlns="http://www.w3.org/2000/svg">
<path d="M5.67969 10.4994C5.67969 10.6994 5.83397 10.8537 6.03397 10.8537H8.19397C8.37112 10.8537 8.51397 10.7109 8.51397 10.5337C8.51397 10.3566 8.37112 10.2137 8.19397 10.2137H6.38254V7.17373C6.38254 6.97944 6.22826 6.82516 6.03397 6.82516C5.83397 6.82516 5.67969 6.97944 5.67969 7.17373V10.4994Z" fill="white"/>
<path d="M10.6174 10.9223C11.2631 10.9223 11.6917 10.7166 12.0688 10.3852C12.1317 10.328 12.1831 10.2423 12.1831 10.1337C12.1831 9.95658 12.0288 9.80801 11.8517 9.80801C11.766 9.80801 11.6917 9.8423 11.6403 9.88801C11.3488 10.1337 11.0631 10.2709 10.6403 10.2709C9.87455 10.2709 9.32027 9.63658 9.32027 8.85373V8.8423C9.32027 8.05944 9.88027 7.43087 10.6403 7.43087C11.0231 7.43087 11.3203 7.56801 11.5946 7.79087C11.6403 7.82516 11.7088 7.85944 11.806 7.85944C12.0003 7.85944 12.1546 7.71087 12.1546 7.51658C12.1546 7.39087 12.0917 7.29373 12.0174 7.23658C11.6688 6.96801 11.2631 6.78516 10.646 6.78516C9.43455 6.78516 8.58313 7.71658 8.58313 8.85373V8.86516C8.58313 10.0137 9.4517 10.9223 10.6174 10.9223Z" fill="white"/>
<path fill-rule="evenodd" clip-rule="evenodd" d="M6.32812 14.2358V14.5358C6.32812 15.4195 7.04447 16.1358 7.92812 16.1358H16.6424C17.5261 16.1358 18.2424 15.4195 18.2424 14.5358V8.14297C18.2424 7.25931 17.5261 6.54297 16.6424 6.54297H15.6281V7.74297H16.6424C16.8633 7.74297 17.0424 7.92205 17.0424 8.14297V14.5358C17.0424 14.7567 16.8633 14.9358 16.6424 14.9358H7.92812C7.70721 14.9358 7.52813 14.7567 7.52813 14.5358V14.2358H6.32812Z" fill="white"/>
<path d="M14.7852 4.28516H17.6423" stroke="#5F98ED" stroke-width="1.2" stroke-linecap="round"/>
<path d="M16.2148 2.85547L16.2148 5.71261" stroke="#5F98ED" stroke-width="1.2" stroke-linecap="round"/>
<path fill-rule="evenodd" clip-rule="evenodd" d="M13.609 4.05295C13.5942 4.12828 13.5864 4.20615 13.5864 4.28583C13.5864 4.94857 14.1236 5.48583 14.7864 5.48583H15.0216C15.0267 5.53753 15.0292 5.58995 15.0292 5.64297V12.0358C15.0292 12.9195 14.3129 13.6358 13.4292 13.6358H4.35781C3.47416 13.6358 2.75781 12.9195 2.75781 12.0358V5.64297C2.75781 4.75931 3.47416 4.04297 4.35781 4.04297H13.4292C13.49 4.04297 13.55 4.04636 13.609 4.05295ZM3.95781 5.64297C3.95781 5.42206 4.1369 5.24297 4.35781 5.24297H13.4292C13.6502 5.24297 13.8292 5.42205 13.8292 5.64297V12.0358C13.8292 12.2567 13.6502 12.4358 13.4292 12.4358H4.35781C4.1369 12.4358 3.95781 12.2567 3.95781 12.0358V5.64297Z" fill="white"/>
</svg>
