<svg width="30" height="30" viewBox="0 0 30 30" fill="none" xmlns="http://www.w3.org/2000/svg">
<rect x="0.5" y="0.5" width="29" height="29" rx="4.5" stroke="black"/>
<path d="M19.2852 19.2852H25.7137" stroke="#434950" stroke-width="1.2" stroke-linecap="round"/>
<path d="M19.2852 25.7148H25.7137" stroke="#434950" stroke-width="1.2" stroke-linecap="round"/>
<path d="M22.5 19.2852L22.5 25.7137" stroke="#434950" stroke-width="1.2" stroke-linecap="round"/>
<path fill-rule="evenodd" clip-rule="evenodd" d="M4.82031 24.961V14.5923C4.82031 14.1899 5.06144 13.8268 5.43226 13.6706L24.4834 5.64908C24.813 5.51032 25.1775 5.75231 25.1775 6.1099V16.4786C25.1775 16.8809 24.9363 17.2441 24.5655 17.4002L22.9382 18.0854H19.2846C18.6219 18.0854 18.0846 18.6227 18.0846 19.2854C18.0846 19.5633 18.179 19.8191 18.3376 20.0225L5.51434 25.4218C5.18477 25.5605 4.82031 25.3186 4.82031 24.961Z" fill="url(#paint0_linear_568_17804)"/>
<path fill-rule="evenodd" clip-rule="evenodd" d="M6.54765 3.5C6.44555 3.6765 6.38711 3.88143 6.38711 4.1C6.38711 4.31857 6.44555 4.5235 6.54765 4.7H6.4249C5.51618 4.7 4.7 5.51248 4.7 6.61678C4.7 7.74634 5.39803 8.53356 6.4249 8.53356C6.9479 8.53356 7.3098 8.34338 7.56026 8.07209C7.82195 7.78862 7.98952 7.38419 8.03891 6.93667C8.08836 6.48853 8.01387 6.04236 7.84451 5.70002C7.76278 5.53482 7.66361 5.40115 7.55014 5.29944C7.56242 5.29981 7.57475 5.3 7.58711 5.3H8.98137C9.21716 5.84282 9.29775 6.46947 9.23167 7.06829C9.16009 7.71694 8.91098 8.37805 8.44197 8.88608C7.96173 9.40628 7.27891 9.73356 6.4249 9.73356C4.60178 9.73356 3.5 8.26718 3.5 6.61678C3.5 4.94112 4.76561 3.5 6.4249 3.5H6.54765Z" fill="#5F98ED"/>
<path d="M6.42578 4.10156H9.52565" stroke="#5F98ED" stroke-width="1.2" stroke-linecap="round"/>
<defs>
<linearGradient id="paint0_linear_568_17804" x1="4.82031" y1="16.6383" x2="25.1775" y2="16.6383" gradientUnits="userSpaceOnUse">
<stop stop-color="#F2786D"/>
<stop offset="0.203125" stop-color="#F2786D"/>
<stop offset="0.203225" stop-color="#F2AA61"/>
<stop offset="0.401557" stop-color="#F2AA61"/>
<stop offset="0.401657" stop-color="#F2E555"/>
<stop offset="0.597617" stop-color="#F2E555"/>
<stop offset="0.597717" stop-color="#6CD96C"/>
<stop offset="0.800108" stop-color="#6CD96C"/>
<stop offset="0.800208" stop-color="#619DF2"/>
<stop offset="1" stop-color="#619DF2"/>
</linearGradient>
</defs>
</svg>
