<svg width="29" height="28" viewBox="0 0 29 28" fill="none" xmlns="http://www.w3.org/2000/svg">
<rect x="1.21484" y="0.5" width="27" height="27" rx="4.5" stroke="black"/>
<path d="M18.9141 10.8125C18.9141 10.2325 19.1659 9.68103 19.6042 9.30115L24.0868 5.41633C24.4106 5.13573 24.9143 5.36572 24.9143 5.79418V17.6974C24.9143 18.2708 24.6681 18.8167 24.2383 19.1963L19.7451 23.1652C19.4223 23.4504 18.9141 23.2212 18.9141 22.7905V10.8125Z" stroke="#5F98ED" stroke-width="1.2" stroke-linecap="round"/>
<path fill-rule="evenodd" clip-rule="evenodd" d="M11.4551 18.5984H17.7156V17.3984H11.4551C10.8345 17.3984 10.2343 17.6205 9.76303 18.0244L4.35116 22.6633C3.57579 23.3279 4.0458 24.5984 5.06705 24.5984H17.9754C18.3035 24.5984 18.6259 24.5364 18.9265 24.4182C18.4364 24.2691 18.0148 23.9047 17.8242 23.3984H5.33737L10.544 18.9355C10.7977 18.718 11.1209 18.5984 11.4551 18.5984Z" fill="#434950"/>
<path fill-rule="evenodd" clip-rule="evenodd" d="M18.0434 9.39844H4.51406H3.91406V9.99844V22.9984C3.91406 23.8821 4.63041 24.5984 5.51406 24.5984H18.6146C18.7875 24.5984 18.9484 24.5468 19.0826 24.4582C18.5268 24.3444 18.0338 23.9581 17.823 23.3984H5.51406C5.29315 23.3984 5.11406 23.2194 5.11406 22.9984V10.5984H17.7216C17.7496 10.1779 17.8603 9.77061 18.0434 9.39844Z" fill="#434950"/>
<path fill-rule="evenodd" clip-rule="evenodd" d="M9.91406 4.99844C9.91406 4.11478 10.6304 3.39844 11.5141 3.39844H23.8646C24.5222 3.39844 25.0872 3.79515 25.3332 4.36229C24.7399 3.98476 23.9231 3.96981 23.3013 4.50867L23.1977 4.59844H11.5141C11.2931 4.59844 11.1141 4.77752 11.1141 4.99844V17.3984H17.7145V18.5984H10.5141H9.91406V17.9984V4.99844Z" fill="#434950"/>
<path fill-rule="evenodd" clip-rule="evenodd" d="M11.4551 3.39844C10.8345 3.39844 10.2343 3.62047 9.76303 4.02439L4.35116 8.66326C3.57579 9.32789 4.0458 10.5984 5.06705 10.5984H17.7227C17.7509 10.1772 17.8618 9.76933 18.0455 9.39668C18.0222 9.39785 17.9988 9.39844 17.9754 9.39844H5.33737L10.544 4.93549C10.7977 4.71799 11.1209 4.59844 11.4551 4.59844H23.1989L23.3025 4.50867C23.9711 3.92921 24.8653 3.99015 25.4645 4.45372C25.4377 3.91 25.0116 3.39844 24.3636 3.39844H11.4551Z" fill="#434950"/>
</svg>
