<svg width="29" height="28" viewBox="0 0 29 28" fill="none" xmlns="http://www.w3.org/2000/svg">
<rect x="1.07031" y="0.5" width="27" height="27" rx="4.5" stroke="black"/>
<path d="M10.3711 5C10.3711 4.44772 10.8188 4 11.3711 4H23.7217C24.274 4 24.7217 4.44772 24.7217 5V17C24.7217 17.5523 24.274 18 23.7217 18H11.3711C10.8188 18 10.3711 17.5523 10.3711 17V5Z" stroke="#5F98ED" stroke-width="1.2" stroke-linecap="round"/>
<path d="M10.3711 5C10.3711 4.44772 10.8188 4 11.3711 4H23.7217C24.274 4 24.7217 4.44772 24.7217 5V17C24.7217 17.5523 24.274 18 23.7217 18H11.3711C10.8188 18 10.3711 17.5523 10.3711 17V5Z" stroke="#5F98ED" stroke-width="1.2" stroke-linecap="round"/>
<path fill-rule="evenodd" clip-rule="evenodd" d="M9.27874 4.31641C9.20863 4.53136 9.17072 4.76086 9.17072 4.99922V5.98951L5.19284 9.39922H9.17072V10.5992H4.92251C3.90127 10.5992 3.43126 9.32867 4.20663 8.66405L9.27874 4.31641ZM23.5213 6.54611V5.19922H23.2488L18.742 9.06218C18.4882 9.27967 18.1651 9.39922 17.8309 9.39922H11.5707V10.5992H17.8309C18.4515 10.5992 19.0517 10.3772 19.5229 9.97329L23.5213 6.54611Z" fill="#434950"/>
<path fill-rule="evenodd" clip-rule="evenodd" d="M9.48762 18.1367L4.20663 22.6634C3.43126 23.328 3.90127 24.5986 4.92251 24.5986H17.8309C18.4515 24.5986 19.0517 24.3766 19.5229 23.9726L24.935 19.3338C25.2019 19.105 25.3212 18.8044 25.3213 18.5086C24.9202 18.9334 24.3517 19.1986 23.7213 19.1986H23.2488L18.742 23.0615C18.4882 23.279 18.1651 23.3986 17.8309 23.3986H5.19284L10.3719 18.9593C10.0061 18.7726 9.6995 18.4865 9.48762 18.1367Z" fill="#434950"/>
<path d="M4.37109 10H18.7217V23.75C18.7217 23.8881 18.6098 24 18.4717 24H5.37109C4.81881 24 4.37109 23.5523 4.37109 23V10Z" stroke="#434950" stroke-width="1.2" stroke-linecap="round"/>
</svg>
