<svg width="30" height="30" viewBox="0 0 30 30" fill="none" xmlns="http://www.w3.org/2000/svg">
<rect x="0.5" y="0.5" width="29" height="29" rx="4.5" stroke="black"/>
<circle cx="1.60714" cy="1.60714" r="1.60714" transform="matrix(-1 0 0 1 21.9648 22.6094)" fill="#5F98ED"/>
<path fill-rule="evenodd" clip-rule="evenodd" d="M20.9279 13.032C21.0538 13.032 21.1724 13.0913 21.2479 13.192L23.7622 16.5444C23.9439 16.7867 24.0422 17.0815 24.0422 17.3844V22.1463C24.0422 22.3672 23.8631 22.5463 23.6422 22.5463H22.4496C22.7227 22.8879 22.914 23.2978 22.9936 23.7463H23.6422C24.5258 23.7463 25.2422 23.03 25.2422 22.1463V17.3844C25.2422 16.8218 25.0597 16.2745 24.7222 15.8244L22.2079 12.472C21.9057 12.0691 21.4315 11.832 20.9279 11.832H17.1065C16.499 11.832 16.0065 12.3245 16.0065 12.932V17.1892H6.35647C5.47282 17.1892 4.75648 17.9055 4.75648 18.7892V22.1463C4.75648 23.03 5.47282 23.7463 6.35647 23.7463H7.005C7.08463 23.2978 7.27587 22.8879 7.54899 22.5463H6.35647C6.13556 22.5463 5.95648 22.3672 5.95648 22.1463V18.7892C5.95648 18.5683 6.13556 18.3892 6.35647 18.3892H16.1065C16.714 18.3892 17.2065 17.8967 17.2065 17.2892V13.032H20.9279ZM11.7354 22.5463H18.2631C17.99 22.8879 17.7988 23.2978 17.7191 23.7463H12.2794C12.1998 23.2978 12.0086 22.8879 11.7354 22.5463Z" fill="#5F98ED"/>
<ellipse cx="1.60714" cy="1.60714" rx="1.60714" ry="1.60714" transform="matrix(-1 0 0 1 11.25 22.6094)" fill="#5F98ED"/>
<path d="M16.6083 22.6083L16.6083 13.4297C16.6083 12.8774 17.056 12.4297 17.6083 12.4297L17.6797 12.4297" stroke="#5F98ED" stroke-width="1.2" stroke-linecap="round"/>
<path d="M22.5 18.8594L24.6429 18.8594" stroke="#5F98ED" stroke-width="1.2" stroke-linecap="round"/>
<path d="M18.4999 11.6016L18.5 14.5015C18.5 14.7777 18.7239 15.0015 19 15.0015H22.5" stroke="#5F98ED" stroke-width="1.2" stroke-linecap="round"/>
<path fill-rule="evenodd" clip-rule="evenodd" d="M15.8311 3.39844C15.8234 3.39844 15.8157 3.3986 15.808 3.3989C15.693 3.40278 15.5862 3.43904 15.4964 3.49886L3.70433 10.1336C3.41553 10.2961 3.31314 10.6619 3.47563 10.9507C3.63812 11.2395 4.00396 11.3419 4.29276 11.1794L4.89854 10.8386L4.89854 13.3985H3.99854C3.66717 13.3985 3.39854 13.6672 3.39854 13.9985C3.39854 14.3299 3.66717 14.5985 3.99854 14.5985H5.49854H9.16529H12.4983H15.4057V12.9271C15.4057 12.2288 15.8266 11.6289 16.4286 11.3673L16.4286 5.01243L18.5621 6.18803L18.5621 11.2271H19.7621L19.7621 6.84925L21.8951 8.02458V11.4515C22.2031 11.6024 22.4757 11.8253 22.6871 12.1071L23.0951 12.6511V8.68581L23.709 9.02405C23.9992 9.18397 24.3641 9.07834 24.524 8.78811C24.684 8.49789 24.5783 8.13297 24.2881 7.97305L16.1305 3.47803C16.1127 3.46784 16.0944 3.45858 16.0757 3.45029C15.9967 3.41504 15.9134 3.39827 15.8311 3.39844ZM24.5985 13.9985C24.5985 14.1639 24.5316 14.3137 24.4234 14.4222L23.6557 13.3985H23.9985C24.3299 13.3985 24.5985 13.6672 24.5985 13.9985ZM13.0983 6.22503L15.2286 5.02641L15.2286 13.3985H13.0983L13.0983 6.22503ZM9.76529 8.10033L11.8983 6.9002V13.3985H9.76529V8.10033ZM6.09854 10.1634L8.56529 8.7755V13.3985H6.09854L6.09854 10.1634Z" fill="#434950"/>
</svg>
