<svg width="29" height="28" viewBox="0 0 29 28" fill="none" xmlns="http://www.w3.org/2000/svg">
<rect x="0.929688" y="0.5" width="27" height="27" rx="4.5" stroke="black"/>
<path d="M9.86775 18.4815C10.2302 18.1708 10.6919 18 11.1694 18H24.0779C24.5421 18 24.7557 18.5775 24.4033 18.8796L18.9912 23.5185C18.6287 23.8292 18.1671 24 17.6896 24H4.78129C4.31709 24 4.10344 23.4225 4.45589 23.1204L9.86775 18.4815Z" stroke="#434950" stroke-width="1.2" stroke-linecap="round"/>
<path d="M9.86775 4.4815C10.2302 4.17079 10.6919 4 11.1694 4H24.0779C24.5421 4 24.7557 4.57753 24.4033 4.87963L18.9912 9.51851C18.6287 9.82922 18.1671 10 17.6896 10H4.78129C4.31709 10 4.10344 9.42248 4.45589 9.12038L9.86775 4.4815Z" stroke="#5F98ED" stroke-width="1.2" stroke-linecap="round"/>
<path fill-rule="evenodd" clip-rule="evenodd" d="M9.62891 17.9987V11.1987H10.8289V17.3987H23.9795V6.82154L25.1795 5.79297V17.9987V18.5987H24.5795H10.2289H9.62891V17.9987Z" fill="#434950"/>
<path fill-rule="evenodd" clip-rule="evenodd" d="M3.62891 10.7578V23.0006C3.62891 23.8843 4.34525 24.6006 5.22891 24.6006H18.3295C18.7989 24.6006 19.1795 24.22 19.1795 23.7506V10.8323C18.808 11.0279 18.4003 11.1491 17.9795 11.1874V23.4006H5.22891C5.00799 23.4006 4.82891 23.2215 4.82891 23.0006V11.2006H4.7807C4.31244 11.2006 3.91917 11.0278 3.62891 10.7578Z" fill="#434950"/>
</svg>
