<svg width="28" height="28" viewBox="0 0 28 28" fill="none" xmlns="http://www.w3.org/2000/svg">
<rect x="0.5" y="0.5" width="27" height="27" rx="4.5" stroke="black"/>
<path d="M9.43807 4.4815C9.80055 4.17079 10.2622 4 10.7397 4H23.6482C24.1124 4 24.326 4.57753 23.9736 4.87963L18.5615 9.51851C18.1991 9.82922 17.7374 10 17.26 10H4.3516C3.8874 10 3.67376 9.42248 4.0262 9.12038L9.43807 4.4815Z" stroke="#434950" stroke-width="1.2" stroke-linecap="round"/>
<path d="M9.43807 18.4815C9.80055 18.1708 10.2622 18 10.7397 18H23.6482C24.1124 18 24.326 18.5775 23.9736 18.8796L18.5615 23.5185C18.1991 23.8292 17.7374 24 17.26 24H4.3516C3.8874 24 3.67376 23.4225 4.0262 23.1204L9.43807 18.4815Z" stroke="#434950" stroke-width="1.2" stroke-linecap="round"/>
<path d="M3.80078 10H18.1514V23.75C18.1514 23.8881 18.0394 24 17.9014 24H4.80078C4.2485 24 3.80078 23.5523 3.80078 23V10Z" stroke="#434950" stroke-width="1.2" stroke-linecap="round"/>
<path d="M9.80078 5C9.80078 4.44772 10.2485 4 10.8008 4H23.1514C23.7037 4 24.1514 4.44772 24.1514 5V18H9.80078V5Z" stroke="#434950" stroke-width="1.2" stroke-linecap="round"/>
</svg>
