<svg width="30" height="30" viewBox="0 0 30 30" fill="none" xmlns="http://www.w3.org/2000/svg">
<rect x="0.5" y="0.5" width="29" height="29" rx="4.5" stroke="black"/>
<path d="M4.08398 20.5V9.89453H7.86328C10.3242 9.89453 11.54 11.374 11.54 13.3369C11.54 15.2852 10.3242 16.7793 7.86328 16.7793H5.69531V20.5H4.08398ZM5.69531 15.4023H7.70215C9.26953 15.4023 9.91406 14.5234 9.91406 13.3369C9.91406 12.1357 9.26953 11.2715 7.70215 11.2715H5.69531V15.4023ZM13.6348 20.6025C13.0635 20.6025 12.5801 20.1338 12.5947 19.5625C12.5801 18.9912 13.0635 18.5225 13.6348 18.5225C14.1914 18.5225 14.6748 18.9912 14.6748 19.5625C14.6748 20.1338 14.1914 20.6025 13.6348 20.6025ZM23.874 13.3516C23.6104 11.9893 22.4824 11.2275 21.1348 11.2275C19.3037 11.2275 17.9414 12.6338 17.9414 15.1973C17.9414 17.7754 19.3184 19.167 21.1348 19.167C22.4678 19.167 23.5957 18.4199 23.874 17.0723L25.5 17.0869C25.1631 19.1816 23.4492 20.6465 21.1201 20.6465C18.3516 20.6465 16.3447 18.5811 16.3447 15.1973C16.3447 11.7988 18.3662 9.74805 21.1201 9.74805C23.3613 9.74805 25.1338 11.0664 25.5 13.3516H23.874Z" fill="black"/>
</svg>
