<svg width="35" height="25" viewBox="0 0 35 25" fill="none" xmlns="http://www.w3.org/2000/svg">
<g clip-path="url(#clip0_137_527)">
<path d="M29.2241 0.5H5.77586C2.86208 0.5 0.5 2.16735 0.5 4.22414V20.7759C0.5 22.8326 2.86208 24.5 5.77586 24.5H29.2241C32.1379 24.5 34.5 22.8326 34.5 20.7759V4.22414C34.5 2.16735 32.1379 0.5 29.2241 0.5Z" stroke="black"/>
<path d="M10.6328 8.1875H11.9219V13.7657C11.9219 15.5469 10.5859 16.8125 8.55859 16.8125C6.50781 16.8125 5.18359 15.5469 5.18359 13.7657V8.1875H6.47265V13.6602C6.47265 14.8086 7.26952 15.6407 8.55859 15.6407C9.83593 15.6407 10.6328 14.8086 10.6328 13.6602V8.1875ZM17.125 12.043C17.0078 11.5391 16.6094 11.211 15.918 11.211C15.2031 11.211 14.6875 11.586 14.6992 12.0664C14.6875 12.4414 14.9922 12.711 15.6953 12.875L16.7031 13.1094C17.875 13.3672 18.4375 13.9297 18.4492 14.8321C18.4375 15.9805 17.4766 16.8008 15.8476 16.8008C14.3242 16.8008 13.4102 16.1211 13.2578 14.9375H14.5352C14.6406 15.5117 15.0859 15.793 15.8359 15.793C16.6445 15.793 17.1602 15.4649 17.1719 14.9258C17.1602 14.5157 16.8555 14.2461 16.1875 14.0938L15.1914 13.8828C14.043 13.625 13.4453 13.0157 13.4453 12.1367C13.4453 11 14.4297 10.2266 15.9062 10.2266C17.3242 10.2266 18.2031 10.9531 18.332 12.043H17.125ZM22.4102 16.8008C20.5352 16.8008 19.3867 15.5117 19.3867 13.5313C19.3867 11.5742 20.5586 10.2266 22.3281 10.2266C23.7812 10.2266 25.1523 11.1289 25.1523 13.4258V13.8711H20.6289C20.6641 15.0781 21.373 15.7696 22.4219 15.7696C23.1367 15.7696 23.5937 15.4649 23.8047 15.0781H25.0703C24.7891 16.1094 23.8047 16.8008 22.4102 16.8008ZM20.6406 12.9336H23.9219C23.9219 11.961 23.3008 11.2578 22.3398 11.2578C21.3379 11.2578 20.6875 12.0313 20.6406 12.9336ZM26.3945 16.6719V10.3086H27.6016V11.3164H27.6719C27.9062 10.6367 28.5391 10.2149 29.2891 10.2149C29.4414 10.2149 29.6875 10.2266 29.8164 10.2383V11.4336C29.7109 11.4102 29.418 11.3633 29.1602 11.3633C28.293 11.3633 27.6484 11.961 27.6484 12.793V16.6719H26.3945Z" fill="black"/>
</g>
<defs>
<clipPath id="clip0_137_527">
<rect width="35" height="25" fill="white"/>
</clipPath>
</defs>
</svg>
