<svg width="800" height="580" viewBox="0 0 800 580" fill="none" xmlns="http://www.w3.org/2000/svg">
<rect width="800" height="580" fill="white"/>
<rect x="250.5" y="60.5" width="299" height="139" stroke="black"/>
<path d="M346.289 222.152H348.773V222.984H347.238V232.547H348.773V233.391H346.289V222.152ZM353.039 222.516H355.922C356.562 222.516 357.1 222.633 357.533 222.867C357.967 223.102 358.289 223.422 358.5 223.828C358.711 224.23 358.816 224.691 358.816 225.211C358.816 225.727 358.711 226.189 358.5 226.6C358.289 227.006 357.967 227.328 357.533 227.566C357.104 227.801 356.57 227.918 355.934 227.918H354.094V231H353.039V222.516ZM355.887 226.98C356.527 226.98 357.002 226.82 357.311 226.5C357.619 226.176 357.773 225.746 357.773 225.211C357.773 224.672 357.619 224.244 357.311 223.928C357.002 223.611 356.523 223.453 355.875 223.453H354.094V226.98H355.887ZM361.172 231H360.164V222.516H361.172V231ZM366.797 224.637H367.793V231H366.797V229.922H366.727C366.562 230.27 366.32 230.551 366 230.766C365.684 230.977 365.297 231.082 364.84 231.082C364.43 231.082 364.07 230.994 363.762 230.818C363.453 230.639 363.211 230.369 363.035 230.01C362.863 229.65 362.777 229.207 362.777 228.68V224.637H363.785V228.609C363.785 228.91 363.844 229.174 363.961 229.4C364.078 229.627 364.24 229.803 364.447 229.928C364.658 230.049 364.898 230.109 365.168 230.109C365.422 230.109 365.674 230.045 365.924 229.916C366.178 229.787 366.387 229.594 366.551 229.336C366.715 229.074 366.797 228.758 366.797 228.387V224.637ZM371.988 233.52C371.477 233.52 371.023 233.447 370.629 233.303C370.238 233.158 369.928 232.947 369.697 232.67C369.467 232.393 369.332 232.059 369.293 231.668H370.348C370.418 231.988 370.594 232.23 370.875 232.395C371.16 232.559 371.531 232.641 371.988 232.641C372.551 232.641 372.984 232.516 373.289 232.266C373.594 232.016 373.746 231.633 373.746 231.117V229.828H373.664C373.551 230.02 373.432 230.188 373.307 230.332C373.182 230.477 372.994 230.609 372.744 230.73C372.498 230.848 372.188 230.906 371.812 230.906C371.293 230.906 370.828 230.779 370.418 230.525C370.008 230.271 369.686 229.906 369.451 229.43C369.221 228.949 369.105 228.383 369.105 227.73C369.105 227.09 369.221 226.529 369.451 226.049C369.682 225.568 370.002 225.199 370.412 224.941C370.822 224.684 371.293 224.555 371.824 224.555C372.195 224.555 372.504 224.615 372.75 224.736C373 224.857 373.178 224.982 373.283 225.111C373.393 225.236 373.527 225.414 373.688 225.645H373.77V224.637H374.754V231.176C374.754 231.703 374.633 232.141 374.391 232.488C374.152 232.84 373.826 233.1 373.412 233.268C372.998 233.436 372.523 233.52 371.988 233.52ZM371.953 230.004C372.531 230.004 372.979 229.809 373.295 229.418C373.611 229.023 373.77 228.473 373.77 227.766C373.77 227.309 373.699 226.906 373.559 226.559C373.418 226.211 373.211 225.941 372.938 225.75C372.668 225.555 372.34 225.457 371.953 225.457C371.559 225.457 371.225 225.559 370.951 225.762C370.678 225.965 370.471 226.242 370.33 226.594C370.193 226.941 370.125 227.332 370.125 227.766C370.125 228.211 370.193 228.602 370.33 228.938C370.471 229.273 370.678 229.535 370.951 229.723C371.225 229.91 371.559 230.004 371.953 230.004ZM380.555 231H379.5V222.516H380.555V231ZM383.309 231H382.301V224.637H383.273V225.633H383.355C383.516 225.293 383.748 225.029 384.053 224.842C384.361 224.65 384.75 224.555 385.219 224.555C385.656 224.555 386.035 224.645 386.355 224.824C386.676 225 386.924 225.268 387.1 225.627C387.275 225.986 387.363 226.43 387.363 226.957V231H386.355V227.027C386.355 226.535 386.229 226.15 385.975 225.873C385.721 225.596 385.367 225.457 384.914 225.457C384.602 225.457 384.324 225.525 384.082 225.662C383.84 225.795 383.65 225.992 383.514 226.254C383.377 226.512 383.309 226.82 383.309 227.18V231ZM400.207 227.121H399.293V221.531H400.207V227.121ZM394.371 228.914H399.293V227.648H400.207V231.809H393.457V227.648H394.371V228.914ZM399.293 231.059V229.652H394.371V231.059H399.293ZM394.582 222.047C395.105 222.043 395.574 222.141 395.988 222.34C396.402 222.539 396.727 222.822 396.961 223.189C397.195 223.553 397.312 223.969 397.312 224.438C397.312 224.902 397.195 225.316 396.961 225.68C396.727 226.043 396.402 226.326 395.988 226.529C395.574 226.729 395.105 226.828 394.582 226.828C394.059 226.828 393.59 226.729 393.176 226.529C392.762 226.326 392.438 226.043 392.203 225.68C391.969 225.316 391.852 224.902 391.852 224.438C391.852 223.969 391.969 223.553 392.203 223.189C392.438 222.822 392.762 222.539 393.176 222.34C393.59 222.141 394.059 222.043 394.582 222.047ZM394.582 222.82C394.23 222.816 393.914 222.885 393.633 223.025C393.355 223.162 393.139 223.354 392.982 223.6C392.826 223.846 392.75 224.125 392.754 224.438C392.75 224.75 392.826 225.031 392.982 225.281C393.139 225.527 393.355 225.721 393.633 225.861C393.914 225.998 394.23 226.066 394.582 226.066C394.93 226.066 395.242 225.998 395.52 225.861C395.797 225.721 396.014 225.527 396.17 225.281C396.33 225.031 396.41 224.75 396.41 224.438C396.41 224.125 396.33 223.846 396.17 223.6C396.014 223.354 395.797 223.162 395.52 223.025C395.242 222.885 394.93 222.816 394.582 222.82ZM406.922 225.094H403.336V226.711C404.395 226.711 405.213 226.695 405.791 226.664C406.369 226.633 406.949 226.562 407.531 226.453L407.625 227.215C407.004 227.316 406.383 227.383 405.762 227.414C405.145 227.445 404.277 227.461 403.16 227.461H402.422V224.391H406.008V222.914H402.398V222.176H406.922V225.094ZM410.613 227.941H409.688V226.008H407.613V225.246H409.688V223.84H407.613V223.09H409.688V221.543H410.613V227.941ZM410.613 231.973H409.688V229.254H403.594V228.504H410.613V231.973ZM419.016 223.406C419.012 223.84 419.119 224.254 419.338 224.648C419.557 225.043 419.861 225.391 420.252 225.691C420.646 225.988 421.098 226.215 421.605 226.371L421.172 227.098C420.562 226.902 420.029 226.613 419.572 226.23C419.119 225.844 418.781 225.389 418.559 224.865C418.332 225.428 417.984 225.918 417.516 226.336C417.051 226.754 416.508 227.066 415.887 227.273L415.406 226.547C415.93 226.383 416.393 226.145 416.795 225.832C417.201 225.52 417.518 225.154 417.744 224.736C417.971 224.318 418.086 223.875 418.09 223.406V223.277H415.723V222.504H421.359V223.277H419.016V223.406ZM419.016 228.932C420.051 228.889 420.988 228.809 421.828 228.691L421.887 229.371C420.902 229.547 419.9 229.658 418.881 229.705C417.861 229.748 416.691 229.77 415.371 229.77L415.23 228.996C416.449 228.996 417.402 228.986 418.09 228.967V226.84H419.016V228.932ZM425.109 226.652H423.41V231.949H422.496V221.531H423.41V225.867H425.109V226.652ZM435.27 230.672H425.73V229.91H428.391V227.426H426.598V226.664H428.227V223.266H426.574V222.504H434.355V223.266H432.703V226.664H434.332V227.426H432.539V229.91H435.27V230.672ZM431.801 226.664V223.266H429.141V226.664H431.801ZM431.625 229.91V227.426H429.316V229.91H431.625ZM445.02 231.949H444.141V221.531H445.02V231.949ZM442.91 231.422H442.031V227.812H440.098V227.051H442.031V225.199H440.268C440.01 226.109 439.582 226.943 438.984 227.701C438.387 228.459 437.609 229.125 436.652 229.699L436.09 229.031C437.203 228.375 438.055 227.59 438.645 226.676C439.238 225.758 439.582 224.742 439.676 223.629H436.559V222.867H440.59C440.59 223.402 440.543 223.926 440.449 224.438H442.031V221.812H442.91V231.422ZM449.379 233.391V232.547H450.914V222.984H449.379V222.152H451.863V233.391H449.379Z" fill="black"/>
<path d="M143.289 540.152H145.773V540.984H144.238V550.547H145.773V551.391H143.289V540.152ZM155.828 543.188C155.75 542.809 155.594 542.484 155.359 542.215C155.129 541.941 154.848 541.734 154.516 541.594C154.188 541.453 153.836 541.383 153.461 541.383C152.941 541.383 152.475 541.514 152.061 541.775C151.65 542.037 151.326 542.422 151.088 542.93C150.85 543.438 150.73 544.047 150.73 544.758C150.73 545.469 150.85 546.078 151.088 546.586C151.326 547.094 151.65 547.479 152.061 547.74C152.475 548.002 152.941 548.133 153.461 548.133C153.836 548.133 154.188 548.064 154.516 547.928C154.844 547.787 155.123 547.582 155.354 547.312C155.588 547.039 155.746 546.715 155.828 546.34H156.883C156.781 546.906 156.57 547.4 156.25 547.822C155.93 548.24 155.527 548.561 155.043 548.783C154.562 549.006 154.035 549.117 153.461 549.117C152.734 549.117 152.088 548.939 151.521 548.584C150.955 548.229 150.512 547.723 150.191 547.066C149.871 546.406 149.711 545.637 149.711 544.758C149.711 543.879 149.871 543.111 150.191 542.455C150.512 541.795 150.955 541.287 151.521 540.932C152.088 540.576 152.734 540.398 153.461 540.398C154.031 540.398 154.557 540.51 155.037 540.732C155.521 540.955 155.924 541.277 156.244 541.699C156.568 542.117 156.781 542.613 156.883 543.188H155.828ZM158.23 542.637H159.238V549H158.23V542.637ZM158.734 541.582C158.539 541.582 158.373 541.518 158.236 541.389C158.1 541.26 158.031 541.102 158.031 540.914C158.031 540.727 158.1 540.568 158.236 540.439C158.373 540.311 158.539 540.246 158.734 540.246C158.93 540.246 159.098 540.311 159.238 540.439C159.379 540.568 159.449 540.727 159.449 540.914C159.449 541.102 159.379 541.26 159.238 541.389C159.098 541.518 158.93 541.582 158.734 541.582ZM163.727 549H162.684L160.34 542.637H161.441L163.176 547.688H163.246L164.98 542.637H166.082L163.727 549ZM167.195 542.637H168.203V549H167.195V542.637ZM167.699 541.582C167.504 541.582 167.338 541.518 167.201 541.389C167.064 541.26 166.996 541.102 166.996 540.914C166.996 540.727 167.064 540.568 167.201 540.439C167.338 540.311 167.504 540.246 167.699 540.246C167.895 540.246 168.062 540.311 168.203 540.439C168.344 540.568 168.414 540.727 168.414 540.914C168.414 541.102 168.344 541.26 168.203 541.389C168.062 541.518 167.895 541.582 167.699 541.582ZM170.816 549H169.809V540.516H170.816V549ZM182.301 549H181.293L176.699 542.391H176.617V549H175.562V540.516H176.582L181.176 547.137H181.258V540.516H182.301V549ZM186.871 544.02H186.941L189.109 540.516H190.352L187.691 544.758L190.352 549H189.109L186.941 545.566H186.871L184.703 549H183.461L186.191 544.758L183.461 540.516H184.715L186.871 544.02ZM197.676 541.406C197.672 541.84 197.779 542.254 197.998 542.648C198.217 543.043 198.521 543.391 198.912 543.691C199.307 543.988 199.758 544.215 200.266 544.371L199.832 545.098C199.223 544.902 198.689 544.613 198.232 544.23C197.779 543.844 197.441 543.389 197.219 542.865C196.992 543.428 196.645 543.918 196.176 544.336C195.711 544.754 195.168 545.066 194.547 545.273L194.066 544.547C194.59 544.383 195.053 544.145 195.455 543.832C195.861 543.52 196.178 543.154 196.404 542.736C196.631 542.318 196.746 541.875 196.75 541.406V541.277H194.383V540.504H200.02V541.277H197.676V541.406ZM197.676 546.932C198.711 546.889 199.648 546.809 200.488 546.691L200.547 547.371C199.562 547.547 198.561 547.658 197.541 547.705C196.521 547.748 195.352 547.77 194.031 547.77L193.891 546.996C195.109 546.996 196.062 546.986 196.75 546.967V544.84H197.676V546.932ZM203.77 544.652H202.07V549.949H201.156V539.531H202.07V543.867H203.77V544.652ZM213.93 548.672H204.391V547.91H207.051V545.426H205.258V544.664H206.887V541.266H205.234V540.504H213.016V541.266H211.363V544.664H212.992V545.426H211.199V547.91H213.93V548.672ZM210.461 544.664V541.266H207.801V544.664H210.461ZM210.285 547.91V545.426H207.977V547.91H210.285ZM223.68 549.949H222.801V539.531H223.68V549.949ZM221.57 549.422H220.691V545.812H218.758V545.051H220.691V543.199H218.928C218.67 544.109 218.242 544.943 217.645 545.701C217.047 546.459 216.27 547.125 215.312 547.699L214.75 547.031C215.863 546.375 216.715 545.59 217.305 544.676C217.898 543.758 218.242 542.742 218.336 541.629H215.219V540.867H219.25C219.25 541.402 219.203 541.926 219.109 542.438H220.691V539.812H221.57V549.422ZM232.176 545.836H228.461V544.91H232.176V545.836ZM236.395 540.516H242.793V541.453H240.133V549H239.066V541.453H236.395V540.516ZM243.988 551.391C243.785 551.391 243.598 551.383 243.426 551.367V550.465C243.566 550.48 243.73 550.488 243.918 550.488C244.086 550.488 244.227 550.471 244.34 550.436C244.453 550.4 244.566 550.312 244.68 550.172C244.793 550.035 244.902 549.82 245.008 549.527L245.195 549.047L242.84 542.637H243.941L245.676 547.688H245.746L247.48 542.637H248.582L245.887 549.914C245.699 550.41 245.449 550.779 245.137 551.021C244.824 551.268 244.441 551.391 243.988 551.391ZM249.695 542.637H250.668V543.645H250.785C250.91 543.441 251.031 543.271 251.148 543.135C251.266 542.994 251.447 542.863 251.693 542.742C251.939 542.617 252.25 542.555 252.625 542.555C253.156 542.555 253.625 542.689 254.031 542.959C254.441 543.225 254.76 543.605 254.986 544.102C255.217 544.598 255.332 545.176 255.332 545.836C255.332 546.496 255.217 547.076 254.986 547.576C254.76 548.072 254.441 548.455 254.031 548.725C253.625 548.994 253.16 549.129 252.637 549.129C252.266 549.129 251.955 549.068 251.705 548.947C251.459 548.822 251.273 548.688 251.148 548.543C251.023 548.395 250.902 548.223 250.785 548.027H250.703V551.391H249.695V542.637ZM250.68 545.812C250.68 546.293 250.75 546.715 250.891 547.078C251.031 547.441 251.238 547.725 251.512 547.928C251.785 548.127 252.113 548.227 252.496 548.227C252.887 548.227 253.219 548.123 253.492 547.916C253.77 547.705 253.977 547.418 254.113 547.055C254.254 546.688 254.324 546.273 254.324 545.812C254.324 545.363 254.254 544.961 254.113 544.605C253.977 544.25 253.771 543.971 253.498 543.768C253.225 543.561 252.891 543.457 252.496 543.457C252.105 543.457 251.773 543.555 251.5 543.75C251.23 543.945 251.025 544.221 250.885 544.576C250.748 544.928 250.68 545.34 250.68 545.812ZM259.316 549.129C258.711 549.129 258.184 548.994 257.734 548.725C257.285 548.455 256.939 548.074 256.697 547.582C256.459 547.09 256.34 546.52 256.34 545.871C256.34 545.223 256.459 544.648 256.697 544.148C256.939 543.645 257.277 543.254 257.711 542.977C258.148 542.695 258.652 542.555 259.223 542.555C259.703 542.555 260.15 542.662 260.564 542.877C260.979 543.088 261.314 543.432 261.572 543.908C261.834 544.381 261.965 544.988 261.965 545.73V546.152H257.348C257.363 546.594 257.455 546.971 257.623 547.283C257.791 547.596 258.02 547.834 258.309 547.998C258.602 548.158 258.938 548.238 259.316 548.238C259.676 548.238 259.979 548.172 260.225 548.039C260.475 547.902 260.664 547.727 260.793 547.512H261.871C261.77 547.832 261.6 548.115 261.361 548.361C261.127 548.604 260.834 548.793 260.482 548.93C260.135 549.062 259.746 549.129 259.316 549.129ZM260.945 545.297C260.945 544.941 260.873 544.625 260.729 544.348C260.588 544.066 260.387 543.846 260.125 543.686C259.863 543.525 259.562 543.445 259.223 543.445C258.867 543.445 258.551 543.529 258.273 543.697C258 543.865 257.783 544.092 257.623 544.377C257.467 544.658 257.377 544.965 257.354 545.297H260.945ZM269.277 549H268.211V541.617H268.164L266.102 542.988V541.922L268.211 540.516H269.277V549ZM274.07 551.391V550.547H275.605V540.984H274.07V540.152H276.555V551.391H274.07Z" fill="black"/>
<path d="M537.289 540.152H539.773V540.984H538.238V550.547H539.773V551.391H537.289V540.152ZM549.828 543.188C549.75 542.809 549.594 542.484 549.359 542.215C549.129 541.941 548.848 541.734 548.516 541.594C548.188 541.453 547.836 541.383 547.461 541.383C546.941 541.383 546.475 541.514 546.061 541.775C545.65 542.037 545.326 542.422 545.088 542.93C544.85 543.438 544.73 544.047 544.73 544.758C544.73 545.469 544.85 546.078 545.088 546.586C545.326 547.094 545.65 547.479 546.061 547.74C546.475 548.002 546.941 548.133 547.461 548.133C547.836 548.133 548.188 548.064 548.516 547.928C548.844 547.787 549.123 547.582 549.354 547.312C549.588 547.039 549.746 546.715 549.828 546.34H550.883C550.781 546.906 550.57 547.4 550.25 547.822C549.93 548.24 549.527 548.561 549.043 548.783C548.562 549.006 548.035 549.117 547.461 549.117C546.734 549.117 546.088 548.939 545.521 548.584C544.955 548.229 544.512 547.723 544.191 547.066C543.871 546.406 543.711 545.637 543.711 544.758C543.711 543.879 543.871 543.111 544.191 542.455C544.512 541.795 544.955 541.287 545.521 540.932C546.088 540.576 546.734 540.398 547.461 540.398C548.031 540.398 548.557 540.51 549.037 540.732C549.521 540.955 549.924 541.277 550.244 541.699C550.568 542.117 550.781 542.613 550.883 543.188H549.828ZM552.23 542.637H553.238V549H552.23V542.637ZM552.734 541.582C552.539 541.582 552.373 541.518 552.236 541.389C552.1 541.26 552.031 541.102 552.031 540.914C552.031 540.727 552.1 540.568 552.236 540.439C552.373 540.311 552.539 540.246 552.734 540.246C552.93 540.246 553.098 540.311 553.238 540.439C553.379 540.568 553.449 540.727 553.449 540.914C553.449 541.102 553.379 541.26 553.238 541.389C553.098 541.518 552.93 541.582 552.734 541.582ZM557.727 549H556.684L554.34 542.637H555.441L557.176 547.688H557.246L558.98 542.637H560.082L557.727 549ZM561.195 542.637H562.203V549H561.195V542.637ZM561.699 541.582C561.504 541.582 561.338 541.518 561.201 541.389C561.064 541.26 560.996 541.102 560.996 540.914C560.996 540.727 561.064 540.568 561.201 540.439C561.338 540.311 561.504 540.246 561.699 540.246C561.895 540.246 562.062 540.311 562.203 540.439C562.344 540.568 562.414 540.727 562.414 540.914C562.414 541.102 562.344 541.26 562.203 541.389C562.062 541.518 561.895 541.582 561.699 541.582ZM564.816 549H563.809V540.516H564.816V549ZM576.301 549H575.293L570.699 542.391H570.617V549H569.562V540.516H570.582L575.176 547.137H575.258V540.516H576.301V549ZM580.871 544.02H580.941L583.109 540.516H584.352L581.691 544.758L584.352 549H583.109L580.941 545.566H580.871L578.703 549H577.461L580.191 544.758L577.461 540.516H578.715L580.871 544.02ZM591.676 541.406C591.672 541.84 591.779 542.254 591.998 542.648C592.217 543.043 592.521 543.391 592.912 543.691C593.307 543.988 593.758 544.215 594.266 544.371L593.832 545.098C593.223 544.902 592.689 544.613 592.232 544.23C591.779 543.844 591.441 543.389 591.219 542.865C590.992 543.428 590.645 543.918 590.176 544.336C589.711 544.754 589.168 545.066 588.547 545.273L588.066 544.547C588.59 544.383 589.053 544.145 589.455 543.832C589.861 543.52 590.178 543.154 590.404 542.736C590.631 542.318 590.746 541.875 590.75 541.406V541.277H588.383V540.504H594.02V541.277H591.676V541.406ZM591.676 546.932C592.711 546.889 593.648 546.809 594.488 546.691L594.547 547.371C593.562 547.547 592.561 547.658 591.541 547.705C590.521 547.748 589.352 547.77 588.031 547.77L587.891 546.996C589.109 546.996 590.062 546.986 590.75 546.967V544.84H591.676V546.932ZM597.77 544.652H596.07V549.949H595.156V539.531H596.07V543.867H597.77V544.652ZM607.93 548.672H598.391V547.91H601.051V545.426H599.258V544.664H600.887V541.266H599.234V540.504H607.016V541.266H605.363V544.664H606.992V545.426H605.199V547.91H607.93V548.672ZM604.461 544.664V541.266H601.801V544.664H604.461ZM604.285 547.91V545.426H601.977V547.91H604.285ZM617.68 549.949H616.801V539.531H617.68V549.949ZM615.57 549.422H614.691V545.812H612.758V545.051H614.691V543.199H612.928C612.67 544.109 612.242 544.943 611.645 545.701C611.047 546.459 610.27 547.125 609.312 547.699L608.75 547.031C609.863 546.375 610.715 545.59 611.305 544.676C611.898 543.758 612.242 542.742 612.336 541.629H609.219V540.867H613.25C613.25 541.402 613.203 541.926 613.109 542.438H614.691V539.812H615.57V549.422ZM626.176 545.836H622.461V544.91H626.176V545.836ZM630.395 540.516H636.793V541.453H634.133V549H633.066V541.453H630.395V540.516ZM637.988 551.391C637.785 551.391 637.598 551.383 637.426 551.367V550.465C637.566 550.48 637.73 550.488 637.918 550.488C638.086 550.488 638.227 550.471 638.34 550.436C638.453 550.4 638.566 550.312 638.68 550.172C638.793 550.035 638.902 549.82 639.008 549.527L639.195 549.047L636.84 542.637H637.941L639.676 547.688H639.746L641.48 542.637H642.582L639.887 549.914C639.699 550.41 639.449 550.779 639.137 551.021C638.824 551.268 638.441 551.391 637.988 551.391ZM643.695 542.637H644.668V543.645H644.785C644.91 543.441 645.031 543.271 645.148 543.135C645.266 542.994 645.447 542.863 645.693 542.742C645.939 542.617 646.25 542.555 646.625 542.555C647.156 542.555 647.625 542.689 648.031 542.959C648.441 543.225 648.76 543.605 648.986 544.102C649.217 544.598 649.332 545.176 649.332 545.836C649.332 546.496 649.217 547.076 648.986 547.576C648.76 548.072 648.441 548.455 648.031 548.725C647.625 548.994 647.16 549.129 646.637 549.129C646.266 549.129 645.955 549.068 645.705 548.947C645.459 548.822 645.273 548.688 645.148 548.543C645.023 548.395 644.902 548.223 644.785 548.027H644.703V551.391H643.695V542.637ZM644.68 545.812C644.68 546.293 644.75 546.715 644.891 547.078C645.031 547.441 645.238 547.725 645.512 547.928C645.785 548.127 646.113 548.227 646.496 548.227C646.887 548.227 647.219 548.123 647.492 547.916C647.77 547.705 647.977 547.418 648.113 547.055C648.254 546.688 648.324 546.273 648.324 545.812C648.324 545.363 648.254 544.961 648.113 544.605C647.977 544.25 647.771 543.971 647.498 543.768C647.225 543.561 646.891 543.457 646.496 543.457C646.105 543.457 645.773 543.555 645.5 543.75C645.23 543.945 645.025 544.221 644.885 544.576C644.748 544.928 644.68 545.34 644.68 545.812ZM653.316 549.129C652.711 549.129 652.184 548.994 651.734 548.725C651.285 548.455 650.939 548.074 650.697 547.582C650.459 547.09 650.34 546.52 650.34 545.871C650.34 545.223 650.459 544.648 650.697 544.148C650.939 543.645 651.277 543.254 651.711 542.977C652.148 542.695 652.652 542.555 653.223 542.555C653.703 542.555 654.15 542.662 654.564 542.877C654.979 543.088 655.314 543.432 655.572 543.908C655.834 544.381 655.965 544.988 655.965 545.73V546.152H651.348C651.363 546.594 651.455 546.971 651.623 547.283C651.791 547.596 652.02 547.834 652.309 547.998C652.602 548.158 652.938 548.238 653.316 548.238C653.676 548.238 653.979 548.172 654.225 548.039C654.475 547.902 654.664 547.727 654.793 547.512H655.871C655.77 547.832 655.6 548.115 655.361 548.361C655.127 548.604 654.834 548.793 654.482 548.93C654.135 549.062 653.746 549.129 653.316 549.129ZM654.945 545.297C654.945 544.941 654.873 544.625 654.729 544.348C654.588 544.066 654.387 543.846 654.125 543.686C653.863 543.525 653.562 543.445 653.223 543.445C652.867 543.445 652.551 543.529 652.273 543.697C652 543.865 651.783 544.092 651.623 544.377C651.467 544.658 651.377 544.965 651.354 545.297H654.945ZM660.266 548.227L663.16 545.18C663.543 544.777 663.834 544.453 664.033 544.207C664.236 543.957 664.389 543.717 664.49 543.486C664.596 543.252 664.648 543.008 664.648 542.754C664.648 542.473 664.574 542.223 664.426 542.004C664.277 541.785 664.074 541.615 663.816 541.494C663.562 541.373 663.277 541.312 662.961 541.312C662.629 541.312 662.338 541.379 662.088 541.512C661.838 541.645 661.645 541.832 661.508 542.074C661.375 542.316 661.309 542.594 661.309 542.906H660.312C660.309 542.414 660.422 541.979 660.652 541.6C660.887 541.221 661.209 540.926 661.619 540.715C662.029 540.504 662.488 540.398 662.996 540.398C663.5 540.398 663.951 540.502 664.35 540.709C664.752 540.916 665.066 541.199 665.293 541.559C665.52 541.918 665.633 542.316 665.633 542.754C665.633 543.078 665.574 543.389 665.457 543.686C665.34 543.979 665.143 544.305 664.865 544.664C664.592 545.02 664.199 545.461 663.688 545.988L661.742 547.992V548.062H665.785V549H660.277L660.266 548.227ZM669.852 551.391V550.547H671.387V540.984H669.852V540.152H672.336V551.391H669.852Z" fill="black"/>
<path d="M317 50L322 52.8868V47.1132L317 50ZM482 50V49.5L321.5 49.5V50V50.5L482 50.5V50Z" fill="black"/>
<path d="M389.812 38.791H389.07V34.2793H387.889V38.3516H387.156V30.2949H387.889V33.625H389.07V30.1094H389.812V38.791ZM384.92 32.4824C384.92 33.0163 384.992 33.5208 385.135 33.9961C385.281 34.4681 385.496 34.8864 385.779 35.251C386.062 35.6123 386.408 35.8971 386.814 36.1055L386.355 36.7012C385.923 36.4668 385.555 36.1445 385.252 35.7344C384.952 35.321 384.725 34.8424 384.568 34.2988C384.419 34.9141 384.189 35.4512 383.88 35.9102C383.574 36.3691 383.195 36.7305 382.742 36.9941L382.264 36.4082C382.674 36.1836 383.022 35.876 383.309 35.4854C383.595 35.0947 383.812 34.6439 383.958 34.1328C384.104 33.6217 384.178 33.0716 384.178 32.4824V31.7891H382.469V31.1445H386.531V31.7891H384.92V32.4824ZM397.713 33.6934H399.168V34.3281H397.713V38.791H396.951V30.1094H397.713V33.6934ZM396.111 32.1406H390.945V31.5059H393.182V30.2168H393.943V31.5059H396.111V32.1406ZM393.572 32.8633C393.979 32.8633 394.344 32.9479 394.666 33.1172C394.988 33.2865 395.241 33.5225 395.423 33.8252C395.605 34.1279 395.698 34.4714 395.701 34.8555C395.698 35.2396 395.605 35.583 395.423 35.8857C395.241 36.1885 394.988 36.4245 394.666 36.5938C394.344 36.763 393.979 36.8477 393.572 36.8477C393.162 36.8477 392.794 36.763 392.469 36.5938C392.146 36.4245 391.894 36.1885 391.712 35.8857C391.53 35.583 391.44 35.2396 391.443 34.8555C391.44 34.4714 391.53 34.1279 391.712 33.8252C391.894 33.5225 392.146 33.2865 392.469 33.1172C392.794 32.9479 393.162 32.8633 393.572 32.8633ZM393.572 33.5078C393.305 33.5078 393.064 33.5664 392.85 33.6836C392.638 33.7975 392.472 33.957 392.352 34.1621C392.231 34.3672 392.173 34.5983 392.176 34.8555C392.173 35.1159 392.231 35.3486 392.352 35.5537C392.472 35.7555 392.638 35.9134 392.85 36.0273C393.064 36.1413 393.305 36.1966 393.572 36.1934C393.836 36.1966 394.074 36.1413 394.285 36.0273C394.497 35.9134 394.663 35.7555 394.783 35.5537C394.904 35.3486 394.965 35.1159 394.969 34.8555C394.965 34.5983 394.904 34.3672 394.783 34.1621C394.663 33.957 394.497 33.7975 394.285 33.6836C394.074 33.5664 393.836 33.5078 393.572 33.5078ZM403.641 35.5684C404.233 35.5684 404.744 35.6318 405.174 35.7588C405.604 35.8825 405.932 36.0648 406.16 36.3057C406.388 36.5465 406.502 36.8346 406.502 37.1699C406.502 37.5085 406.388 37.7982 406.16 38.0391C405.932 38.2832 405.604 38.4688 405.174 38.5957C404.747 38.7227 404.236 38.7878 403.641 38.791C403.045 38.7878 402.531 38.7227 402.098 38.5957C401.668 38.4688 401.338 38.2832 401.106 38.0391C400.875 37.7982 400.76 37.5085 400.76 37.1699C400.76 36.8346 400.875 36.5465 401.106 36.3057C401.338 36.0648 401.67 35.8825 402.103 35.7588C402.535 35.6318 403.048 35.5684 403.641 35.5684ZM403.641 36.1738C403.204 36.1771 402.827 36.2194 402.508 36.3008C402.192 36.3789 401.95 36.4928 401.78 36.6426C401.611 36.7891 401.528 36.9648 401.531 37.1699C401.528 37.375 401.611 37.5524 401.78 37.7021C401.95 37.8519 402.194 37.9658 402.513 38.0439C402.832 38.1253 403.208 38.166 403.641 38.166C404.077 38.166 404.454 38.1253 404.773 38.0439C405.092 37.9658 405.337 37.8519 405.506 37.7021C405.675 37.5524 405.76 37.375 405.76 37.1699C405.76 36.9648 405.675 36.7891 405.506 36.6426C405.337 36.4928 405.092 36.3789 404.773 36.3008C404.458 36.2194 404.08 36.1771 403.641 36.1738ZM406.424 32.2969H407.732V32.9512H406.424V35.334H405.662V30.1094H406.424V32.2969ZM400.76 31.9844H403.289V30.6562H404.051V34.6602H400.008V30.6562H400.76V31.9844ZM403.289 34.0352V32.5898H400.76V34.0352H403.289ZM416.355 32.2676H415.066V33.4688H416.355V34.1133H415.066V35.7148H414.305V30.1094H415.066V31.6328H416.355V32.2676ZM412.322 35.7734C412.908 35.7734 413.414 35.8337 413.841 35.9541C414.267 36.0713 414.594 36.2438 414.822 36.4717C415.05 36.6963 415.164 36.9648 415.164 37.2773C415.164 37.5898 415.05 37.8584 414.822 38.083C414.594 38.3076 414.267 38.4785 413.841 38.5957C413.414 38.7129 412.908 38.7715 412.322 38.7715C411.733 38.7715 411.225 38.7129 410.799 38.5957C410.372 38.4785 410.045 38.3076 409.817 38.083C409.59 37.8584 409.477 37.5898 409.48 37.2773C409.477 36.9648 409.59 36.6963 409.817 36.4717C410.045 36.2438 410.372 36.0713 410.799 35.9541C411.229 35.8337 411.736 35.7734 412.322 35.7734ZM412.322 36.3789C411.668 36.3789 411.157 36.457 410.789 36.6133C410.421 36.7695 410.239 36.9909 410.242 37.2773C410.239 37.4629 410.32 37.624 410.486 37.7607C410.652 37.8942 410.892 37.9967 411.204 38.0684C411.52 38.14 411.893 38.1758 412.322 38.1758C412.752 38.1758 413.123 38.14 413.436 38.0684C413.748 37.9967 413.987 37.8942 414.153 37.7607C414.319 37.6273 414.402 37.4661 414.402 37.2773C414.402 36.9909 414.218 36.7695 413.851 36.6133C413.486 36.457 412.977 36.3789 412.322 36.3789ZM413.475 31.7109H408.299V31.1055H410.506V30.041H411.268V31.1055H413.475V31.7109ZM410.887 32.1602C411.3 32.1602 411.663 32.2236 411.976 32.3506C412.291 32.4775 412.535 32.6566 412.708 32.8877C412.884 33.1188 412.973 33.3874 412.977 33.6934C412.973 34.0026 412.884 34.2728 412.708 34.5039C412.535 34.735 412.291 34.9141 411.976 35.041C411.663 35.1647 411.3 35.2266 410.887 35.2266C410.47 35.2266 410.102 35.1647 409.783 35.041C409.467 34.9141 409.223 34.735 409.051 34.5039C408.878 34.2728 408.794 34.0026 408.797 33.6934C408.794 33.3874 408.878 33.1188 409.051 32.8877C409.223 32.6566 409.467 32.4775 409.783 32.3506C410.102 32.2236 410.47 32.1602 410.887 32.1602ZM410.887 32.7363C410.617 32.7396 410.377 32.7819 410.169 32.8633C409.964 32.9414 409.804 33.0537 409.69 33.2002C409.58 33.3434 409.526 33.5078 409.529 33.6934C409.526 33.8789 409.58 34.0433 409.69 34.1865C409.804 34.3265 409.964 34.4355 410.169 34.5137C410.377 34.5918 410.617 34.6309 410.887 34.6309C411.154 34.6309 411.39 34.5918 411.595 34.5137C411.803 34.4355 411.964 34.3265 412.078 34.1865C412.192 34.0433 412.251 33.8789 412.254 33.6934C412.251 33.5078 412.192 33.3434 412.078 33.2002C411.964 33.0537 411.803 32.9414 411.595 32.8633C411.39 32.7819 411.154 32.7396 410.887 32.7363Z" fill="black"/>
<path d="M197.605 289.137C197.449 288.671 197.199 288.308 196.854 288.048C196.512 287.784 196.095 287.652 195.604 287.652C195.18 287.652 194.798 287.761 194.456 287.979C194.118 288.198 193.849 288.518 193.65 288.941C193.455 289.365 193.357 289.872 193.357 290.465C193.357 291.057 193.457 291.565 193.655 291.988C193.854 292.411 194.127 292.732 194.476 292.95C194.824 293.168 195.219 293.277 195.662 293.277C196.059 293.277 196.409 293.194 196.712 293.028C197.018 292.859 197.256 292.62 197.425 292.311C197.597 291.998 197.687 291.637 197.693 291.227H195.848V290.455H198.553V291.217C198.553 291.793 198.429 292.299 198.182 292.735C197.934 293.172 197.591 293.508 197.151 293.746C196.715 293.98 196.219 294.098 195.662 294.098C195.037 294.098 194.485 293.951 194.007 293.658C193.532 293.362 193.162 292.94 192.898 292.394C192.638 291.843 192.508 291.201 192.508 290.465C192.508 289.732 192.638 289.093 192.898 288.546C193.162 287.996 193.528 287.573 193.997 287.276C194.466 286.98 195.001 286.832 195.604 286.832C196.095 286.832 196.546 286.93 196.956 287.125C197.366 287.317 197.706 287.587 197.977 287.936C198.247 288.284 198.426 288.684 198.514 289.137H197.605ZM200.604 294H199.764V286.93H200.604V294ZM204.109 294.107C203.631 294.107 203.208 293.995 202.84 293.771C202.475 293.543 202.192 293.222 201.99 292.809C201.788 292.395 201.688 291.917 201.688 291.373C201.688 290.829 201.788 290.351 201.99 289.938C202.192 289.521 202.475 289.199 202.84 288.971C203.208 288.743 203.631 288.629 204.109 288.629C204.585 288.629 205.003 288.743 205.364 288.971C205.729 289.199 206.01 289.521 206.209 289.938C206.411 290.351 206.512 290.829 206.512 291.373C206.512 291.917 206.411 292.395 206.209 292.809C206.01 293.222 205.729 293.543 205.364 293.771C205.003 293.995 204.585 294.107 204.109 294.107ZM204.109 293.365C204.451 293.365 204.739 293.276 204.974 293.097C205.208 292.914 205.382 292.674 205.496 292.374C205.613 292.071 205.672 291.738 205.672 291.373C205.672 291.008 205.613 290.675 205.496 290.372C205.382 290.069 205.208 289.827 204.974 289.645C204.739 289.462 204.451 289.371 204.109 289.371C203.761 289.371 203.468 289.462 203.23 289.645C202.996 289.827 202.82 290.069 202.703 290.372C202.586 290.675 202.527 291.008 202.527 291.373C202.527 291.738 202.586 292.071 202.703 292.374C202.82 292.674 202.996 292.914 203.23 293.097C203.468 293.276 203.761 293.365 204.109 293.365ZM207.723 286.93H208.562V289.537H208.631C208.644 289.514 208.706 289.417 208.816 289.244C208.927 289.072 209.101 288.927 209.339 288.81C209.576 288.689 209.852 288.629 210.164 288.629C210.607 288.629 210.999 288.741 211.341 288.966C211.683 289.187 211.95 289.505 212.142 289.918C212.334 290.331 212.43 290.813 212.43 291.363C212.43 291.913 212.334 292.397 212.142 292.813C211.95 293.227 211.683 293.546 211.341 293.771C211.002 293.995 210.613 294.107 210.174 294.107C209.865 294.107 209.607 294.057 209.402 293.956C209.197 293.852 209.044 293.741 208.943 293.624C208.846 293.507 208.742 293.362 208.631 293.189H208.533V294H207.723V286.93ZM208.543 291.344C208.543 291.744 208.602 292.096 208.719 292.398C208.836 292.701 209.007 292.937 209.231 293.106C209.459 293.272 209.731 293.355 210.047 293.355C210.372 293.355 210.651 293.269 210.882 293.097C211.113 292.921 211.287 292.682 211.404 292.379C211.521 292.073 211.58 291.728 211.58 291.344C211.58 290.969 211.521 290.634 211.404 290.338C211.29 290.042 211.118 289.809 210.887 289.64C210.659 289.467 210.379 289.381 210.047 289.381C209.728 289.381 209.454 289.462 209.227 289.625C209.002 289.788 208.831 290.017 208.714 290.313C208.6 290.606 208.543 290.95 208.543 291.344ZM213.27 292.496C213.27 291.946 213.457 291.559 213.831 291.334C214.209 291.109 214.686 290.976 215.262 290.934C215.483 290.917 215.73 290.903 216.004 290.89C216.281 290.873 216.512 290.862 216.697 290.855V290.426C216.697 290.084 216.595 289.822 216.39 289.64C216.188 289.454 215.89 289.361 215.496 289.361C215.174 289.361 214.91 289.428 214.705 289.562C214.5 289.692 214.367 289.863 214.305 290.074H213.426C213.462 289.791 213.572 289.54 213.758 289.322C213.943 289.104 214.189 288.935 214.495 288.814C214.804 288.691 215.151 288.629 215.535 288.629C216.043 288.629 216.502 288.759 216.912 289.02C217.322 289.277 217.527 289.771 217.527 290.504V294H216.697V293.277H216.658C216.593 293.414 216.492 293.548 216.355 293.678C216.222 293.805 216.046 293.912 215.828 294C215.613 294.085 215.363 294.127 215.076 294.127C214.738 294.127 214.432 294.062 214.158 293.932C213.885 293.801 213.668 293.614 213.509 293.37C213.349 293.123 213.27 292.831 213.27 292.496ZM214.109 292.535C214.109 292.805 214.21 293.014 214.412 293.16C214.617 293.303 214.887 293.375 215.223 293.375C215.525 293.375 215.787 293.315 216.009 293.194C216.233 293.074 216.404 292.914 216.521 292.716C216.639 292.517 216.697 292.304 216.697 292.076V291.544C216.619 291.547 216.404 291.562 216.053 291.588L215.359 291.637C214.962 291.663 214.655 291.749 214.437 291.896C214.218 292.042 214.109 292.255 214.109 292.535ZM219.715 294H218.875V286.93H219.715V294ZM224.07 286.93L226.014 290.211H226.102L228.045 286.93H229.061L226.502 291.1V294H225.613V291.1L223.064 286.93H224.07Z" fill="black"/>
<path d="M377.605 397.137C377.449 396.671 377.199 396.308 376.854 396.048C376.512 395.784 376.095 395.652 375.604 395.652C375.18 395.652 374.798 395.761 374.456 395.979C374.118 396.198 373.849 396.518 373.65 396.941C373.455 397.365 373.357 397.872 373.357 398.465C373.357 399.057 373.457 399.565 373.655 399.988C373.854 400.411 374.127 400.732 374.476 400.95C374.824 401.168 375.219 401.277 375.662 401.277C376.059 401.277 376.409 401.194 376.712 401.028C377.018 400.859 377.256 400.62 377.425 400.311C377.597 399.998 377.687 399.637 377.693 399.227H375.848V398.455H378.553V399.217C378.553 399.793 378.429 400.299 378.182 400.735C377.934 401.172 377.591 401.508 377.151 401.746C376.715 401.98 376.219 402.098 375.662 402.098C375.037 402.098 374.485 401.951 374.007 401.658C373.532 401.362 373.162 400.94 372.898 400.394C372.638 399.843 372.508 399.201 372.508 398.465C372.508 397.732 372.638 397.093 372.898 396.546C373.162 395.996 373.528 395.573 373.997 395.276C374.466 394.98 375.001 394.832 375.604 394.832C376.095 394.832 376.546 394.93 376.956 395.125C377.366 395.317 377.706 395.587 377.977 395.936C378.247 396.284 378.426 396.684 378.514 397.137H377.605ZM380.604 402H379.764V394.93H380.604V402ZM384.109 402.107C383.631 402.107 383.208 401.995 382.84 401.771C382.475 401.543 382.192 401.222 381.99 400.809C381.788 400.395 381.688 399.917 381.688 399.373C381.688 398.829 381.788 398.351 381.99 397.938C382.192 397.521 382.475 397.199 382.84 396.971C383.208 396.743 383.631 396.629 384.109 396.629C384.585 396.629 385.003 396.743 385.364 396.971C385.729 397.199 386.01 397.521 386.209 397.938C386.411 398.351 386.512 398.829 386.512 399.373C386.512 399.917 386.411 400.395 386.209 400.809C386.01 401.222 385.729 401.543 385.364 401.771C385.003 401.995 384.585 402.107 384.109 402.107ZM384.109 401.365C384.451 401.365 384.739 401.276 384.974 401.097C385.208 400.914 385.382 400.674 385.496 400.374C385.613 400.071 385.672 399.738 385.672 399.373C385.672 399.008 385.613 398.675 385.496 398.372C385.382 398.069 385.208 397.827 384.974 397.645C384.739 397.462 384.451 397.371 384.109 397.371C383.761 397.371 383.468 397.462 383.23 397.645C382.996 397.827 382.82 398.069 382.703 398.372C382.586 398.675 382.527 399.008 382.527 399.373C382.527 399.738 382.586 400.071 382.703 400.374C382.82 400.674 382.996 400.914 383.23 401.097C383.468 401.276 383.761 401.365 384.109 401.365ZM387.723 394.93H388.562V397.537H388.631C388.644 397.514 388.706 397.417 388.816 397.244C388.927 397.072 389.101 396.927 389.339 396.81C389.576 396.689 389.852 396.629 390.164 396.629C390.607 396.629 390.999 396.741 391.341 396.966C391.683 397.187 391.95 397.505 392.142 397.918C392.334 398.331 392.43 398.813 392.43 399.363C392.43 399.913 392.334 400.397 392.142 400.813C391.95 401.227 391.683 401.546 391.341 401.771C391.002 401.995 390.613 402.107 390.174 402.107C389.865 402.107 389.607 402.057 389.402 401.956C389.197 401.852 389.044 401.741 388.943 401.624C388.846 401.507 388.742 401.362 388.631 401.189H388.533V402H387.723V394.93ZM388.543 399.344C388.543 399.744 388.602 400.096 388.719 400.398C388.836 400.701 389.007 400.937 389.231 401.106C389.459 401.272 389.731 401.355 390.047 401.355C390.372 401.355 390.651 401.269 390.882 401.097C391.113 400.921 391.287 400.682 391.404 400.379C391.521 400.073 391.58 399.728 391.58 399.344C391.58 398.969 391.521 398.634 391.404 398.338C391.29 398.042 391.118 397.809 390.887 397.64C390.659 397.467 390.379 397.381 390.047 397.381C389.728 397.381 389.454 397.462 389.227 397.625C389.002 397.788 388.831 398.017 388.714 398.313C388.6 398.606 388.543 398.95 388.543 399.344ZM393.27 400.496C393.27 399.946 393.457 399.559 393.831 399.334C394.209 399.109 394.686 398.976 395.262 398.934C395.483 398.917 395.73 398.903 396.004 398.89C396.281 398.873 396.512 398.862 396.697 398.855V398.426C396.697 398.084 396.595 397.822 396.39 397.64C396.188 397.454 395.89 397.361 395.496 397.361C395.174 397.361 394.91 397.428 394.705 397.562C394.5 397.692 394.367 397.863 394.305 398.074H393.426C393.462 397.791 393.572 397.54 393.758 397.322C393.943 397.104 394.189 396.935 394.495 396.814C394.804 396.691 395.151 396.629 395.535 396.629C396.043 396.629 396.502 396.759 396.912 397.02C397.322 397.277 397.527 397.771 397.527 398.504V402H396.697V401.277H396.658C396.593 401.414 396.492 401.548 396.355 401.678C396.222 401.805 396.046 401.912 395.828 402C395.613 402.085 395.363 402.127 395.076 402.127C394.738 402.127 394.432 402.062 394.158 401.932C393.885 401.801 393.668 401.614 393.509 401.37C393.349 401.123 393.27 400.831 393.27 400.496ZM394.109 400.535C394.109 400.805 394.21 401.014 394.412 401.16C394.617 401.303 394.887 401.375 395.223 401.375C395.525 401.375 395.787 401.315 396.009 401.194C396.233 401.074 396.404 400.914 396.521 400.716C396.639 400.517 396.697 400.304 396.697 400.076V399.544C396.619 399.547 396.404 399.562 396.053 399.588L395.359 399.637C394.962 399.663 394.655 399.749 394.437 399.896C394.218 400.042 394.109 400.255 394.109 400.535ZM399.715 402H398.875V394.93H399.715V402ZM405.916 397.85H405.975L407.781 394.93H408.816L406.6 398.465L408.816 402H407.781L405.975 399.139H405.916L404.109 402H403.074L405.35 398.465L403.074 394.93H404.119L405.916 397.85Z" fill="black"/>
<path d="M711.605 397.137C711.449 396.671 711.199 396.308 710.854 396.048C710.512 395.784 710.095 395.652 709.604 395.652C709.18 395.652 708.798 395.761 708.456 395.979C708.118 396.198 707.849 396.518 707.65 396.941C707.455 397.365 707.357 397.872 707.357 398.465C707.357 399.057 707.457 399.565 707.655 399.988C707.854 400.411 708.127 400.732 708.476 400.95C708.824 401.168 709.219 401.277 709.662 401.277C710.059 401.277 710.409 401.194 710.712 401.028C711.018 400.859 711.256 400.62 711.425 400.311C711.597 399.998 711.687 399.637 711.693 399.227H709.848V398.455H712.553V399.217C712.553 399.793 712.429 400.299 712.182 400.735C711.934 401.172 711.591 401.508 711.151 401.746C710.715 401.98 710.219 402.098 709.662 402.098C709.037 402.098 708.485 401.951 708.007 401.658C707.532 401.362 707.162 400.94 706.898 400.394C706.638 399.843 706.508 399.201 706.508 398.465C706.508 397.732 706.638 397.093 706.898 396.546C707.162 395.996 707.528 395.573 707.997 395.276C708.466 394.98 709.001 394.832 709.604 394.832C710.095 394.832 710.546 394.93 710.956 395.125C711.366 395.317 711.706 395.587 711.977 395.936C712.247 396.284 712.426 396.684 712.514 397.137H711.605ZM714.604 402H713.764V394.93H714.604V402ZM718.109 402.107C717.631 402.107 717.208 401.995 716.84 401.771C716.475 401.543 716.192 401.222 715.99 400.809C715.788 400.395 715.688 399.917 715.688 399.373C715.688 398.829 715.788 398.351 715.99 397.938C716.192 397.521 716.475 397.199 716.84 396.971C717.208 396.743 717.631 396.629 718.109 396.629C718.585 396.629 719.003 396.743 719.364 396.971C719.729 397.199 720.01 397.521 720.209 397.938C720.411 398.351 720.512 398.829 720.512 399.373C720.512 399.917 720.411 400.395 720.209 400.809C720.01 401.222 719.729 401.543 719.364 401.771C719.003 401.995 718.585 402.107 718.109 402.107ZM718.109 401.365C718.451 401.365 718.739 401.276 718.974 401.097C719.208 400.914 719.382 400.674 719.496 400.374C719.613 400.071 719.672 399.738 719.672 399.373C719.672 399.008 719.613 398.675 719.496 398.372C719.382 398.069 719.208 397.827 718.974 397.645C718.739 397.462 718.451 397.371 718.109 397.371C717.761 397.371 717.468 397.462 717.23 397.645C716.996 397.827 716.82 398.069 716.703 398.372C716.586 398.675 716.527 399.008 716.527 399.373C716.527 399.738 716.586 400.071 716.703 400.374C716.82 400.674 716.996 400.914 717.23 401.097C717.468 401.276 717.761 401.365 718.109 401.365ZM721.723 394.93H722.562V397.537H722.631C722.644 397.514 722.706 397.417 722.816 397.244C722.927 397.072 723.101 396.927 723.339 396.81C723.576 396.689 723.852 396.629 724.164 396.629C724.607 396.629 724.999 396.741 725.341 396.966C725.683 397.187 725.95 397.505 726.142 397.918C726.334 398.331 726.43 398.813 726.43 399.363C726.43 399.913 726.334 400.397 726.142 400.813C725.95 401.227 725.683 401.546 725.341 401.771C725.002 401.995 724.613 402.107 724.174 402.107C723.865 402.107 723.607 402.057 723.402 401.956C723.197 401.852 723.044 401.741 722.943 401.624C722.846 401.507 722.742 401.362 722.631 401.189H722.533V402H721.723V394.93ZM722.543 399.344C722.543 399.744 722.602 400.096 722.719 400.398C722.836 400.701 723.007 400.937 723.231 401.106C723.459 401.272 723.731 401.355 724.047 401.355C724.372 401.355 724.651 401.269 724.882 401.097C725.113 400.921 725.287 400.682 725.404 400.379C725.521 400.073 725.58 399.728 725.58 399.344C725.58 398.969 725.521 398.634 725.404 398.338C725.29 398.042 725.118 397.809 724.887 397.64C724.659 397.467 724.379 397.381 724.047 397.381C723.728 397.381 723.454 397.462 723.227 397.625C723.002 397.788 722.831 398.017 722.714 398.313C722.6 398.606 722.543 398.95 722.543 399.344ZM727.27 400.496C727.27 399.946 727.457 399.559 727.831 399.334C728.209 399.109 728.686 398.976 729.262 398.934C729.483 398.917 729.73 398.903 730.004 398.89C730.281 398.873 730.512 398.862 730.697 398.855V398.426C730.697 398.084 730.595 397.822 730.39 397.64C730.188 397.454 729.89 397.361 729.496 397.361C729.174 397.361 728.91 397.428 728.705 397.562C728.5 397.692 728.367 397.863 728.305 398.074H727.426C727.462 397.791 727.572 397.54 727.758 397.322C727.943 397.104 728.189 396.935 728.495 396.814C728.804 396.691 729.151 396.629 729.535 396.629C730.043 396.629 730.502 396.759 730.912 397.02C731.322 397.277 731.527 397.771 731.527 398.504V402H730.697V401.277H730.658C730.593 401.414 730.492 401.548 730.355 401.678C730.222 401.805 730.046 401.912 729.828 402C729.613 402.085 729.363 402.127 729.076 402.127C728.738 402.127 728.432 402.062 728.158 401.932C727.885 401.801 727.668 401.614 727.509 401.37C727.349 401.123 727.27 400.831 727.27 400.496ZM728.109 400.535C728.109 400.805 728.21 401.014 728.412 401.16C728.617 401.303 728.887 401.375 729.223 401.375C729.525 401.375 729.787 401.315 730.009 401.194C730.233 401.074 730.404 400.914 730.521 400.716C730.639 400.517 730.697 400.304 730.697 400.076V399.544C730.619 399.547 730.404 399.562 730.053 399.588L729.359 399.637C728.962 399.663 728.655 399.749 728.437 399.896C728.218 400.042 728.109 400.255 728.109 400.535ZM733.715 402H732.875V394.93H733.715V402ZM739.916 397.85H739.975L741.781 394.93H742.816L740.6 398.465L742.816 402H741.781L739.975 399.139H739.916L738.109 402H737.074L739.35 398.465L737.074 394.93H738.119L739.916 397.85Z" fill="black"/>
<path d="M592.605 239.137C592.449 238.671 592.199 238.308 591.854 238.048C591.512 237.784 591.095 237.652 590.604 237.652C590.18 237.652 589.798 237.761 589.456 237.979C589.118 238.198 588.849 238.518 588.65 238.941C588.455 239.365 588.357 239.872 588.357 240.465C588.357 241.057 588.457 241.565 588.655 241.988C588.854 242.411 589.127 242.732 589.476 242.95C589.824 243.168 590.219 243.277 590.662 243.277C591.059 243.277 591.409 243.194 591.712 243.028C592.018 242.859 592.256 242.62 592.425 242.311C592.597 241.998 592.687 241.637 592.693 241.227H590.848V240.455H593.553V241.217C593.553 241.793 593.429 242.299 593.182 242.735C592.934 243.172 592.591 243.508 592.151 243.746C591.715 243.98 591.219 244.098 590.662 244.098C590.037 244.098 589.485 243.951 589.007 243.658C588.532 243.362 588.162 242.94 587.898 242.394C587.638 241.843 587.508 241.201 587.508 240.465C587.508 239.732 587.638 239.093 587.898 238.546C588.162 237.996 588.528 237.573 588.997 237.276C589.466 236.98 590.001 236.832 590.604 236.832C591.095 236.832 591.546 236.93 591.956 237.125C592.366 237.317 592.706 237.587 592.977 237.936C593.247 238.284 593.426 238.684 593.514 239.137H592.605ZM595.604 244H594.764V236.93H595.604V244ZM599.109 244.107C598.631 244.107 598.208 243.995 597.84 243.771C597.475 243.543 597.192 243.222 596.99 242.809C596.788 242.395 596.688 241.917 596.688 241.373C596.688 240.829 596.788 240.351 596.99 239.938C597.192 239.521 597.475 239.199 597.84 238.971C598.208 238.743 598.631 238.629 599.109 238.629C599.585 238.629 600.003 238.743 600.364 238.971C600.729 239.199 601.01 239.521 601.209 239.938C601.411 240.351 601.512 240.829 601.512 241.373C601.512 241.917 601.411 242.395 601.209 242.809C601.01 243.222 600.729 243.543 600.364 243.771C600.003 243.995 599.585 244.107 599.109 244.107ZM599.109 243.365C599.451 243.365 599.739 243.276 599.974 243.097C600.208 242.914 600.382 242.674 600.496 242.374C600.613 242.071 600.672 241.738 600.672 241.373C600.672 241.008 600.613 240.675 600.496 240.372C600.382 240.069 600.208 239.827 599.974 239.645C599.739 239.462 599.451 239.371 599.109 239.371C598.761 239.371 598.468 239.462 598.23 239.645C597.996 239.827 597.82 240.069 597.703 240.372C597.586 240.675 597.527 241.008 597.527 241.373C597.527 241.738 597.586 242.071 597.703 242.374C597.82 242.674 597.996 242.914 598.23 243.097C598.468 243.276 598.761 243.365 599.109 243.365ZM602.723 236.93H603.562V239.537H603.631C603.644 239.514 603.706 239.417 603.816 239.244C603.927 239.072 604.101 238.927 604.339 238.81C604.576 238.689 604.852 238.629 605.164 238.629C605.607 238.629 605.999 238.741 606.341 238.966C606.683 239.187 606.95 239.505 607.142 239.918C607.334 240.331 607.43 240.813 607.43 241.363C607.43 241.913 607.334 242.397 607.142 242.813C606.95 243.227 606.683 243.546 606.341 243.771C606.002 243.995 605.613 244.107 605.174 244.107C604.865 244.107 604.607 244.057 604.402 243.956C604.197 243.852 604.044 243.741 603.943 243.624C603.846 243.507 603.742 243.362 603.631 243.189H603.533V244H602.723V236.93ZM603.543 241.344C603.543 241.744 603.602 242.096 603.719 242.398C603.836 242.701 604.007 242.937 604.231 243.106C604.459 243.272 604.731 243.355 605.047 243.355C605.372 243.355 605.651 243.269 605.882 243.097C606.113 242.921 606.287 242.682 606.404 242.379C606.521 242.073 606.58 241.728 606.58 241.344C606.58 240.969 606.521 240.634 606.404 240.338C606.29 240.042 606.118 239.809 605.887 239.64C605.659 239.467 605.379 239.381 605.047 239.381C604.728 239.381 604.454 239.462 604.227 239.625C604.002 239.788 603.831 240.017 603.714 240.313C603.6 240.606 603.543 240.95 603.543 241.344ZM608.27 242.496C608.27 241.946 608.457 241.559 608.831 241.334C609.209 241.109 609.686 240.976 610.262 240.934C610.483 240.917 610.73 240.903 611.004 240.89C611.281 240.873 611.512 240.862 611.697 240.855V240.426C611.697 240.084 611.595 239.822 611.39 239.64C611.188 239.454 610.89 239.361 610.496 239.361C610.174 239.361 609.91 239.428 609.705 239.562C609.5 239.692 609.367 239.863 609.305 240.074H608.426C608.462 239.791 608.572 239.54 608.758 239.322C608.943 239.104 609.189 238.935 609.495 238.814C609.804 238.691 610.151 238.629 610.535 238.629C611.043 238.629 611.502 238.759 611.912 239.02C612.322 239.277 612.527 239.771 612.527 240.504V244H611.697V243.277H611.658C611.593 243.414 611.492 243.548 611.355 243.678C611.222 243.805 611.046 243.912 610.828 244C610.613 244.085 610.363 244.127 610.076 244.127C609.738 244.127 609.432 244.062 609.158 243.932C608.885 243.801 608.668 243.614 608.509 243.37C608.349 243.123 608.27 242.831 608.27 242.496ZM609.109 242.535C609.109 242.805 609.21 243.014 609.412 243.16C609.617 243.303 609.887 243.375 610.223 243.375C610.525 243.375 610.787 243.315 611.009 243.194C611.233 243.074 611.404 242.914 611.521 242.716C611.639 242.517 611.697 242.304 611.697 242.076V241.544C611.619 241.547 611.404 241.562 611.053 241.588L610.359 241.637C609.962 241.663 609.655 241.749 609.437 241.896C609.218 242.042 609.109 242.255 609.109 242.535ZM614.715 244H613.875V236.93H614.715V244ZM619.07 236.93L621.014 240.211H621.102L623.045 236.93H624.061L621.502 241.1V244H620.613V241.1L618.064 236.93H619.07Z" fill="black"/>
<path d="M560 175L562.887 170H557.113L560 175ZM560 85H559.5V170.5H560H560.5V85H560Z" fill="black"/>
<path d="M571.209 111.812L571.209 111.07L575.721 111.07L575.721 109.889L571.648 109.889L571.648 109.156L579.705 109.156L579.705 109.889L576.375 109.889L576.375 111.07L579.891 111.07L579.891 111.812L571.209 111.812ZM577.518 106.92C576.984 106.92 576.479 106.992 576.004 107.135C575.532 107.281 575.114 107.496 574.749 107.779C574.388 108.062 574.103 108.408 573.895 108.814L573.299 108.355C573.533 107.923 573.855 107.555 574.266 107.252C574.679 106.952 575.158 106.725 575.701 106.568C575.086 106.419 574.549 106.189 574.09 105.88C573.631 105.574 573.27 105.195 573.006 104.742L573.592 104.264C573.816 104.674 574.124 105.022 574.515 105.309C574.905 105.595 575.356 105.812 575.867 105.958C576.378 106.104 576.928 106.178 577.518 106.178L578.211 106.178L578.211 104.469L578.855 104.469L578.855 108.531L578.211 108.531L578.211 106.92L577.518 106.92ZM576.307 119.713L576.307 121.168L575.672 121.168L575.672 119.713L571.209 119.713L571.209 118.951L579.891 118.951L579.891 119.713L576.307 119.713ZM577.859 118.111L577.859 112.945L578.494 112.945L578.494 115.182L579.783 115.182L579.783 115.943L578.494 115.943L578.494 118.111L577.859 118.111ZM577.137 115.572C577.137 115.979 577.052 116.344 576.883 116.666C576.714 116.988 576.478 117.241 576.175 117.423C575.872 117.605 575.529 117.698 575.145 117.701C574.76 117.698 574.417 117.605 574.114 117.423C573.812 117.241 573.576 116.988 573.406 116.666C573.237 116.344 573.152 115.979 573.152 115.572C573.152 115.162 573.237 114.794 573.406 114.469C573.576 114.146 573.812 113.894 574.114 113.712C574.417 113.53 574.76 113.44 575.145 113.443C575.529 113.44 575.872 113.53 576.175 113.712C576.478 113.894 576.714 114.146 576.883 114.469C577.052 114.794 577.137 115.162 577.137 115.572ZM576.492 115.572C576.492 115.305 576.434 115.064 576.316 114.85C576.202 114.638 576.043 114.472 575.838 114.352C575.633 114.231 575.402 114.173 575.145 114.176C574.884 114.173 574.651 114.231 574.446 114.352C574.244 114.472 574.087 114.638 573.973 114.85C573.859 115.064 573.803 115.305 573.807 115.572C573.803 115.836 573.859 116.074 573.973 116.285C574.087 116.497 574.244 116.663 574.446 116.783C574.651 116.904 574.884 116.965 575.145 116.969C575.402 116.965 575.633 116.904 575.838 116.783C576.043 116.663 576.202 116.497 576.316 116.285C576.434 116.074 576.492 115.836 576.492 115.572ZM578.279 124.762C577.895 124.762 577.526 124.856 577.171 125.045C576.816 125.234 576.504 125.497 576.233 125.836C575.966 126.174 575.763 126.559 575.623 126.988L575.027 126.598C575.2 126.09 575.457 125.644 575.799 125.26C576.144 124.876 576.546 124.586 577.005 124.391C576.513 124.202 576.08 123.912 575.706 123.521C575.332 123.131 575.05 122.678 574.861 122.164L575.457 121.764C575.61 122.193 575.83 122.577 576.116 122.916C576.406 123.255 576.738 123.518 577.112 123.707C577.487 123.896 577.876 123.99 578.279 123.99L578.65 123.99L578.65 121.959L579.275 121.959L579.275 126.764L578.65 126.764L578.65 124.762L578.279 124.762ZM574.637 128.805L574.637 128.043L579.891 128.043L579.891 128.805L574.637 128.805ZM571.209 128.805L571.209 128.043L573.543 128.043L573.543 122.965L574.178 122.965L574.178 128.805L571.209 128.805ZM577.684 137.066L577.684 138.375L577.029 138.375L577.029 137.066L574.793 137.066L574.793 136.305L579.891 136.305L579.891 137.066L577.684 137.066ZM579.334 134.684C578.608 134.684 577.952 134.521 577.366 134.195C576.78 133.87 576.277 133.401 575.857 132.789C575.441 132.177 575.118 131.441 574.891 130.582L575.486 130.27C575.678 130.976 575.931 131.59 576.243 132.11C576.559 132.631 576.925 133.041 577.342 133.341C577.758 133.64 578.211 133.816 578.699 133.868L578.699 130.66L579.334 130.66L579.334 134.684ZM571.209 137.066L571.209 136.305L573.768 136.305L573.768 131.383L574.393 131.383L574.393 137.066L571.209 137.066ZM574.432 142.926C574.432 143.518 574.368 144.029 574.241 144.459C574.118 144.889 573.935 145.217 573.694 145.445C573.453 145.673 573.165 145.787 572.83 145.787C572.492 145.787 572.202 145.673 571.961 145.445C571.717 145.217 571.531 144.889 571.404 144.459C571.277 144.033 571.212 143.521 571.209 142.926C571.212 142.33 571.277 141.816 571.404 141.383C571.531 140.953 571.717 140.623 571.961 140.392C572.202 140.16 572.492 140.045 572.83 140.045C573.165 140.045 573.453 140.16 573.694 140.392C573.935 140.623 574.118 140.955 574.241 141.388C574.368 141.821 574.432 142.333 574.432 142.926ZM573.826 142.926C573.823 142.49 573.781 142.112 573.699 141.793C573.621 141.477 573.507 141.235 573.357 141.065C573.211 140.896 573.035 140.813 572.83 140.816C572.625 140.813 572.448 140.896 572.298 141.065C572.148 141.235 572.034 141.479 571.956 141.798C571.875 142.117 571.834 142.493 571.834 142.926C571.834 143.362 571.875 143.74 571.956 144.059C572.034 144.378 572.148 144.622 572.298 144.791C572.448 144.96 572.625 145.045 572.83 145.045C573.035 145.045 573.211 144.96 573.357 144.791C573.507 144.622 573.621 144.378 573.699 144.059C573.781 143.743 573.823 143.365 573.826 142.926ZM577.703 145.709L577.703 147.018L577.049 147.018L577.049 145.709L574.666 145.709L574.666 144.947L579.891 144.947L579.891 145.709L577.703 145.709ZM578.016 140.045L578.016 142.574L579.344 142.574L579.344 143.336L575.34 143.336L575.34 139.293L579.344 139.293L579.344 140.045L578.016 140.045ZM575.965 142.574L577.41 142.574L577.41 140.045L575.965 140.045L575.965 142.574ZM577.732 155.641L577.732 154.352L576.531 154.352L576.531 155.641L575.887 155.641L575.887 154.352L574.285 154.352L574.285 153.59L579.891 153.59L579.891 154.352L578.367 154.352L578.367 155.641L577.732 155.641ZM574.227 151.607C574.227 152.193 574.166 152.7 574.046 153.126C573.929 153.552 573.756 153.88 573.528 154.107C573.304 154.335 573.035 154.449 572.723 154.449C572.41 154.449 572.142 154.335 571.917 154.107C571.692 153.88 571.521 153.552 571.404 153.126C571.287 152.7 571.229 152.193 571.229 151.607C571.229 151.018 571.287 150.51 571.404 150.084C571.521 149.658 571.692 149.33 571.917 149.103C572.142 148.875 572.41 148.762 572.723 148.766C573.035 148.762 573.304 148.875 573.528 149.103C573.756 149.33 573.929 149.658 574.046 150.084C574.166 150.514 574.227 151.021 574.227 151.607ZM573.621 151.607C573.621 150.953 573.543 150.442 573.387 150.074C573.23 149.706 573.009 149.524 572.723 149.527C572.537 149.524 572.376 149.605 572.239 149.771C572.106 149.937 572.003 150.177 571.932 150.489C571.86 150.805 571.824 151.178 571.824 151.607C571.824 152.037 571.86 152.408 571.932 152.721C572.003 153.033 572.106 153.272 572.239 153.438C572.373 153.604 572.534 153.687 572.723 153.687C573.009 153.687 573.23 153.504 573.387 153.136C573.543 152.771 573.621 152.262 573.621 151.607ZM578.289 152.76L578.289 147.584L578.895 147.584L578.895 149.791L579.959 149.791L579.959 150.553L578.895 150.553L578.895 152.76L578.289 152.76ZM577.84 150.172C577.84 150.585 577.776 150.948 577.649 151.261C577.522 151.576 577.343 151.821 577.112 151.993C576.881 152.169 576.613 152.258 576.307 152.262C575.997 152.258 575.727 152.169 575.496 151.993C575.265 151.821 575.086 151.576 574.959 151.261C574.835 150.948 574.773 150.585 574.773 150.172C574.773 149.755 574.835 149.387 574.959 149.068C575.086 148.753 575.265 148.508 575.496 148.336C575.727 148.163 575.997 148.079 576.307 148.082C576.613 148.079 576.881 148.163 577.112 148.336C577.343 148.508 577.522 148.753 577.649 149.068C577.776 149.387 577.84 149.755 577.84 150.172ZM577.264 150.172C577.26 149.902 577.218 149.662 577.137 149.454C577.059 149.249 576.946 149.09 576.8 148.976C576.657 148.865 576.492 148.811 576.307 148.814C576.121 148.811 575.957 148.865 575.813 148.976C575.674 149.09 575.564 149.249 575.486 149.454C575.408 149.662 575.369 149.902 575.369 150.172C575.369 150.439 575.408 150.675 575.486 150.88C575.564 151.088 575.674 151.249 575.813 151.363C575.957 151.477 576.121 151.536 576.307 151.539C576.492 151.536 576.657 151.477 576.8 151.363C576.946 151.249 577.059 151.088 577.137 150.88C577.218 150.675 577.26 150.439 577.264 150.172Z" fill="black"/>
<rect x="93.5" y="342.5" width="234" height="109" stroke="black"/>
<rect x="550.5" y="514" width="234" height="109" transform="rotate(-90 550.5 514)" stroke="black"/>
<ellipse cx="116" cy="362.5" rx="12" ry="11.5" fill="#D9D9D9"/>
<ellipse cx="570.5" cy="491.5" rx="12" ry="11.5" transform="rotate(-90 570.5 491.5)" fill="#D9D9D9"/>
<circle cx="163.5" cy="362.5" r="11.5" fill="#D9D9D9"/>
<circle cx="570.5" cy="444" r="11.5" transform="rotate(-90 570.5 444)" fill="#D9D9D9"/>
<circle cx="210.5" cy="362.5" r="11.5" fill="#D9D9D9"/>
<circle cx="570.5" cy="397" r="11.5" transform="rotate(-90 570.5 397)" fill="#D9D9D9"/>
<ellipse cx="258" cy="362.5" rx="12" ry="11.5" fill="#D9D9D9"/>
<ellipse cx="570.5" cy="349.5" rx="12" ry="11.5" transform="rotate(-90 570.5 349.5)" fill="#D9D9D9"/>
<ellipse cx="305" cy="362.5" rx="12" ry="11.5" fill="#D9D9D9"/>
<ellipse cx="570.5" cy="302.5" rx="12" ry="11.5" transform="rotate(-90 570.5 302.5)" fill="#D9D9D9"/>
<circle cx="116" cy="398" r="12" fill="#D9D9D9"/>
<circle cx="606" cy="491.5" r="12" transform="rotate(-90 606 491.5)" fill="#D9D9D9"/>
<ellipse cx="163.5" cy="398" rx="11.5" ry="12" fill="#D9D9D9"/>
<ellipse cx="606" cy="444" rx="11.5" ry="12" transform="rotate(-90 606 444)" fill="#D9D9D9"/>
<ellipse cx="210.5" cy="398" rx="11.5" ry="12" fill="#D9D9D9"/>
<ellipse cx="606" cy="397" rx="11.5" ry="12" transform="rotate(-90 606 397)" fill="#D9D9D9"/>
<circle cx="258" cy="398" r="12" fill="#D9D9D9"/>
<circle cx="606" cy="349.5" r="12" transform="rotate(-90 606 349.5)" fill="#D9D9D9"/>
<circle cx="305" cy="398" r="12" fill="#D9D9D9"/>
<circle cx="606" cy="302.5" r="12" transform="rotate(-90 606 302.5)" fill="#D9D9D9"/>
<ellipse cx="116" cy="432.5" rx="12" ry="11.5" fill="#D9D9D9"/>
<ellipse cx="640.5" cy="491.5" rx="12" ry="11.5" transform="rotate(-90 640.5 491.5)" fill="#D9D9D9"/>
<circle cx="163.5" cy="432.5" r="11.5" fill="#D9D9D9"/>
<circle cx="640.5" cy="444" r="11.5" transform="rotate(-90 640.5 444)" fill="#D9D9D9"/>
<circle cx="210.5" cy="432.5" r="11.5" fill="#D9D9D9"/>
<circle cx="640.5" cy="397" r="11.5" transform="rotate(-90 640.5 397)" fill="#D9D9D9"/>
<ellipse cx="258" cy="432.5" rx="12" ry="11.5" fill="#D9D9D9"/>
<ellipse cx="640.5" cy="349.5" rx="12" ry="11.5" transform="rotate(-90 640.5 349.5)" fill="#D9D9D9"/>
<ellipse cx="305" cy="432.5" rx="12" ry="11.5" fill="#D9D9D9"/>
<ellipse cx="640.5" cy="302.5" rx="12" ry="11.5" transform="rotate(-90 640.5 302.5)" fill="#D9D9D9"/>
<path d="M210 303L207.113 308L212.887 308L210 303ZM210 398L210.5 398L210.5 307.5L210 307.5L209.5 307.5L209.5 398L210 398Z" fill="black"/>
<path d="M606 254L603.113 259L608.887 259L606 254ZM606 398L606.5 398L606.5 258.5L606 258.5L605.5 258.5L605.5 398L606 398Z" fill="black"/>
<path d="M360 398L355 395.113V400.887L360 398ZM210 398V398.5H355.5V398V397.5H210V398Z" fill="black"/>
<path d="M695 398L690 395.113V400.887L695 398ZM606 398V398.5H690.5V398V397.5H606V398Z" fill="black"/>
<circle cx="280" cy="131" r="15" fill="#D9D9D9"/>
<circle cx="280" cy="176" r="15" fill="#D9D9D9"/>
<circle cx="280" cy="86" r="15" fill="#D9D9D9"/>
<circle cx="340" cy="131" r="15" fill="#D9D9D9"/>
<circle cx="340" cy="176" r="15" fill="#D9D9D9"/>
<circle cx="340" cy="86" r="15" fill="#D9D9D9"/>
<circle cx="400" cy="131" r="15" fill="#D9D9D9"/>
<circle cx="400" cy="176" r="15" fill="#D9D9D9"/>
<circle cx="400" cy="86" r="15" fill="#D9D9D9"/>
<circle cx="460" cy="131" r="15" fill="#D9D9D9"/>
<circle cx="460" cy="176" r="15" fill="#D9D9D9"/>
<circle cx="460" cy="86" r="15" fill="#D9D9D9"/>
<circle cx="520" cy="131" r="15" fill="#D9D9D9"/>
<circle cx="520" cy="176" r="15" fill="#D9D9D9"/>
<circle cx="520" cy="86" r="15" fill="#D9D9D9"/>
</svg>
