<svg width="800" height="580" viewBox="0 0 800 580" fill="none" xmlns="http://www.w3.org/2000/svg">
<rect width="800" height="580" fill="white"/>
<rect x="250.5" y="60.5" width="299" height="139" stroke="black"/>
<path d="M346.289 222.152H348.773V222.984H347.238V232.547H348.773V233.391H346.289V222.152ZM353.039 222.516H355.922C356.562 222.516 357.1 222.633 357.533 222.867C357.967 223.102 358.289 223.422 358.5 223.828C358.711 224.23 358.816 224.691 358.816 225.211C358.816 225.727 358.711 226.189 358.5 226.6C358.289 227.006 357.967 227.328 357.533 227.566C357.104 227.801 356.57 227.918 355.934 227.918H354.094V231H353.039V222.516ZM355.887 226.98C356.527 226.98 357.002 226.82 357.311 226.5C357.619 226.176 357.773 225.746 357.773 225.211C357.773 224.672 357.619 224.244 357.311 223.928C357.002 223.611 356.523 223.453 355.875 223.453H354.094V226.98H355.887ZM361.172 231H360.164V222.516H361.172V231ZM366.797 224.637H367.793V231H366.797V229.922H366.727C366.562 230.27 366.32 230.551 366 230.766C365.684 230.977 365.297 231.082 364.84 231.082C364.43 231.082 364.07 230.994 363.762 230.818C363.453 230.639 363.211 230.369 363.035 230.01C362.863 229.65 362.777 229.207 362.777 228.68V224.637H363.785V228.609C363.785 228.91 363.844 229.174 363.961 229.4C364.078 229.627 364.24 229.803 364.447 229.928C364.658 230.049 364.898 230.109 365.168 230.109C365.422 230.109 365.674 230.045 365.924 229.916C366.178 229.787 366.387 229.594 366.551 229.336C366.715 229.074 366.797 228.758 366.797 228.387V224.637ZM371.988 233.52C371.477 233.52 371.023 233.447 370.629 233.303C370.238 233.158 369.928 232.947 369.697 232.67C369.467 232.393 369.332 232.059 369.293 231.668H370.348C370.418 231.988 370.594 232.23 370.875 232.395C371.16 232.559 371.531 232.641 371.988 232.641C372.551 232.641 372.984 232.516 373.289 232.266C373.594 232.016 373.746 231.633 373.746 231.117V229.828H373.664C373.551 230.02 373.432 230.188 373.307 230.332C373.182 230.477 372.994 230.609 372.744 230.73C372.498 230.848 372.188 230.906 371.812 230.906C371.293 230.906 370.828 230.779 370.418 230.525C370.008 230.271 369.686 229.906 369.451 229.43C369.221 228.949 369.105 228.383 369.105 227.73C369.105 227.09 369.221 226.529 369.451 226.049C369.682 225.568 370.002 225.199 370.412 224.941C370.822 224.684 371.293 224.555 371.824 224.555C372.195 224.555 372.504 224.615 372.75 224.736C373 224.857 373.178 224.982 373.283 225.111C373.393 225.236 373.527 225.414 373.688 225.645H373.77V224.637H374.754V231.176C374.754 231.703 374.633 232.141 374.391 232.488C374.152 232.84 373.826 233.1 373.412 233.268C372.998 233.436 372.523 233.52 371.988 233.52ZM371.953 230.004C372.531 230.004 372.979 229.809 373.295 229.418C373.611 229.023 373.77 228.473 373.77 227.766C373.77 227.309 373.699 226.906 373.559 226.559C373.418 226.211 373.211 225.941 372.938 225.75C372.668 225.555 372.34 225.457 371.953 225.457C371.559 225.457 371.225 225.559 370.951 225.762C370.678 225.965 370.471 226.242 370.33 226.594C370.193 226.941 370.125 227.332 370.125 227.766C370.125 228.211 370.193 228.602 370.33 228.938C370.471 229.273 370.678 229.535 370.951 229.723C371.225 229.91 371.559 230.004 371.953 230.004ZM380.555 231H379.5V222.516H380.555V231ZM383.309 231H382.301V224.637H383.273V225.633H383.355C383.516 225.293 383.748 225.029 384.053 224.842C384.361 224.65 384.75 224.555 385.219 224.555C385.656 224.555 386.035 224.645 386.355 224.824C386.676 225 386.924 225.268 387.1 225.627C387.275 225.986 387.363 226.43 387.363 226.957V231H386.355V227.027C386.355 226.535 386.229 226.15 385.975 225.873C385.721 225.596 385.367 225.457 384.914 225.457C384.602 225.457 384.324 225.525 384.082 225.662C383.84 225.795 383.65 225.992 383.514 226.254C383.377 226.512 383.309 226.82 383.309 227.18V231ZM393.92 221.652H397.316V222.564H393.92V221.652ZM396.86 221.652H397.772C397.772 222.004 397.788 222.42 397.82 222.9C397.852 223.38 397.92 223.896 398.024 224.448C398.128 224.992 398.288 225.56 398.504 226.152C398.72 226.744 399.012 227.336 399.38 227.928C399.748 228.512 400.208 229.08 400.76 229.632C401.32 230.184 401.996 230.692 402.788 231.156C402.724 231.212 402.64 231.284 402.536 231.372C402.44 231.468 402.348 231.564 402.26 231.66C402.18 231.764 402.112 231.852 402.056 231.924C401.256 231.436 400.568 230.9 399.992 230.316C399.424 229.724 398.948 229.108 398.564 228.468C398.188 227.828 397.884 227.188 397.652 226.548C397.428 225.9 397.256 225.276 397.136 224.676C397.024 224.068 396.948 223.504 396.908 222.984C396.876 222.464 396.86 222.02 396.86 221.652ZM396.512 224.004L397.532 224.184C397.244 225.4 396.868 226.496 396.404 227.472C395.948 228.448 395.392 229.308 394.736 230.052C394.088 230.788 393.32 231.416 392.432 231.936C392.384 231.872 392.308 231.796 392.204 231.708C392.108 231.62 392.004 231.528 391.892 231.432C391.788 231.344 391.696 231.272 391.616 231.216C392.952 230.512 394.012 229.56 394.796 228.36C395.58 227.152 396.152 225.7 396.512 224.004ZM404.18 223.536H413.492V224.46H404.18V223.536ZM413.144 223.536H414.068C414.068 223.536 414.068 223.568 414.068 223.632C414.068 223.696 414.064 223.764 414.056 223.836C414.056 223.908 414.052 223.968 414.044 224.016C413.98 225.256 413.912 226.312 413.84 227.184C413.776 228.056 413.7 228.776 413.612 229.344C413.532 229.904 413.44 230.348 413.336 230.676C413.24 230.996 413.124 231.228 412.988 231.372C412.844 231.548 412.692 231.668 412.532 231.732C412.38 231.796 412.188 231.84 411.956 231.864C411.756 231.88 411.476 231.884 411.116 231.876C410.764 231.868 410.404 231.856 410.036 231.84C410.028 231.704 409.996 231.548 409.94 231.372C409.892 231.196 409.82 231.044 409.724 230.916C410.14 230.948 410.52 230.972 410.864 230.988C411.216 230.996 411.468 231 411.62 231C411.748 231 411.852 230.988 411.932 230.964C412.02 230.94 412.1 230.888 412.172 230.808C412.284 230.704 412.384 230.5 412.472 230.196C412.568 229.884 412.652 229.452 412.724 228.9C412.804 228.34 412.876 227.636 412.94 226.788C413.012 225.94 413.08 224.92 413.144 223.728V223.536ZM408.104 220.944H409.04V223.02C409.04 223.572 409.016 224.156 408.968 224.772C408.92 225.38 408.816 226.004 408.656 226.644C408.496 227.276 408.252 227.908 407.924 228.54C407.596 229.172 407.156 229.784 406.604 230.376C406.052 230.96 405.356 231.504 404.516 232.008C404.468 231.928 404.404 231.844 404.324 231.756C404.244 231.668 404.16 231.58 404.072 231.492C403.984 231.412 403.9 231.348 403.82 231.3C404.62 230.82 405.28 230.308 405.8 229.764C406.328 229.22 406.744 228.66 407.048 228.084C407.36 227.5 407.588 226.916 407.732 226.332C407.884 225.748 407.984 225.176 408.032 224.616C408.08 224.056 408.104 223.524 408.104 223.02V220.944ZM421.568 223.524H422.444V231.24H421.568V223.524ZM418.244 228.264H425.876V229.068H418.244V228.264ZM417.464 230.856H426.62V231.648H417.464V230.856ZM419.408 223.728L420.248 223.8C420.112 224.68 419.88 225.452 419.552 226.116C419.232 226.78 418.804 227.332 418.268 227.772C418.228 227.716 418.164 227.656 418.076 227.592C417.996 227.528 417.912 227.464 417.824 227.4C417.736 227.328 417.66 227.272 417.596 227.232C418.116 226.856 418.52 226.368 418.808 225.768C419.096 225.168 419.296 224.488 419.408 223.728ZM419.108 225.624L419.636 225.108C419.836 225.276 420.048 225.468 420.272 225.684C420.496 225.892 420.704 226.1 420.896 226.308C421.096 226.508 421.256 226.684 421.376 226.836L420.836 227.436C420.716 227.268 420.56 227.08 420.368 226.872C420.176 226.664 419.968 226.448 419.744 226.224C419.528 226 419.316 225.8 419.108 225.624ZM424.244 223.728L425.06 223.824C424.924 224.656 424.688 225.392 424.352 226.032C424.016 226.664 423.584 227.192 423.056 227.616C423.016 227.56 422.956 227.5 422.876 227.436C422.796 227.364 422.712 227.292 422.624 227.22C422.544 227.148 422.472 227.096 422.408 227.064C422.912 226.696 423.312 226.232 423.608 225.672C423.912 225.104 424.124 224.456 424.244 223.728ZM423.848 225.6L424.4 225.072C424.656 225.272 424.924 225.496 425.204 225.744C425.484 225.984 425.752 226.22 426.008 226.452C426.264 226.684 426.472 226.892 426.632 227.076L426.068 227.688C425.916 227.504 425.712 227.292 425.456 227.052C425.208 226.804 424.94 226.552 424.652 226.296C424.372 226.04 424.104 225.808 423.848 225.6ZM421.076 220.92H422V222.768H421.076V220.92ZM417.008 222.192H426.572V223.032H417.008V222.192ZM416.528 222.192H417.416V225.528C417.416 225.992 417.4 226.5 417.368 227.052C417.344 227.596 417.292 228.156 417.212 228.732C417.14 229.308 417.028 229.872 416.876 230.424C416.724 230.968 416.524 231.468 416.276 231.924C416.22 231.868 416.144 231.808 416.048 231.744C415.96 231.68 415.868 231.616 415.772 231.552C415.676 231.496 415.588 231.452 415.508 231.42C415.748 230.988 415.936 230.524 416.072 230.028C416.208 229.524 416.308 229.008 416.372 228.48C416.436 227.952 416.476 227.436 416.492 226.932C416.516 226.428 416.528 225.96 416.528 225.528V222.192ZM432.452 226.632H438.092V227.328H432.452V226.632ZM431.756 221.448H438.704V222.192H431.756V221.448ZM431.696 228.192H438.704V228.948H431.696V228.192ZM436.46 229.668L437.096 229.248C437.304 229.432 437.516 229.632 437.732 229.848C437.948 230.064 438.148 230.28 438.332 230.496C438.524 230.704 438.676 230.896 438.788 231.072L438.116 231.552C438.012 231.384 437.868 231.192 437.684 230.976C437.5 230.752 437.3 230.528 437.084 230.304C436.868 230.072 436.66 229.86 436.46 229.668ZM432.896 223.74V225.216H437.612V223.74H432.896ZM432.14 223.032H438.404V225.912H432.14V223.032ZM434.756 228.528H435.596V231.072C435.596 231.272 435.572 231.432 435.524 231.552C435.476 231.68 435.372 231.776 435.212 231.84C435.052 231.896 434.848 231.932 434.6 231.948C434.352 231.964 434.04 231.972 433.664 231.972C433.648 231.86 433.612 231.732 433.556 231.588C433.5 231.452 433.444 231.328 433.388 231.216C433.684 231.224 433.936 231.228 434.144 231.228C434.352 231.236 434.492 231.236 434.564 231.228C434.644 231.22 434.696 231.204 434.72 231.18C434.744 231.156 434.756 231.116 434.756 231.06V228.528ZM433.088 229.212L433.772 229.596C433.54 229.956 433.248 230.308 432.896 230.652C432.544 230.996 432.184 231.292 431.816 231.54C431.752 231.46 431.664 231.368 431.552 231.264C431.448 231.16 431.348 231.072 431.252 231C431.604 230.768 431.948 230.488 432.284 230.16C432.62 229.832 432.888 229.516 433.088 229.212ZM433.916 221.868H434.648V223.464H433.916V221.868ZM433.976 223.344H434.636V225.624H433.976V223.344ZM435.752 221.868H436.496V223.464H435.752V221.868ZM435.752 223.344H436.424V225.624H435.752V223.344ZM427.808 223.524H431.672V224.364H427.808V223.524ZM429.488 220.92H430.316V231.948H429.488V220.92ZM429.464 224.028L430.028 224.208C429.932 224.688 429.812 225.184 429.668 225.696C429.532 226.208 429.376 226.712 429.2 227.208C429.024 227.704 428.836 228.164 428.636 228.588C428.436 229.012 428.228 229.376 428.012 229.68C427.972 229.56 427.904 229.428 427.808 229.284C427.712 229.132 427.628 229.004 427.556 228.9C427.756 228.628 427.952 228.304 428.144 227.928C428.336 227.552 428.516 227.144 428.684 226.704C428.852 226.264 429.004 225.816 429.14 225.36C429.276 224.896 429.384 224.452 429.464 224.028ZM430.256 225.12C430.328 225.2 430.432 225.344 430.568 225.552C430.712 225.752 430.864 225.972 431.024 226.212C431.192 226.452 431.344 226.676 431.48 226.884C431.616 227.084 431.708 227.228 431.756 227.316L431.264 227.988C431.192 227.836 431.092 227.644 430.964 227.412C430.844 227.18 430.712 226.94 430.568 226.692C430.424 226.444 430.288 226.216 430.16 226.008C430.032 225.792 429.928 225.624 429.848 225.504L430.256 225.12ZM442.4 228.708L443.324 229.044C443.076 229.372 442.788 229.7 442.46 230.028C442.14 230.356 441.804 230.664 441.452 230.952C441.108 231.24 440.776 231.492 440.456 231.708C440.4 231.644 440.32 231.572 440.216 231.492C440.12 231.42 440.02 231.344 439.916 231.264C439.812 231.192 439.72 231.136 439.64 231.096C439.984 230.896 440.324 230.668 440.66 230.412C440.996 230.156 441.316 229.884 441.62 229.596C441.924 229.3 442.184 229.004 442.4 228.708ZM446.888 229.152L447.608 228.66C447.952 228.9 448.312 229.168 448.688 229.464C449.072 229.76 449.432 230.056 449.768 230.352C450.112 230.64 450.392 230.896 450.608 231.12L449.828 231.696C449.62 231.464 449.352 231.2 449.024 230.904C448.704 230.6 448.352 230.296 447.968 229.992C447.592 229.688 447.232 229.408 446.888 229.152ZM440.744 224.388L441.356 223.824C441.724 224.032 442.104 224.264 442.496 224.52C442.888 224.776 443.256 225.04 443.6 225.312C443.952 225.576 444.24 225.824 444.464 226.056L443.804 226.692C443.596 226.468 443.32 226.22 442.976 225.948C442.64 225.668 442.276 225.392 441.884 225.12C441.492 224.84 441.112 224.596 440.744 224.388ZM447.008 225.924L447.74 225.456C448.092 225.728 448.456 226.036 448.832 226.38C449.208 226.724 449.56 227.068 449.888 227.412C450.224 227.748 450.492 228.052 450.692 228.324L449.9 228.864C449.708 228.592 449.452 228.284 449.132 227.94C448.812 227.588 448.468 227.236 448.1 226.884C447.732 226.532 447.368 226.212 447.008 225.924ZM444.692 227.604H445.64V231.96H444.692V227.604ZM439.856 227.244C440.432 227.244 441.092 227.24 441.836 227.232C442.58 227.216 443.368 227.204 444.2 227.196C445.04 227.18 445.904 227.164 446.792 227.148C447.68 227.124 448.556 227.104 449.42 227.088L449.372 227.904C448.244 227.944 447.104 227.98 445.952 228.012C444.8 228.036 443.708 228.06 442.676 228.084C441.644 228.108 440.732 228.132 439.94 228.156L439.856 227.244ZM447.188 222.888L448.052 223.356C447.684 223.74 447.288 224.14 446.864 224.556C446.44 224.964 446 225.368 445.544 225.768C445.088 226.16 444.636 226.536 444.188 226.896C443.748 227.248 443.332 227.564 442.94 227.844L442.244 227.388C442.644 227.108 443.064 226.788 443.504 226.428C443.952 226.06 444.4 225.676 444.848 225.276C445.296 224.868 445.72 224.46 446.12 224.052C446.52 223.644 446.876 223.256 447.188 222.888ZM444.08 222.084L444.944 222.516C444.712 222.804 444.456 223.1 444.176 223.404C443.904 223.708 443.628 224 443.348 224.28C443.076 224.56 442.816 224.804 442.568 225.012L441.848 224.616C442.096 224.4 442.356 224.148 442.628 223.86C442.9 223.564 443.164 223.26 443.42 222.948C443.676 222.636 443.896 222.348 444.08 222.084ZM449.096 221.088L449.744 221.856C449.136 221.968 448.46 222.072 447.716 222.168C446.972 222.256 446.188 222.336 445.364 222.408C444.54 222.472 443.708 222.528 442.868 222.576C442.036 222.616 441.228 222.644 440.444 222.66C440.436 222.54 440.408 222.404 440.36 222.252C440.32 222.092 440.276 221.956 440.228 221.844C441.004 221.82 441.8 221.788 442.616 221.748C443.44 221.7 444.248 221.648 445.04 221.592C445.832 221.528 446.576 221.456 447.272 221.376C447.968 221.288 448.576 221.192 449.096 221.088ZM454.512 233.391V232.547H456.047V222.984H454.512V222.152H456.996V233.391H454.512Z" fill="black"/>
<path d="M137.289 540.152H139.773V540.984H138.238V550.547H139.773V551.391H137.289V540.152ZM149.828 543.188C149.75 542.809 149.594 542.484 149.359 542.215C149.129 541.941 148.848 541.734 148.516 541.594C148.188 541.453 147.836 541.383 147.461 541.383C146.941 541.383 146.475 541.514 146.061 541.775C145.65 542.037 145.326 542.422 145.088 542.93C144.85 543.438 144.73 544.047 144.73 544.758C144.73 545.469 144.85 546.078 145.088 546.586C145.326 547.094 145.65 547.479 146.061 547.74C146.475 548.002 146.941 548.133 147.461 548.133C147.836 548.133 148.188 548.064 148.516 547.928C148.844 547.787 149.123 547.582 149.354 547.312C149.588 547.039 149.746 546.715 149.828 546.34H150.883C150.781 546.906 150.57 547.4 150.25 547.822C149.93 548.24 149.527 548.561 149.043 548.783C148.562 549.006 148.035 549.117 147.461 549.117C146.734 549.117 146.088 548.939 145.521 548.584C144.955 548.229 144.512 547.723 144.191 547.066C143.871 546.406 143.711 545.637 143.711 544.758C143.711 543.879 143.871 543.111 144.191 542.455C144.512 541.795 144.955 541.287 145.521 540.932C146.088 540.576 146.734 540.398 147.461 540.398C148.031 540.398 148.557 540.51 149.037 540.732C149.521 540.955 149.924 541.277 150.244 541.699C150.568 542.117 150.781 542.613 150.883 543.188H149.828ZM152.23 542.637H153.238V549H152.23V542.637ZM152.734 541.582C152.539 541.582 152.373 541.518 152.236 541.389C152.1 541.26 152.031 541.102 152.031 540.914C152.031 540.727 152.1 540.568 152.236 540.439C152.373 540.311 152.539 540.246 152.734 540.246C152.93 540.246 153.098 540.311 153.238 540.439C153.379 540.568 153.449 540.727 153.449 540.914C153.449 541.102 153.379 541.26 153.238 541.389C153.098 541.518 152.93 541.582 152.734 541.582ZM157.727 549H156.684L154.34 542.637H155.441L157.176 547.688H157.246L158.98 542.637H160.082L157.727 549ZM161.195 542.637H162.203V549H161.195V542.637ZM161.699 541.582C161.504 541.582 161.338 541.518 161.201 541.389C161.064 541.26 160.996 541.102 160.996 540.914C160.996 540.727 161.064 540.568 161.201 540.439C161.338 540.311 161.504 540.246 161.699 540.246C161.895 540.246 162.062 540.311 162.203 540.439C162.344 540.568 162.414 540.727 162.414 540.914C162.414 541.102 162.344 541.26 162.203 541.389C162.062 541.518 161.895 541.582 161.699 541.582ZM164.816 549H163.809V540.516H164.816V549ZM176.301 549H175.293L170.699 542.391H170.617V549H169.562V540.516H170.582L175.176 547.137H175.258V540.516H176.301V549ZM180.871 544.02H180.941L183.109 540.516H184.352L181.691 544.758L184.352 549H183.109L180.941 545.566H180.871L178.703 549H177.461L180.191 544.758L177.461 540.516H178.715L180.871 544.02ZM193.982 541.524H194.858V549.24H193.982V541.524ZM190.658 546.264H198.29V547.068H190.658V546.264ZM189.878 548.856H199.034V549.648H189.878V548.856ZM191.822 541.728L192.662 541.8C192.526 542.68 192.294 543.452 191.966 544.116C191.646 544.78 191.218 545.332 190.682 545.772C190.642 545.716 190.578 545.656 190.49 545.592C190.41 545.528 190.326 545.464 190.238 545.4C190.15 545.328 190.074 545.272 190.01 545.232C190.53 544.856 190.934 544.368 191.222 543.768C191.51 543.168 191.71 542.488 191.822 541.728ZM191.522 543.624L192.05 543.108C192.25 543.276 192.462 543.468 192.686 543.684C192.91 543.892 193.118 544.1 193.31 544.308C193.51 544.508 193.67 544.684 193.79 544.836L193.25 545.436C193.13 545.268 192.974 545.08 192.782 544.872C192.59 544.664 192.382 544.448 192.158 544.224C191.942 544 191.73 543.8 191.522 543.624ZM196.658 541.728L197.474 541.824C197.338 542.656 197.102 543.392 196.766 544.032C196.43 544.664 195.998 545.192 195.47 545.616C195.43 545.56 195.37 545.5 195.29 545.436C195.21 545.364 195.126 545.292 195.038 545.22C194.958 545.148 194.886 545.096 194.822 545.064C195.326 544.696 195.726 544.232 196.022 543.672C196.326 543.104 196.538 542.456 196.658 541.728ZM196.262 543.6L196.814 543.072C197.07 543.272 197.338 543.496 197.618 543.744C197.898 543.984 198.166 544.22 198.422 544.452C198.678 544.684 198.886 544.892 199.046 545.076L198.482 545.688C198.33 545.504 198.126 545.292 197.87 545.052C197.622 544.804 197.354 544.552 197.066 544.296C196.786 544.04 196.518 543.808 196.262 543.6ZM193.49 538.92H194.414V540.768H193.49V538.92ZM189.422 540.192H198.986V541.032H189.422V540.192ZM188.942 540.192H189.83V543.528C189.83 543.992 189.814 544.5 189.782 545.052C189.758 545.596 189.706 546.156 189.626 546.732C189.554 547.308 189.442 547.872 189.29 548.424C189.138 548.968 188.938 549.468 188.69 549.924C188.634 549.868 188.558 549.808 188.462 549.744C188.374 549.68 188.282 549.616 188.186 549.552C188.09 549.496 188.002 549.452 187.922 549.42C188.162 548.988 188.35 548.524 188.486 548.028C188.622 547.524 188.722 547.008 188.786 546.48C188.85 545.952 188.89 545.436 188.906 544.932C188.93 544.428 188.942 543.96 188.942 543.528V540.192ZM204.866 544.632H210.506V545.328H204.866V544.632ZM204.17 539.448H211.118V540.192H204.17V539.448ZM204.11 546.192H211.118V546.948H204.11V546.192ZM208.874 547.668L209.51 547.248C209.718 547.432 209.93 547.632 210.146 547.848C210.362 548.064 210.562 548.28 210.746 548.496C210.938 548.704 211.09 548.896 211.202 549.072L210.53 549.552C210.426 549.384 210.282 549.192 210.098 548.976C209.914 548.752 209.714 548.528 209.498 548.304C209.282 548.072 209.074 547.86 208.874 547.668ZM205.31 541.74V543.216H210.026V541.74H205.31ZM204.554 541.032H210.818V543.912H204.554V541.032ZM207.17 546.528H208.01V549.072C208.01 549.272 207.986 549.432 207.938 549.552C207.89 549.68 207.786 549.776 207.626 549.84C207.466 549.896 207.262 549.932 207.014 549.948C206.766 549.964 206.454 549.972 206.078 549.972C206.062 549.86 206.026 549.732 205.97 549.588C205.914 549.452 205.858 549.328 205.802 549.216C206.098 549.224 206.35 549.228 206.558 549.228C206.766 549.236 206.906 549.236 206.978 549.228C207.058 549.22 207.11 549.204 207.134 549.18C207.158 549.156 207.17 549.116 207.17 549.06V546.528ZM205.502 547.212L206.186 547.596C205.954 547.956 205.662 548.308 205.31 548.652C204.958 548.996 204.598 549.292 204.23 549.54C204.166 549.46 204.078 549.368 203.966 549.264C203.862 549.16 203.762 549.072 203.666 549C204.018 548.768 204.362 548.488 204.698 548.16C205.034 547.832 205.302 547.516 205.502 547.212ZM206.33 539.868H207.062V541.464H206.33V539.868ZM206.39 541.344H207.05V543.624H206.39V541.344ZM208.166 539.868H208.91V541.464H208.166V539.868ZM208.166 541.344H208.838V543.624H208.166V541.344ZM200.222 541.524H204.086V542.364H200.222V541.524ZM201.902 538.92H202.73V549.948H201.902V538.92ZM201.878 542.028L202.442 542.208C202.346 542.688 202.226 543.184 202.082 543.696C201.946 544.208 201.79 544.712 201.614 545.208C201.438 545.704 201.25 546.164 201.05 546.588C200.85 547.012 200.642 547.376 200.426 547.68C200.386 547.56 200.318 547.428 200.222 547.284C200.126 547.132 200.042 547.004 199.97 546.9C200.17 546.628 200.366 546.304 200.558 545.928C200.75 545.552 200.93 545.144 201.098 544.704C201.266 544.264 201.418 543.816 201.554 543.36C201.69 542.896 201.798 542.452 201.878 542.028ZM202.67 543.12C202.742 543.2 202.846 543.344 202.982 543.552C203.126 543.752 203.278 543.972 203.438 544.212C203.606 544.452 203.758 544.676 203.894 544.884C204.03 545.084 204.122 545.228 204.17 545.316L203.678 545.988C203.606 545.836 203.506 545.644 203.378 545.412C203.258 545.18 203.126 544.94 202.982 544.692C202.838 544.444 202.702 544.216 202.574 544.008C202.446 543.792 202.342 543.624 202.262 543.504L202.67 543.12ZM214.814 546.708L215.738 547.044C215.49 547.372 215.202 547.7 214.874 548.028C214.554 548.356 214.218 548.664 213.866 548.952C213.522 549.24 213.19 549.492 212.87 549.708C212.814 549.644 212.734 549.572 212.63 549.492C212.534 549.42 212.434 549.344 212.33 549.264C212.226 549.192 212.134 549.136 212.054 549.096C212.398 548.896 212.738 548.668 213.074 548.412C213.41 548.156 213.73 547.884 214.034 547.596C214.338 547.3 214.598 547.004 214.814 546.708ZM219.302 547.152L220.022 546.66C220.366 546.9 220.726 547.168 221.102 547.464C221.486 547.76 221.846 548.056 222.182 548.352C222.526 548.64 222.806 548.896 223.022 549.12L222.242 549.696C222.034 549.464 221.766 549.2 221.438 548.904C221.118 548.6 220.766 548.296 220.382 547.992C220.006 547.688 219.646 547.408 219.302 547.152ZM213.158 542.388L213.77 541.824C214.138 542.032 214.518 542.264 214.91 542.52C215.302 542.776 215.67 543.04 216.014 543.312C216.366 543.576 216.654 543.824 216.878 544.056L216.218 544.692C216.01 544.468 215.734 544.22 215.39 543.948C215.054 543.668 214.69 543.392 214.298 543.12C213.906 542.84 213.526 542.596 213.158 542.388ZM219.422 543.924L220.154 543.456C220.506 543.728 220.87 544.036 221.246 544.38C221.622 544.724 221.974 545.068 222.302 545.412C222.638 545.748 222.906 546.052 223.106 546.324L222.314 546.864C222.122 546.592 221.866 546.284 221.546 545.94C221.226 545.588 220.882 545.236 220.514 544.884C220.146 544.532 219.782 544.212 219.422 543.924ZM217.106 545.604H218.054V549.96H217.106V545.604ZM212.27 545.244C212.846 545.244 213.506 545.24 214.25 545.232C214.994 545.216 215.782 545.204 216.614 545.196C217.454 545.18 218.318 545.164 219.206 545.148C220.094 545.124 220.97 545.104 221.834 545.088L221.786 545.904C220.658 545.944 219.518 545.98 218.366 546.012C217.214 546.036 216.122 546.06 215.09 546.084C214.058 546.108 213.146 546.132 212.354 546.156L212.27 545.244ZM219.602 540.888L220.466 541.356C220.098 541.74 219.702 542.14 219.278 542.556C218.854 542.964 218.414 543.368 217.958 543.768C217.502 544.16 217.05 544.536 216.602 544.896C216.162 545.248 215.746 545.564 215.354 545.844L214.658 545.388C215.058 545.108 215.478 544.788 215.918 544.428C216.366 544.06 216.814 543.676 217.262 543.276C217.71 542.868 218.134 542.46 218.534 542.052C218.934 541.644 219.29 541.256 219.602 540.888ZM216.494 540.084L217.358 540.516C217.126 540.804 216.87 541.1 216.59 541.404C216.318 541.708 216.042 542 215.762 542.28C215.49 542.56 215.23 542.804 214.982 543.012L214.262 542.616C214.51 542.4 214.77 542.148 215.042 541.86C215.314 541.564 215.578 541.26 215.834 540.948C216.09 540.636 216.31 540.348 216.494 540.084ZM221.51 539.088L222.158 539.856C221.55 539.968 220.874 540.072 220.13 540.168C219.386 540.256 218.602 540.336 217.778 540.408C216.954 540.472 216.122 540.528 215.282 540.576C214.45 540.616 213.642 540.644 212.858 540.66C212.85 540.54 212.822 540.404 212.774 540.252C212.734 540.092 212.69 539.956 212.642 539.844C213.418 539.82 214.214 539.788 215.03 539.748C215.854 539.7 216.662 539.648 217.454 539.592C218.246 539.528 218.99 539.456 219.686 539.376C220.382 539.288 220.99 539.192 221.51 539.088ZM231.062 545.227H227.348V544.301H231.062V545.227ZM236.793 548.496C237.824 548.402 238.779 548.156 239.658 547.758C240.541 547.355 241.303 546.834 241.943 546.193C240.818 545.287 239.699 544.48 238.586 543.773L239.09 543.082C240.254 543.816 241.396 544.639 242.518 545.549C242.936 545.014 243.264 544.432 243.502 543.803C243.744 543.174 243.887 542.512 243.93 541.816H239.025C238.635 542.406 238.178 542.969 237.654 543.504C237.131 544.035 236.555 544.523 235.926 544.969L235.363 544.348C236.234 543.715 237.008 542.979 237.684 542.139C238.363 541.295 238.867 540.445 239.195 539.59L240.062 539.754C239.926 540.152 239.738 540.574 239.5 541.02H244.832V541.395C244.832 542.777 244.5 544.045 243.836 545.197C243.172 546.346 242.246 547.281 241.059 548.004C239.875 548.723 238.531 549.152 237.027 549.293L236.793 548.496ZM246.918 544.547C247.953 544.406 249.037 544.107 250.17 543.65C251.307 543.193 252.369 542.633 253.357 541.969C254.35 541.305 255.16 540.605 255.789 539.871L256.422 540.434C255.977 540.949 255.441 541.453 254.816 541.945C254.191 542.438 253.508 542.895 252.766 543.316V549.551H251.852V543.803C251.051 544.201 250.24 544.535 249.42 544.805C248.604 545.074 247.816 545.262 247.059 545.367L246.918 544.547ZM258.766 548.344C261.051 548.277 262.797 547.688 264.004 546.574C265.215 545.461 265.861 543.848 265.943 541.734H258.25V540.902H265.609C265.594 540.828 265.586 540.742 265.586 540.645C265.586 540.379 265.65 540.135 265.779 539.912C265.908 539.686 266.084 539.508 266.307 539.379C266.529 539.246 266.773 539.18 267.039 539.18C267.309 539.18 267.555 539.246 267.777 539.379C268 539.508 268.176 539.686 268.305 539.912C268.438 540.135 268.504 540.379 268.504 540.645C268.504 540.91 268.438 541.156 268.305 541.383C268.176 541.605 268 541.783 267.777 541.916C267.555 542.045 267.309 542.109 267.039 542.109C266.961 542.109 266.887 542.104 266.816 542.092C266.723 543.58 266.357 544.844 265.721 545.883C265.088 546.922 264.197 547.719 263.049 548.273C261.904 548.828 260.52 549.125 258.895 549.164L258.766 548.344ZM267.039 541.395C267.176 541.395 267.301 541.361 267.414 541.295C267.527 541.229 267.617 541.139 267.684 541.025C267.754 540.908 267.789 540.781 267.789 540.645C267.789 540.516 267.754 540.395 267.684 540.281C267.617 540.168 267.525 540.078 267.408 540.012C267.295 539.941 267.172 539.906 267.039 539.906C266.906 539.906 266.781 539.941 266.664 540.012C266.551 540.078 266.459 540.168 266.389 540.281C266.322 540.395 266.289 540.516 266.289 540.645C266.289 540.801 266.33 540.941 266.412 541.066C266.498 541.191 266.609 541.281 266.746 541.336H266.84V541.365C266.91 541.385 266.977 541.395 267.039 541.395ZM275.371 549H274.305V541.617H274.258L272.195 542.988V541.922L274.305 540.516H275.371V549ZM280.164 551.391V550.547H281.699V540.984H280.164V540.152H282.648V551.391H280.164Z" fill="black"/>
<path d="M532.289 540.152H534.773V540.984H533.238V550.547H534.773V551.391H532.289V540.152ZM544.828 543.188C544.75 542.809 544.594 542.484 544.359 542.215C544.129 541.941 543.848 541.734 543.516 541.594C543.188 541.453 542.836 541.383 542.461 541.383C541.941 541.383 541.475 541.514 541.061 541.775C540.65 542.037 540.326 542.422 540.088 542.93C539.85 543.438 539.73 544.047 539.73 544.758C539.73 545.469 539.85 546.078 540.088 546.586C540.326 547.094 540.65 547.479 541.061 547.74C541.475 548.002 541.941 548.133 542.461 548.133C542.836 548.133 543.188 548.064 543.516 547.928C543.844 547.787 544.123 547.582 544.354 547.312C544.588 547.039 544.746 546.715 544.828 546.34H545.883C545.781 546.906 545.57 547.4 545.25 547.822C544.93 548.24 544.527 548.561 544.043 548.783C543.562 549.006 543.035 549.117 542.461 549.117C541.734 549.117 541.088 548.939 540.521 548.584C539.955 548.229 539.512 547.723 539.191 547.066C538.871 546.406 538.711 545.637 538.711 544.758C538.711 543.879 538.871 543.111 539.191 542.455C539.512 541.795 539.955 541.287 540.521 540.932C541.088 540.576 541.734 540.398 542.461 540.398C543.031 540.398 543.557 540.51 544.037 540.732C544.521 540.955 544.924 541.277 545.244 541.699C545.568 542.117 545.781 542.613 545.883 543.188H544.828ZM547.23 542.637H548.238V549H547.23V542.637ZM547.734 541.582C547.539 541.582 547.373 541.518 547.236 541.389C547.1 541.26 547.031 541.102 547.031 540.914C547.031 540.727 547.1 540.568 547.236 540.439C547.373 540.311 547.539 540.246 547.734 540.246C547.93 540.246 548.098 540.311 548.238 540.439C548.379 540.568 548.449 540.727 548.449 540.914C548.449 541.102 548.379 541.26 548.238 541.389C548.098 541.518 547.93 541.582 547.734 541.582ZM552.727 549H551.684L549.34 542.637H550.441L552.176 547.688H552.246L553.98 542.637H555.082L552.727 549ZM556.195 542.637H557.203V549H556.195V542.637ZM556.699 541.582C556.504 541.582 556.338 541.518 556.201 541.389C556.064 541.26 555.996 541.102 555.996 540.914C555.996 540.727 556.064 540.568 556.201 540.439C556.338 540.311 556.504 540.246 556.699 540.246C556.895 540.246 557.062 540.311 557.203 540.439C557.344 540.568 557.414 540.727 557.414 540.914C557.414 541.102 557.344 541.26 557.203 541.389C557.062 541.518 556.895 541.582 556.699 541.582ZM559.816 549H558.809V540.516H559.816V549ZM571.301 549H570.293L565.699 542.391H565.617V549H564.562V540.516H565.582L570.176 547.137H570.258V540.516H571.301V549ZM575.871 544.02H575.941L578.109 540.516H579.352L576.691 544.758L579.352 549H578.109L575.941 545.566H575.871L573.703 549H572.461L575.191 544.758L572.461 540.516H573.715L575.871 544.02ZM588.982 541.524H589.858V549.24H588.982V541.524ZM585.658 546.264H593.29V547.068H585.658V546.264ZM584.878 548.856H594.034V549.648H584.878V548.856ZM586.822 541.728L587.662 541.8C587.526 542.68 587.294 543.452 586.966 544.116C586.646 544.78 586.218 545.332 585.682 545.772C585.642 545.716 585.578 545.656 585.49 545.592C585.41 545.528 585.326 545.464 585.238 545.4C585.15 545.328 585.074 545.272 585.01 545.232C585.53 544.856 585.934 544.368 586.222 543.768C586.51 543.168 586.71 542.488 586.822 541.728ZM586.522 543.624L587.05 543.108C587.25 543.276 587.462 543.468 587.686 543.684C587.91 543.892 588.118 544.1 588.31 544.308C588.51 544.508 588.67 544.684 588.79 544.836L588.25 545.436C588.13 545.268 587.974 545.08 587.782 544.872C587.59 544.664 587.382 544.448 587.158 544.224C586.942 544 586.73 543.8 586.522 543.624ZM591.658 541.728L592.474 541.824C592.338 542.656 592.102 543.392 591.766 544.032C591.43 544.664 590.998 545.192 590.47 545.616C590.43 545.56 590.37 545.5 590.29 545.436C590.21 545.364 590.126 545.292 590.038 545.22C589.958 545.148 589.886 545.096 589.822 545.064C590.326 544.696 590.726 544.232 591.022 543.672C591.326 543.104 591.538 542.456 591.658 541.728ZM591.262 543.6L591.814 543.072C592.07 543.272 592.338 543.496 592.618 543.744C592.898 543.984 593.166 544.22 593.422 544.452C593.678 544.684 593.886 544.892 594.046 545.076L593.482 545.688C593.33 545.504 593.126 545.292 592.87 545.052C592.622 544.804 592.354 544.552 592.066 544.296C591.786 544.04 591.518 543.808 591.262 543.6ZM588.49 538.92H589.414V540.768H588.49V538.92ZM584.422 540.192H593.986V541.032H584.422V540.192ZM583.942 540.192H584.83V543.528C584.83 543.992 584.814 544.5 584.782 545.052C584.758 545.596 584.706 546.156 584.626 546.732C584.554 547.308 584.442 547.872 584.29 548.424C584.138 548.968 583.938 549.468 583.69 549.924C583.634 549.868 583.558 549.808 583.462 549.744C583.374 549.68 583.282 549.616 583.186 549.552C583.09 549.496 583.002 549.452 582.922 549.42C583.162 548.988 583.35 548.524 583.486 548.028C583.622 547.524 583.722 547.008 583.786 546.48C583.85 545.952 583.89 545.436 583.906 544.932C583.93 544.428 583.942 543.96 583.942 543.528V540.192ZM599.866 544.632H605.506V545.328H599.866V544.632ZM599.17 539.448H606.118V540.192H599.17V539.448ZM599.11 546.192H606.118V546.948H599.11V546.192ZM603.874 547.668L604.51 547.248C604.718 547.432 604.93 547.632 605.146 547.848C605.362 548.064 605.562 548.28 605.746 548.496C605.938 548.704 606.09 548.896 606.202 549.072L605.53 549.552C605.426 549.384 605.282 549.192 605.098 548.976C604.914 548.752 604.714 548.528 604.498 548.304C604.282 548.072 604.074 547.86 603.874 547.668ZM600.31 541.74V543.216H605.026V541.74H600.31ZM599.554 541.032H605.818V543.912H599.554V541.032ZM602.17 546.528H603.01V549.072C603.01 549.272 602.986 549.432 602.938 549.552C602.89 549.68 602.786 549.776 602.626 549.84C602.466 549.896 602.262 549.932 602.014 549.948C601.766 549.964 601.454 549.972 601.078 549.972C601.062 549.86 601.026 549.732 600.97 549.588C600.914 549.452 600.858 549.328 600.802 549.216C601.098 549.224 601.35 549.228 601.558 549.228C601.766 549.236 601.906 549.236 601.978 549.228C602.058 549.22 602.11 549.204 602.134 549.18C602.158 549.156 602.17 549.116 602.17 549.06V546.528ZM600.502 547.212L601.186 547.596C600.954 547.956 600.662 548.308 600.31 548.652C599.958 548.996 599.598 549.292 599.23 549.54C599.166 549.46 599.078 549.368 598.966 549.264C598.862 549.16 598.762 549.072 598.666 549C599.018 548.768 599.362 548.488 599.698 548.16C600.034 547.832 600.302 547.516 600.502 547.212ZM601.33 539.868H602.062V541.464H601.33V539.868ZM601.39 541.344H602.05V543.624H601.39V541.344ZM603.166 539.868H603.91V541.464H603.166V539.868ZM603.166 541.344H603.838V543.624H603.166V541.344ZM595.222 541.524H599.086V542.364H595.222V541.524ZM596.902 538.92H597.73V549.948H596.902V538.92ZM596.878 542.028L597.442 542.208C597.346 542.688 597.226 543.184 597.082 543.696C596.946 544.208 596.79 544.712 596.614 545.208C596.438 545.704 596.25 546.164 596.05 546.588C595.85 547.012 595.642 547.376 595.426 547.68C595.386 547.56 595.318 547.428 595.222 547.284C595.126 547.132 595.042 547.004 594.97 546.9C595.17 546.628 595.366 546.304 595.558 545.928C595.75 545.552 595.93 545.144 596.098 544.704C596.266 544.264 596.418 543.816 596.554 543.36C596.69 542.896 596.798 542.452 596.878 542.028ZM597.67 543.12C597.742 543.2 597.846 543.344 597.982 543.552C598.126 543.752 598.278 543.972 598.438 544.212C598.606 544.452 598.758 544.676 598.894 544.884C599.03 545.084 599.122 545.228 599.17 545.316L598.678 545.988C598.606 545.836 598.506 545.644 598.378 545.412C598.258 545.18 598.126 544.94 597.982 544.692C597.838 544.444 597.702 544.216 597.574 544.008C597.446 543.792 597.342 543.624 597.262 543.504L597.67 543.12ZM609.814 546.708L610.738 547.044C610.49 547.372 610.202 547.7 609.874 548.028C609.554 548.356 609.218 548.664 608.866 548.952C608.522 549.24 608.19 549.492 607.87 549.708C607.814 549.644 607.734 549.572 607.63 549.492C607.534 549.42 607.434 549.344 607.33 549.264C607.226 549.192 607.134 549.136 607.054 549.096C607.398 548.896 607.738 548.668 608.074 548.412C608.41 548.156 608.73 547.884 609.034 547.596C609.338 547.3 609.598 547.004 609.814 546.708ZM614.302 547.152L615.022 546.66C615.366 546.9 615.726 547.168 616.102 547.464C616.486 547.76 616.846 548.056 617.182 548.352C617.526 548.64 617.806 548.896 618.022 549.12L617.242 549.696C617.034 549.464 616.766 549.2 616.438 548.904C616.118 548.6 615.766 548.296 615.382 547.992C615.006 547.688 614.646 547.408 614.302 547.152ZM608.158 542.388L608.77 541.824C609.138 542.032 609.518 542.264 609.91 542.52C610.302 542.776 610.67 543.04 611.014 543.312C611.366 543.576 611.654 543.824 611.878 544.056L611.218 544.692C611.01 544.468 610.734 544.22 610.39 543.948C610.054 543.668 609.69 543.392 609.298 543.12C608.906 542.84 608.526 542.596 608.158 542.388ZM614.422 543.924L615.154 543.456C615.506 543.728 615.87 544.036 616.246 544.38C616.622 544.724 616.974 545.068 617.302 545.412C617.638 545.748 617.906 546.052 618.106 546.324L617.314 546.864C617.122 546.592 616.866 546.284 616.546 545.94C616.226 545.588 615.882 545.236 615.514 544.884C615.146 544.532 614.782 544.212 614.422 543.924ZM612.106 545.604H613.054V549.96H612.106V545.604ZM607.27 545.244C607.846 545.244 608.506 545.24 609.25 545.232C609.994 545.216 610.782 545.204 611.614 545.196C612.454 545.18 613.318 545.164 614.206 545.148C615.094 545.124 615.97 545.104 616.834 545.088L616.786 545.904C615.658 545.944 614.518 545.98 613.366 546.012C612.214 546.036 611.122 546.06 610.09 546.084C609.058 546.108 608.146 546.132 607.354 546.156L607.27 545.244ZM614.602 540.888L615.466 541.356C615.098 541.74 614.702 542.14 614.278 542.556C613.854 542.964 613.414 543.368 612.958 543.768C612.502 544.16 612.05 544.536 611.602 544.896C611.162 545.248 610.746 545.564 610.354 545.844L609.658 545.388C610.058 545.108 610.478 544.788 610.918 544.428C611.366 544.06 611.814 543.676 612.262 543.276C612.71 542.868 613.134 542.46 613.534 542.052C613.934 541.644 614.29 541.256 614.602 540.888ZM611.494 540.084L612.358 540.516C612.126 540.804 611.87 541.1 611.59 541.404C611.318 541.708 611.042 542 610.762 542.28C610.49 542.56 610.23 542.804 609.982 543.012L609.262 542.616C609.51 542.4 609.77 542.148 610.042 541.86C610.314 541.564 610.578 541.26 610.834 540.948C611.09 540.636 611.31 540.348 611.494 540.084ZM616.51 539.088L617.158 539.856C616.55 539.968 615.874 540.072 615.13 540.168C614.386 540.256 613.602 540.336 612.778 540.408C611.954 540.472 611.122 540.528 610.282 540.576C609.45 540.616 608.642 540.644 607.858 540.66C607.85 540.54 607.822 540.404 607.774 540.252C607.734 540.092 607.69 539.956 607.642 539.844C608.418 539.82 609.214 539.788 610.03 539.748C610.854 539.7 611.662 539.648 612.454 539.592C613.246 539.528 613.99 539.456 614.686 539.376C615.382 539.288 615.99 539.192 616.51 539.088ZM626.062 545.227H622.348V544.301H626.062V545.227ZM631.793 548.496C632.824 548.402 633.779 548.156 634.658 547.758C635.541 547.355 636.303 546.834 636.943 546.193C635.818 545.287 634.699 544.48 633.586 543.773L634.09 543.082C635.254 543.816 636.396 544.639 637.518 545.549C637.936 545.014 638.264 544.432 638.502 543.803C638.744 543.174 638.887 542.512 638.93 541.816H634.025C633.635 542.406 633.178 542.969 632.654 543.504C632.131 544.035 631.555 544.523 630.926 544.969L630.363 544.348C631.234 543.715 632.008 542.979 632.684 542.139C633.363 541.295 633.867 540.445 634.195 539.59L635.062 539.754C634.926 540.152 634.738 540.574 634.5 541.02H639.832V541.395C639.832 542.777 639.5 544.045 638.836 545.197C638.172 546.346 637.246 547.281 636.059 548.004C634.875 548.723 633.531 549.152 632.027 549.293L631.793 548.496ZM641.918 544.547C642.953 544.406 644.037 544.107 645.17 543.65C646.307 543.193 647.369 542.633 648.357 541.969C649.35 541.305 650.16 540.605 650.789 539.871L651.422 540.434C650.977 540.949 650.441 541.453 649.816 541.945C649.191 542.438 648.508 542.895 647.766 543.316V549.551H646.852V543.803C646.051 544.201 645.24 544.535 644.42 544.805C643.604 545.074 642.816 545.262 642.059 545.367L641.918 544.547ZM653.766 548.344C656.051 548.277 657.797 547.688 659.004 546.574C660.215 545.461 660.861 543.848 660.943 541.734H653.25V540.902H660.609C660.594 540.828 660.586 540.742 660.586 540.645C660.586 540.379 660.65 540.135 660.779 539.912C660.908 539.686 661.084 539.508 661.307 539.379C661.529 539.246 661.773 539.18 662.039 539.18C662.309 539.18 662.555 539.246 662.777 539.379C663 539.508 663.176 539.686 663.305 539.912C663.438 540.135 663.504 540.379 663.504 540.645C663.504 540.91 663.438 541.156 663.305 541.383C663.176 541.605 663 541.783 662.777 541.916C662.555 542.045 662.309 542.109 662.039 542.109C661.961 542.109 661.887 542.104 661.816 542.092C661.723 543.58 661.357 544.844 660.721 545.883C660.088 546.922 659.197 547.719 658.049 548.273C656.904 548.828 655.52 549.125 653.895 549.164L653.766 548.344ZM662.039 541.395C662.176 541.395 662.301 541.361 662.414 541.295C662.527 541.229 662.617 541.139 662.684 541.025C662.754 540.908 662.789 540.781 662.789 540.645C662.789 540.516 662.754 540.395 662.684 540.281C662.617 540.168 662.525 540.078 662.408 540.012C662.295 539.941 662.172 539.906 662.039 539.906C661.906 539.906 661.781 539.941 661.664 540.012C661.551 540.078 661.459 540.168 661.389 540.281C661.322 540.395 661.289 540.516 661.289 540.645C661.289 540.801 661.33 540.941 661.412 541.066C661.498 541.191 661.609 541.281 661.746 541.336H661.84V541.365C661.91 541.385 661.977 541.395 662.039 541.395ZM667.359 548.227L670.254 545.18C670.637 544.777 670.928 544.453 671.127 544.207C671.33 543.957 671.482 543.717 671.584 543.486C671.689 543.252 671.742 543.008 671.742 542.754C671.742 542.473 671.668 542.223 671.52 542.004C671.371 541.785 671.168 541.615 670.91 541.494C670.656 541.373 670.371 541.312 670.055 541.312C669.723 541.312 669.432 541.379 669.182 541.512C668.932 541.645 668.738 541.832 668.602 542.074C668.469 542.316 668.402 542.594 668.402 542.906H667.406C667.402 542.414 667.516 541.979 667.746 541.6C667.98 541.221 668.303 540.926 668.713 540.715C669.123 540.504 669.582 540.398 670.09 540.398C670.594 540.398 671.045 540.502 671.443 540.709C671.846 540.916 672.16 541.199 672.387 541.559C672.613 541.918 672.727 542.316 672.727 542.754C672.727 543.078 672.668 543.389 672.551 543.686C672.434 543.979 672.236 544.305 671.959 544.664C671.686 545.02 671.293 545.461 670.781 545.988L668.836 547.992V548.062H672.879V549H667.371L667.359 548.227ZM676.945 551.391V550.547H678.48V540.984H676.945V540.152H679.43V551.391H676.945Z" fill="black"/>
<path d="M317 50L322 52.8868V47.1132L317 50ZM482 50V49.5L321.5 49.5V50V50.5L482 50.5V50Z" fill="black"/>
<path d="M389.3 30.1L389.84 29.73C390.1 29.93 390.363 30.16 390.63 30.42C390.897 30.6733 391.1 30.9 391.24 31.1L390.68 31.51C390.593 31.3767 390.473 31.23 390.32 31.07C390.167 30.9033 390 30.7367 389.82 30.57C389.647 30.3967 389.473 30.24 389.3 30.1ZM382.54 31.81H391.51V32.45H382.54V31.81ZM382.99 30.4H387.33V31H382.99V30.4ZM382.81 33.11H387.52V33.68H382.81V33.11ZM382.66 37.22H387.56V37.81H382.66V37.22ZM384.8 29.59H385.52V32.35H384.8V29.59ZM383.61 35.65V36.23H386.71V35.65H383.61ZM383.61 34.66V35.23H386.71V34.66H383.61ZM383.05 34.22H387.3V36.67H383.05V34.22ZM384.86 34.48H385.44V36.51H385.48V38.81H384.81V36.51H384.86V34.48ZM384.81 32.47H385.49V34.37H384.81V32.47ZM387.89 29.61H388.64C388.633 30.5633 388.657 31.4667 388.71 32.32C388.763 33.1733 388.843 33.95 388.95 34.65C389.063 35.35 389.197 35.9567 389.35 36.47C389.51 36.9767 389.693 37.37 389.9 37.65C390.107 37.9233 390.333 38.06 390.58 38.06C390.72 38.06 390.82 37.93 390.88 37.67C390.947 37.4033 390.993 36.9633 391.02 36.35C391.1 36.43 391.197 36.5067 391.31 36.58C391.43 36.6467 391.54 36.6967 391.64 36.73C391.6 37.2633 391.54 37.68 391.46 37.98C391.38 38.28 391.263 38.49 391.11 38.61C390.963 38.7367 390.767 38.8 390.52 38.8C390.187 38.8 389.89 38.6867 389.63 38.46C389.377 38.24 389.153 37.9267 388.96 37.52C388.773 37.1133 388.61 36.63 388.47 36.07C388.337 35.5033 388.227 34.88 388.14 34.2C388.06 33.5133 388 32.7867 387.96 32.02C387.92 31.2467 387.897 30.4433 387.89 29.61ZM390.39 32.99L391.06 33.21C390.813 33.9833 390.503 34.72 390.13 35.42C389.763 36.1133 389.333 36.75 388.84 37.33C388.347 37.9033 387.797 38.3933 387.19 38.8C387.13 38.7133 387.05 38.6167 386.95 38.51C386.85 38.4033 386.75 38.3133 386.65 38.24C387.243 37.8733 387.777 37.42 388.25 36.88C388.73 36.34 389.15 35.74 389.51 35.08C389.87 34.42 390.163 33.7233 390.39 32.99ZM395.51 32.47H401.51V33.17H395.51V32.47ZM399.79 32.8H400.52V37.85C400.52 38.0767 400.487 38.2467 400.42 38.36C400.36 38.48 400.247 38.57 400.08 38.63C399.907 38.6833 399.677 38.7167 399.39 38.73C399.103 38.7433 398.743 38.75 398.31 38.75C398.29 38.65 398.253 38.53 398.2 38.39C398.147 38.2567 398.093 38.14 398.04 38.04C398.267 38.0467 398.483 38.05 398.69 38.05C398.897 38.0567 399.073 38.06 399.22 38.06C399.373 38.06 399.48 38.06 399.54 38.06C399.633 38.0533 399.697 38.0333 399.73 38C399.77 37.9733 399.79 37.92 399.79 37.84V32.8ZM394.62 31.98L395.34 32.21C395.133 32.6433 394.893 33.07 394.62 33.49C394.347 33.9033 394.05 34.29 393.73 34.65C393.417 35.0033 393.097 35.3167 392.77 35.59C392.743 35.5367 392.7 35.47 392.64 35.39C392.58 35.3033 392.517 35.22 392.45 35.14C392.39 35.0533 392.333 34.9867 392.28 34.94C392.747 34.58 393.187 34.14 393.6 33.62C394.013 33.1 394.353 32.5533 394.62 31.98ZM395.99 34.1H398.81V36.93H395.99V36.3H398.12V34.73H395.99V34.1ZM395.63 34.1H396.33V37.53H395.63V34.1ZM392.62 30.4H401.44V31.09H392.62V30.4ZM394.89 29.6H395.62V32.01H394.89V29.6ZM398.36 29.6H399.11V32.01H398.36V29.6ZM393.76 33.99L394.49 33.27L394.5 33.28V38.79H393.76V33.99ZM402.53 31.33H411.48V32.05H402.53V31.33ZM405.8 33.69H409.79V34.41H405.8V33.69ZM409.52 33.69H410.3C410.3 33.69 410.297 33.7133 410.29 33.76C410.29 33.8067 410.287 33.86 410.28 33.92C410.28 33.9733 410.277 34.02 410.27 34.06C410.203 35.0133 410.133 35.79 410.06 36.39C409.987 36.9833 409.903 37.44 409.81 37.76C409.717 38.08 409.603 38.3067 409.47 38.44C409.357 38.56 409.233 38.6433 409.1 38.69C408.967 38.7367 408.803 38.7667 408.61 38.78C408.437 38.7933 408.197 38.7967 407.89 38.79C407.583 38.7833 407.263 38.77 406.93 38.75C406.923 38.6433 406.893 38.52 406.84 38.38C406.793 38.2467 406.733 38.1267 406.66 38.02C407.02 38.0467 407.36 38.0633 407.68 38.07C408 38.0833 408.223 38.09 408.35 38.09C408.463 38.09 408.557 38.0833 408.63 38.07C408.71 38.0567 408.777 38.0233 408.83 37.97C408.937 37.8767 409.03 37.68 409.11 37.38C409.19 37.0733 409.263 36.6333 409.33 36.06C409.397 35.48 409.46 34.7333 409.52 33.82V33.69ZM405.62 31.73H406.46C406.433 32.2633 406.39 32.8033 406.33 33.35C406.27 33.89 406.173 34.4267 406.04 34.96C405.913 35.4867 405.723 35.99 405.47 36.47C405.223 36.95 404.897 37.39 404.49 37.79C404.083 38.19 403.577 38.54 402.97 38.84C402.91 38.74 402.827 38.63 402.72 38.51C402.62 38.3967 402.52 38.3033 402.42 38.23C403.007 37.9633 403.49 37.6467 403.87 37.28C404.25 36.9067 404.553 36.5 404.78 36.06C405.007 35.6133 405.177 35.1467 405.29 34.66C405.403 34.1733 405.48 33.6833 405.52 33.19C405.567 32.69 405.6 32.2033 405.62 31.73ZM406.58 29.57H407.35V31.64H406.58V29.57ZM412.99 31.33H420.6V32.06H413.73V38.8H412.99V31.33ZM420.32 31.33H421.07V37.8C421.07 38.0467 421.037 38.2367 420.97 38.37C420.903 38.5033 420.78 38.6033 420.6 38.67C420.42 38.73 420.173 38.7667 419.86 38.78C419.547 38.7933 419.16 38.8 418.7 38.8C418.693 38.7267 418.673 38.6433 418.64 38.55C418.613 38.4633 418.583 38.37 418.55 38.27C418.517 38.1767 418.48 38.0933 418.44 38.02C418.68 38.0333 418.91 38.04 419.13 38.04C419.357 38.0467 419.55 38.0467 419.71 38.04C419.877 38.04 419.993 38.04 420.06 38.04C420.167 38.04 420.237 38.0233 420.27 37.99C420.303 37.95 420.32 37.8867 420.32 37.8V31.33ZM416.38 29.58L417.31 29.73C417.163 30.09 417 30.4567 416.82 30.83C416.64 31.2033 416.473 31.5233 416.32 31.79L415.61 31.61C415.703 31.4233 415.797 31.21 415.89 30.97C415.99 30.73 416.083 30.49 416.17 30.25C416.263 30.0033 416.333 29.78 416.38 29.58ZM415.04 33.39H415.73V37.42H415.04V33.39ZM415.36 33.39H418.96V36.7H415.36V36.02H418.26V34.06H415.36V33.39Z" fill="black"/>
<path d="M197.605 289.137C197.449 288.671 197.199 288.308 196.854 288.048C196.512 287.784 196.095 287.652 195.604 287.652C195.18 287.652 194.798 287.761 194.456 287.979C194.118 288.198 193.849 288.518 193.65 288.941C193.455 289.365 193.357 289.872 193.357 290.465C193.357 291.057 193.457 291.565 193.655 291.988C193.854 292.411 194.127 292.732 194.476 292.95C194.824 293.168 195.219 293.277 195.662 293.277C196.059 293.277 196.409 293.194 196.712 293.028C197.018 292.859 197.256 292.62 197.425 292.311C197.597 291.998 197.687 291.637 197.693 291.227H195.848V290.455H198.553V291.217C198.553 291.793 198.429 292.299 198.182 292.735C197.934 293.172 197.591 293.508 197.151 293.746C196.715 293.98 196.219 294.098 195.662 294.098C195.037 294.098 194.485 293.951 194.007 293.658C193.532 293.362 193.162 292.94 192.898 292.394C192.638 291.843 192.508 291.201 192.508 290.465C192.508 289.732 192.638 289.093 192.898 288.546C193.162 287.996 193.528 287.573 193.997 287.276C194.466 286.98 195.001 286.832 195.604 286.832C196.095 286.832 196.546 286.93 196.956 287.125C197.366 287.317 197.706 287.587 197.977 287.936C198.247 288.284 198.426 288.684 198.514 289.137H197.605ZM200.604 294H199.764V286.93H200.604V294ZM204.109 294.107C203.631 294.107 203.208 293.995 202.84 293.771C202.475 293.543 202.192 293.222 201.99 292.809C201.788 292.395 201.688 291.917 201.688 291.373C201.688 290.829 201.788 290.351 201.99 289.938C202.192 289.521 202.475 289.199 202.84 288.971C203.208 288.743 203.631 288.629 204.109 288.629C204.585 288.629 205.003 288.743 205.364 288.971C205.729 289.199 206.01 289.521 206.209 289.938C206.411 290.351 206.512 290.829 206.512 291.373C206.512 291.917 206.411 292.395 206.209 292.809C206.01 293.222 205.729 293.543 205.364 293.771C205.003 293.995 204.585 294.107 204.109 294.107ZM204.109 293.365C204.451 293.365 204.739 293.276 204.974 293.097C205.208 292.914 205.382 292.674 205.496 292.374C205.613 292.071 205.672 291.738 205.672 291.373C205.672 291.008 205.613 290.675 205.496 290.372C205.382 290.069 205.208 289.827 204.974 289.645C204.739 289.462 204.451 289.371 204.109 289.371C203.761 289.371 203.468 289.462 203.23 289.645C202.996 289.827 202.82 290.069 202.703 290.372C202.586 290.675 202.527 291.008 202.527 291.373C202.527 291.738 202.586 292.071 202.703 292.374C202.82 292.674 202.996 292.914 203.23 293.097C203.468 293.276 203.761 293.365 204.109 293.365ZM207.723 286.93H208.562V289.537H208.631C208.644 289.514 208.706 289.417 208.816 289.244C208.927 289.072 209.101 288.927 209.339 288.81C209.576 288.689 209.852 288.629 210.164 288.629C210.607 288.629 210.999 288.741 211.341 288.966C211.683 289.187 211.95 289.505 212.142 289.918C212.334 290.331 212.43 290.813 212.43 291.363C212.43 291.913 212.334 292.397 212.142 292.813C211.95 293.227 211.683 293.546 211.341 293.771C211.002 293.995 210.613 294.107 210.174 294.107C209.865 294.107 209.607 294.057 209.402 293.956C209.197 293.852 209.044 293.741 208.943 293.624C208.846 293.507 208.742 293.362 208.631 293.189H208.533V294H207.723V286.93ZM208.543 291.344C208.543 291.744 208.602 292.096 208.719 292.398C208.836 292.701 209.007 292.937 209.231 293.106C209.459 293.272 209.731 293.355 210.047 293.355C210.372 293.355 210.651 293.269 210.882 293.097C211.113 292.921 211.287 292.682 211.404 292.379C211.521 292.073 211.58 291.728 211.58 291.344C211.58 290.969 211.521 290.634 211.404 290.338C211.29 290.042 211.118 289.809 210.887 289.64C210.659 289.467 210.379 289.381 210.047 289.381C209.728 289.381 209.454 289.462 209.227 289.625C209.002 289.788 208.831 290.017 208.714 290.313C208.6 290.606 208.543 290.95 208.543 291.344ZM213.27 292.496C213.27 291.946 213.457 291.559 213.831 291.334C214.209 291.109 214.686 290.976 215.262 290.934C215.483 290.917 215.73 290.903 216.004 290.89C216.281 290.873 216.512 290.862 216.697 290.855V290.426C216.697 290.084 216.595 289.822 216.39 289.64C216.188 289.454 215.89 289.361 215.496 289.361C215.174 289.361 214.91 289.428 214.705 289.562C214.5 289.692 214.367 289.863 214.305 290.074H213.426C213.462 289.791 213.572 289.54 213.758 289.322C213.943 289.104 214.189 288.935 214.495 288.814C214.804 288.691 215.151 288.629 215.535 288.629C216.043 288.629 216.502 288.759 216.912 289.02C217.322 289.277 217.527 289.771 217.527 290.504V294H216.697V293.277H216.658C216.593 293.414 216.492 293.548 216.355 293.678C216.222 293.805 216.046 293.912 215.828 294C215.613 294.085 215.363 294.127 215.076 294.127C214.738 294.127 214.432 294.062 214.158 293.932C213.885 293.801 213.668 293.614 213.509 293.37C213.349 293.123 213.27 292.831 213.27 292.496ZM214.109 292.535C214.109 292.805 214.21 293.014 214.412 293.16C214.617 293.303 214.887 293.375 215.223 293.375C215.525 293.375 215.787 293.315 216.009 293.194C216.233 293.074 216.404 292.914 216.521 292.716C216.639 292.517 216.697 292.304 216.697 292.076V291.544C216.619 291.547 216.404 291.562 216.053 291.588L215.359 291.637C214.962 291.663 214.655 291.749 214.437 291.896C214.218 292.042 214.109 292.255 214.109 292.535ZM219.715 294H218.875V286.93H219.715V294ZM224.07 286.93L226.014 290.211H226.102L228.045 286.93H229.061L226.502 291.1V294H225.613V291.1L223.064 286.93H224.07Z" fill="black"/>
<path d="M377.605 397.137C377.449 396.671 377.199 396.308 376.854 396.048C376.512 395.784 376.095 395.652 375.604 395.652C375.18 395.652 374.798 395.761 374.456 395.979C374.118 396.198 373.849 396.518 373.65 396.941C373.455 397.365 373.357 397.872 373.357 398.465C373.357 399.057 373.457 399.565 373.655 399.988C373.854 400.411 374.127 400.732 374.476 400.95C374.824 401.168 375.219 401.277 375.662 401.277C376.059 401.277 376.409 401.194 376.712 401.028C377.018 400.859 377.256 400.62 377.425 400.311C377.597 399.998 377.687 399.637 377.693 399.227H375.848V398.455H378.553V399.217C378.553 399.793 378.429 400.299 378.182 400.735C377.934 401.172 377.591 401.508 377.151 401.746C376.715 401.98 376.219 402.098 375.662 402.098C375.037 402.098 374.485 401.951 374.007 401.658C373.532 401.362 373.162 400.94 372.898 400.394C372.638 399.843 372.508 399.201 372.508 398.465C372.508 397.732 372.638 397.093 372.898 396.546C373.162 395.996 373.528 395.573 373.997 395.276C374.466 394.98 375.001 394.832 375.604 394.832C376.095 394.832 376.546 394.93 376.956 395.125C377.366 395.317 377.706 395.587 377.977 395.936C378.247 396.284 378.426 396.684 378.514 397.137H377.605ZM380.604 402H379.764V394.93H380.604V402ZM384.109 402.107C383.631 402.107 383.208 401.995 382.84 401.771C382.475 401.543 382.192 401.222 381.99 400.809C381.788 400.395 381.688 399.917 381.688 399.373C381.688 398.829 381.788 398.351 381.99 397.938C382.192 397.521 382.475 397.199 382.84 396.971C383.208 396.743 383.631 396.629 384.109 396.629C384.585 396.629 385.003 396.743 385.364 396.971C385.729 397.199 386.01 397.521 386.209 397.938C386.411 398.351 386.512 398.829 386.512 399.373C386.512 399.917 386.411 400.395 386.209 400.809C386.01 401.222 385.729 401.543 385.364 401.771C385.003 401.995 384.585 402.107 384.109 402.107ZM384.109 401.365C384.451 401.365 384.739 401.276 384.974 401.097C385.208 400.914 385.382 400.674 385.496 400.374C385.613 400.071 385.672 399.738 385.672 399.373C385.672 399.008 385.613 398.675 385.496 398.372C385.382 398.069 385.208 397.827 384.974 397.645C384.739 397.462 384.451 397.371 384.109 397.371C383.761 397.371 383.468 397.462 383.23 397.645C382.996 397.827 382.82 398.069 382.703 398.372C382.586 398.675 382.527 399.008 382.527 399.373C382.527 399.738 382.586 400.071 382.703 400.374C382.82 400.674 382.996 400.914 383.23 401.097C383.468 401.276 383.761 401.365 384.109 401.365ZM387.723 394.93H388.562V397.537H388.631C388.644 397.514 388.706 397.417 388.816 397.244C388.927 397.072 389.101 396.927 389.339 396.81C389.576 396.689 389.852 396.629 390.164 396.629C390.607 396.629 390.999 396.741 391.341 396.966C391.683 397.187 391.95 397.505 392.142 397.918C392.334 398.331 392.43 398.813 392.43 399.363C392.43 399.913 392.334 400.397 392.142 400.813C391.95 401.227 391.683 401.546 391.341 401.771C391.002 401.995 390.613 402.107 390.174 402.107C389.865 402.107 389.607 402.057 389.402 401.956C389.197 401.852 389.044 401.741 388.943 401.624C388.846 401.507 388.742 401.362 388.631 401.189H388.533V402H387.723V394.93ZM388.543 399.344C388.543 399.744 388.602 400.096 388.719 400.398C388.836 400.701 389.007 400.937 389.231 401.106C389.459 401.272 389.731 401.355 390.047 401.355C390.372 401.355 390.651 401.269 390.882 401.097C391.113 400.921 391.287 400.682 391.404 400.379C391.521 400.073 391.58 399.728 391.58 399.344C391.58 398.969 391.521 398.634 391.404 398.338C391.29 398.042 391.118 397.809 390.887 397.64C390.659 397.467 390.379 397.381 390.047 397.381C389.728 397.381 389.454 397.462 389.227 397.625C389.002 397.788 388.831 398.017 388.714 398.313C388.6 398.606 388.543 398.95 388.543 399.344ZM393.27 400.496C393.27 399.946 393.457 399.559 393.831 399.334C394.209 399.109 394.686 398.976 395.262 398.934C395.483 398.917 395.73 398.903 396.004 398.89C396.281 398.873 396.512 398.862 396.697 398.855V398.426C396.697 398.084 396.595 397.822 396.39 397.64C396.188 397.454 395.89 397.361 395.496 397.361C395.174 397.361 394.91 397.428 394.705 397.562C394.5 397.692 394.367 397.863 394.305 398.074H393.426C393.462 397.791 393.572 397.54 393.758 397.322C393.943 397.104 394.189 396.935 394.495 396.814C394.804 396.691 395.151 396.629 395.535 396.629C396.043 396.629 396.502 396.759 396.912 397.02C397.322 397.277 397.527 397.771 397.527 398.504V402H396.697V401.277H396.658C396.593 401.414 396.492 401.548 396.355 401.678C396.222 401.805 396.046 401.912 395.828 402C395.613 402.085 395.363 402.127 395.076 402.127C394.738 402.127 394.432 402.062 394.158 401.932C393.885 401.801 393.668 401.614 393.509 401.37C393.349 401.123 393.27 400.831 393.27 400.496ZM394.109 400.535C394.109 400.805 394.21 401.014 394.412 401.16C394.617 401.303 394.887 401.375 395.223 401.375C395.525 401.375 395.787 401.315 396.009 401.194C396.233 401.074 396.404 400.914 396.521 400.716C396.639 400.517 396.697 400.304 396.697 400.076V399.544C396.619 399.547 396.404 399.562 396.053 399.588L395.359 399.637C394.962 399.663 394.655 399.749 394.437 399.896C394.218 400.042 394.109 400.255 394.109 400.535ZM399.715 402H398.875V394.93H399.715V402ZM405.916 397.85H405.975L407.781 394.93H408.816L406.6 398.465L408.816 402H407.781L405.975 399.139H405.916L404.109 402H403.074L405.35 398.465L403.074 394.93H404.119L405.916 397.85Z" fill="black"/>
<path d="M711.605 397.137C711.449 396.671 711.199 396.308 710.854 396.048C710.512 395.784 710.095 395.652 709.604 395.652C709.18 395.652 708.798 395.761 708.456 395.979C708.118 396.198 707.849 396.518 707.65 396.941C707.455 397.365 707.357 397.872 707.357 398.465C707.357 399.057 707.457 399.565 707.655 399.988C707.854 400.411 708.127 400.732 708.476 400.95C708.824 401.168 709.219 401.277 709.662 401.277C710.059 401.277 710.409 401.194 710.712 401.028C711.018 400.859 711.256 400.62 711.425 400.311C711.597 399.998 711.687 399.637 711.693 399.227H709.848V398.455H712.553V399.217C712.553 399.793 712.429 400.299 712.182 400.735C711.934 401.172 711.591 401.508 711.151 401.746C710.715 401.98 710.219 402.098 709.662 402.098C709.037 402.098 708.485 401.951 708.007 401.658C707.532 401.362 707.162 400.94 706.898 400.394C706.638 399.843 706.508 399.201 706.508 398.465C706.508 397.732 706.638 397.093 706.898 396.546C707.162 395.996 707.528 395.573 707.997 395.276C708.466 394.98 709.001 394.832 709.604 394.832C710.095 394.832 710.546 394.93 710.956 395.125C711.366 395.317 711.706 395.587 711.977 395.936C712.247 396.284 712.426 396.684 712.514 397.137H711.605ZM714.604 402H713.764V394.93H714.604V402ZM718.109 402.107C717.631 402.107 717.208 401.995 716.84 401.771C716.475 401.543 716.192 401.222 715.99 400.809C715.788 400.395 715.688 399.917 715.688 399.373C715.688 398.829 715.788 398.351 715.99 397.938C716.192 397.521 716.475 397.199 716.84 396.971C717.208 396.743 717.631 396.629 718.109 396.629C718.585 396.629 719.003 396.743 719.364 396.971C719.729 397.199 720.01 397.521 720.209 397.938C720.411 398.351 720.512 398.829 720.512 399.373C720.512 399.917 720.411 400.395 720.209 400.809C720.01 401.222 719.729 401.543 719.364 401.771C719.003 401.995 718.585 402.107 718.109 402.107ZM718.109 401.365C718.451 401.365 718.739 401.276 718.974 401.097C719.208 400.914 719.382 400.674 719.496 400.374C719.613 400.071 719.672 399.738 719.672 399.373C719.672 399.008 719.613 398.675 719.496 398.372C719.382 398.069 719.208 397.827 718.974 397.645C718.739 397.462 718.451 397.371 718.109 397.371C717.761 397.371 717.468 397.462 717.23 397.645C716.996 397.827 716.82 398.069 716.703 398.372C716.586 398.675 716.527 399.008 716.527 399.373C716.527 399.738 716.586 400.071 716.703 400.374C716.82 400.674 716.996 400.914 717.23 401.097C717.468 401.276 717.761 401.365 718.109 401.365ZM721.723 394.93H722.562V397.537H722.631C722.644 397.514 722.706 397.417 722.816 397.244C722.927 397.072 723.101 396.927 723.339 396.81C723.576 396.689 723.852 396.629 724.164 396.629C724.607 396.629 724.999 396.741 725.341 396.966C725.683 397.187 725.95 397.505 726.142 397.918C726.334 398.331 726.43 398.813 726.43 399.363C726.43 399.913 726.334 400.397 726.142 400.813C725.95 401.227 725.683 401.546 725.341 401.771C725.002 401.995 724.613 402.107 724.174 402.107C723.865 402.107 723.607 402.057 723.402 401.956C723.197 401.852 723.044 401.741 722.943 401.624C722.846 401.507 722.742 401.362 722.631 401.189H722.533V402H721.723V394.93ZM722.543 399.344C722.543 399.744 722.602 400.096 722.719 400.398C722.836 400.701 723.007 400.937 723.231 401.106C723.459 401.272 723.731 401.355 724.047 401.355C724.372 401.355 724.651 401.269 724.882 401.097C725.113 400.921 725.287 400.682 725.404 400.379C725.521 400.073 725.58 399.728 725.58 399.344C725.58 398.969 725.521 398.634 725.404 398.338C725.29 398.042 725.118 397.809 724.887 397.64C724.659 397.467 724.379 397.381 724.047 397.381C723.728 397.381 723.454 397.462 723.227 397.625C723.002 397.788 722.831 398.017 722.714 398.313C722.6 398.606 722.543 398.95 722.543 399.344ZM727.27 400.496C727.27 399.946 727.457 399.559 727.831 399.334C728.209 399.109 728.686 398.976 729.262 398.934C729.483 398.917 729.73 398.903 730.004 398.89C730.281 398.873 730.512 398.862 730.697 398.855V398.426C730.697 398.084 730.595 397.822 730.39 397.64C730.188 397.454 729.89 397.361 729.496 397.361C729.174 397.361 728.91 397.428 728.705 397.562C728.5 397.692 728.367 397.863 728.305 398.074H727.426C727.462 397.791 727.572 397.54 727.758 397.322C727.943 397.104 728.189 396.935 728.495 396.814C728.804 396.691 729.151 396.629 729.535 396.629C730.043 396.629 730.502 396.759 730.912 397.02C731.322 397.277 731.527 397.771 731.527 398.504V402H730.697V401.277H730.658C730.593 401.414 730.492 401.548 730.355 401.678C730.222 401.805 730.046 401.912 729.828 402C729.613 402.085 729.363 402.127 729.076 402.127C728.738 402.127 728.432 402.062 728.158 401.932C727.885 401.801 727.668 401.614 727.509 401.37C727.349 401.123 727.27 400.831 727.27 400.496ZM728.109 400.535C728.109 400.805 728.21 401.014 728.412 401.16C728.617 401.303 728.887 401.375 729.223 401.375C729.525 401.375 729.787 401.315 730.009 401.194C730.233 401.074 730.404 400.914 730.521 400.716C730.639 400.517 730.697 400.304 730.697 400.076V399.544C730.619 399.547 730.404 399.562 730.053 399.588L729.359 399.637C728.962 399.663 728.655 399.749 728.437 399.896C728.218 400.042 728.109 400.255 728.109 400.535ZM733.715 402H732.875V394.93H733.715V402ZM739.916 397.85H739.975L741.781 394.93H742.816L740.6 398.465L742.816 402H741.781L739.975 399.139H739.916L738.109 402H737.074L739.35 398.465L737.074 394.93H738.119L739.916 397.85Z" fill="black"/>
<path d="M592.605 239.137C592.449 238.671 592.199 238.308 591.854 238.048C591.512 237.784 591.095 237.652 590.604 237.652C590.18 237.652 589.798 237.761 589.456 237.979C589.118 238.198 588.849 238.518 588.65 238.941C588.455 239.365 588.357 239.872 588.357 240.465C588.357 241.057 588.457 241.565 588.655 241.988C588.854 242.411 589.127 242.732 589.476 242.95C589.824 243.168 590.219 243.277 590.662 243.277C591.059 243.277 591.409 243.194 591.712 243.028C592.018 242.859 592.256 242.62 592.425 242.311C592.597 241.998 592.687 241.637 592.693 241.227H590.848V240.455H593.553V241.217C593.553 241.793 593.429 242.299 593.182 242.735C592.934 243.172 592.591 243.508 592.151 243.746C591.715 243.98 591.219 244.098 590.662 244.098C590.037 244.098 589.485 243.951 589.007 243.658C588.532 243.362 588.162 242.94 587.898 242.394C587.638 241.843 587.508 241.201 587.508 240.465C587.508 239.732 587.638 239.093 587.898 238.546C588.162 237.996 588.528 237.573 588.997 237.276C589.466 236.98 590.001 236.832 590.604 236.832C591.095 236.832 591.546 236.93 591.956 237.125C592.366 237.317 592.706 237.587 592.977 237.936C593.247 238.284 593.426 238.684 593.514 239.137H592.605ZM595.604 244H594.764V236.93H595.604V244ZM599.109 244.107C598.631 244.107 598.208 243.995 597.84 243.771C597.475 243.543 597.192 243.222 596.99 242.809C596.788 242.395 596.688 241.917 596.688 241.373C596.688 240.829 596.788 240.351 596.99 239.938C597.192 239.521 597.475 239.199 597.84 238.971C598.208 238.743 598.631 238.629 599.109 238.629C599.585 238.629 600.003 238.743 600.364 238.971C600.729 239.199 601.01 239.521 601.209 239.938C601.411 240.351 601.512 240.829 601.512 241.373C601.512 241.917 601.411 242.395 601.209 242.809C601.01 243.222 600.729 243.543 600.364 243.771C600.003 243.995 599.585 244.107 599.109 244.107ZM599.109 243.365C599.451 243.365 599.739 243.276 599.974 243.097C600.208 242.914 600.382 242.674 600.496 242.374C600.613 242.071 600.672 241.738 600.672 241.373C600.672 241.008 600.613 240.675 600.496 240.372C600.382 240.069 600.208 239.827 599.974 239.645C599.739 239.462 599.451 239.371 599.109 239.371C598.761 239.371 598.468 239.462 598.23 239.645C597.996 239.827 597.82 240.069 597.703 240.372C597.586 240.675 597.527 241.008 597.527 241.373C597.527 241.738 597.586 242.071 597.703 242.374C597.82 242.674 597.996 242.914 598.23 243.097C598.468 243.276 598.761 243.365 599.109 243.365ZM602.723 236.93H603.562V239.537H603.631C603.644 239.514 603.706 239.417 603.816 239.244C603.927 239.072 604.101 238.927 604.339 238.81C604.576 238.689 604.852 238.629 605.164 238.629C605.607 238.629 605.999 238.741 606.341 238.966C606.683 239.187 606.95 239.505 607.142 239.918C607.334 240.331 607.43 240.813 607.43 241.363C607.43 241.913 607.334 242.397 607.142 242.813C606.95 243.227 606.683 243.546 606.341 243.771C606.002 243.995 605.613 244.107 605.174 244.107C604.865 244.107 604.607 244.057 604.402 243.956C604.197 243.852 604.044 243.741 603.943 243.624C603.846 243.507 603.742 243.362 603.631 243.189H603.533V244H602.723V236.93ZM603.543 241.344C603.543 241.744 603.602 242.096 603.719 242.398C603.836 242.701 604.007 242.937 604.231 243.106C604.459 243.272 604.731 243.355 605.047 243.355C605.372 243.355 605.651 243.269 605.882 243.097C606.113 242.921 606.287 242.682 606.404 242.379C606.521 242.073 606.58 241.728 606.58 241.344C606.58 240.969 606.521 240.634 606.404 240.338C606.29 240.042 606.118 239.809 605.887 239.64C605.659 239.467 605.379 239.381 605.047 239.381C604.728 239.381 604.454 239.462 604.227 239.625C604.002 239.788 603.831 240.017 603.714 240.313C603.6 240.606 603.543 240.95 603.543 241.344ZM608.27 242.496C608.27 241.946 608.457 241.559 608.831 241.334C609.209 241.109 609.686 240.976 610.262 240.934C610.483 240.917 610.73 240.903 611.004 240.89C611.281 240.873 611.512 240.862 611.697 240.855V240.426C611.697 240.084 611.595 239.822 611.39 239.64C611.188 239.454 610.89 239.361 610.496 239.361C610.174 239.361 609.91 239.428 609.705 239.562C609.5 239.692 609.367 239.863 609.305 240.074H608.426C608.462 239.791 608.572 239.54 608.758 239.322C608.943 239.104 609.189 238.935 609.495 238.814C609.804 238.691 610.151 238.629 610.535 238.629C611.043 238.629 611.502 238.759 611.912 239.02C612.322 239.277 612.527 239.771 612.527 240.504V244H611.697V243.277H611.658C611.593 243.414 611.492 243.548 611.355 243.678C611.222 243.805 611.046 243.912 610.828 244C610.613 244.085 610.363 244.127 610.076 244.127C609.738 244.127 609.432 244.062 609.158 243.932C608.885 243.801 608.668 243.614 608.509 243.37C608.349 243.123 608.27 242.831 608.27 242.496ZM609.109 242.535C609.109 242.805 609.21 243.014 609.412 243.16C609.617 243.303 609.887 243.375 610.223 243.375C610.525 243.375 610.787 243.315 611.009 243.194C611.233 243.074 611.404 242.914 611.521 242.716C611.639 242.517 611.697 242.304 611.697 242.076V241.544C611.619 241.547 611.404 241.562 611.053 241.588L610.359 241.637C609.962 241.663 609.655 241.749 609.437 241.896C609.218 242.042 609.109 242.255 609.109 242.535ZM614.715 244H613.875V236.93H614.715V244ZM619.07 236.93L621.014 240.211H621.102L623.045 236.93H624.061L621.502 241.1V244H620.613V241.1L618.064 236.93H619.07Z" fill="black"/>
<path d="M560 175L562.887 170H557.113L560 175ZM560 85H559.5V170.5H560H560.5V85H560Z" fill="black"/>
<path d="M579.9 111.3L580.27 111.84C580.07 112.1 579.84 112.363 579.58 112.63C579.327 112.897 579.1 113.1 578.9 113.24L578.49 112.68C578.623 112.593 578.77 112.473 578.93 112.32C579.097 112.167 579.263 112 579.43 111.82C579.603 111.647 579.76 111.473 579.9 111.3ZM578.19 104.54L578.19 113.51L577.55 113.51L577.55 104.54L578.19 104.54ZM579.6 104.99L579.6 109.33L579 109.33L579 104.99L579.6 104.99ZM576.89 104.81L576.89 109.52L576.32 109.52L576.32 104.81L576.89 104.81ZM572.78 104.66L572.78 109.56L572.19 109.56L572.19 104.66L572.78 104.66ZM580.41 106.8L580.41 107.52L577.65 107.52L577.65 106.8L580.41 106.8ZM574.35 105.61L573.77 105.61L573.77 108.71L574.35 108.71L574.35 105.61ZM575.34 105.61L574.77 105.61L574.77 108.71L575.34 108.71L575.34 105.61ZM575.78 105.05L575.78 109.3L573.33 109.3L573.33 105.05L575.78 105.05ZM575.52 106.86L575.52 107.44L573.49 107.44L573.49 107.48L571.19 107.48L571.19 106.81L573.49 106.81L573.49 106.86L575.52 106.86ZM577.53 106.81L577.53 107.49L575.63 107.49L575.63 106.81L577.53 106.81ZM580.39 109.89L580.39 110.64C579.437 110.633 578.533 110.657 577.68 110.71C576.827 110.763 576.05 110.843 575.35 110.95C574.65 111.063 574.043 111.197 573.53 111.35C573.023 111.51 572.63 111.693 572.35 111.9C572.077 112.107 571.94 112.333 571.94 112.58C571.94 112.72 572.07 112.82 572.33 112.88C572.597 112.947 573.037 112.993 573.65 113.02C573.57 113.1 573.493 113.197 573.42 113.31C573.353 113.43 573.303 113.54 573.27 113.64C572.737 113.6 572.32 113.54 572.02 113.46C571.72 113.38 571.51 113.263 571.39 113.11C571.263 112.963 571.2 112.767 571.2 112.52C571.2 112.187 571.313 111.89 571.54 111.63C571.76 111.377 572.073 111.153 572.48 110.96C572.887 110.773 573.37 110.61 573.93 110.47C574.497 110.337 575.12 110.227 575.8 110.14C576.487 110.06 577.213 110 577.98 109.96C578.753 109.92 579.557 109.897 580.39 109.89ZM577.01 112.39L576.79 113.06C576.017 112.813 575.28 112.503 574.58 112.13C573.887 111.763 573.25 111.333 572.67 110.84C572.097 110.347 571.607 109.797 571.2 109.19C571.287 109.13 571.383 109.05 571.49 108.95C571.597 108.85 571.687 108.75 571.76 108.65C572.127 109.243 572.58 109.777 573.12 110.25C573.66 110.73 574.26 111.15 574.92 111.51C575.58 111.87 576.277 112.163 577.01 112.39ZM577.53 117.51L577.53 123.51L576.83 123.51L576.83 117.51L577.53 117.51ZM577.2 121.79L577.2 122.52L572.15 122.52C571.923 122.52 571.753 122.487 571.64 122.42C571.52 122.36 571.43 122.247 571.37 122.08C571.317 121.907 571.283 121.677 571.27 121.39C571.257 121.103 571.25 120.743 571.25 120.31C571.35 120.29 571.47 120.253 571.61 120.2C571.743 120.147 571.86 120.093 571.96 120.04C571.953 120.267 571.95 120.483 571.95 120.69C571.943 120.897 571.94 121.073 571.94 121.22C571.94 121.373 571.94 121.48 571.94 121.54C571.947 121.633 571.967 121.697 572 121.73C572.027 121.77 572.08 121.79 572.16 121.79L577.2 121.79ZM578.02 116.62L577.79 117.34C577.357 117.133 576.93 116.893 576.51 116.62C576.097 116.347 575.71 116.05 575.35 115.73C574.997 115.417 574.683 115.097 574.41 114.77C574.463 114.743 574.53 114.7 574.61 114.64C574.697 114.58 574.78 114.517 574.86 114.45C574.947 114.39 575.013 114.333 575.06 114.28C575.42 114.747 575.86 115.187 576.38 115.6C576.9 116.013 577.447 116.353 578.02 116.62ZM575.9 117.99L575.9 120.81L573.07 120.81L573.07 117.99L573.7 117.99L573.7 120.12L575.27 120.12L575.27 117.99L575.9 117.99ZM575.9 117.63L575.9 118.33L572.47 118.33L572.47 117.63L575.9 117.63ZM579.6 114.62L579.6 123.44L578.91 123.44L578.91 114.62L579.6 114.62ZM580.4 116.89L580.4 117.62L577.99 117.62L577.99 116.89L580.4 116.89ZM580.4 120.36L580.4 121.11L577.99 121.11L577.99 120.36L580.4 120.36ZM576.01 115.76L576.73 116.49L576.72 116.5L571.21 116.5L571.21 115.76L576.01 115.76ZM572.42 125.5L572.42 133.5L571.72 133.5L571.72 125.5L572.42 125.5ZM579.48 124.62L579.48 133.42L578.78 133.42L578.78 124.62L579.48 124.62ZM577.68 125.15L577.68 125.88L571.19 125.88L571.19 125.15L577.68 125.15ZM576.04 127.71L575.22 127.71L575.22 131.55L576.04 131.55L576.04 127.71ZM574.68 127.71L573.84 127.71L573.84 131.55L574.68 131.55L574.68 127.71ZM577.4 127.71L576.58 127.71L576.58 131.55L577.4 131.55L577.4 127.71ZM577.96 126.99L577.96 132.29L573.27 132.29L573.27 126.99L577.96 126.99ZM580.43 128.77L580.38 129.63C580.067 129.597 579.74 129.557 579.4 129.51C579.067 129.463 578.743 129.417 578.43 129.37C578.123 129.323 577.853 129.273 577.62 129.22L577.69 128.49C577.937 128.53 578.22 128.567 578.54 128.6C578.867 128.64 579.197 128.673 579.53 128.7C579.863 128.733 580.163 128.757 580.43 128.77ZM578.11 136.33L578.11 142.37L577.44 142.37L577.44 136.33L578.11 136.33ZM576.11 136.33L576.11 142.25L575.46 142.25L575.46 136.33L576.11 136.33ZM574.07 136.15L574.07 142.28L573.41 142.28L573.41 136.15L574.07 136.15ZM578.11 135.91L578.11 136.65L575.6 136.65C575.247 136.65 574.873 136.627 574.48 136.58C574.087 136.54 573.69 136.457 573.29 136.33C572.897 136.203 572.517 136.02 572.15 135.78C571.783 135.547 571.45 135.24 571.15 134.86C571.203 134.82 571.267 134.767 571.34 134.7C571.407 134.64 571.473 134.577 571.54 134.51C571.607 134.443 571.657 134.383 571.69 134.33C571.963 134.69 572.26 134.973 572.58 135.18C572.907 135.393 573.24 135.55 573.58 135.65C573.927 135.757 574.273 135.827 574.62 135.86C574.967 135.893 575.297 135.91 575.61 135.91L578.11 135.91ZM578.11 141.97L578.11 142.71L572.15 142.71C571.91 142.71 571.727 142.673 571.6 142.6C571.467 142.527 571.37 142.397 571.31 142.21C571.257 142.017 571.223 141.753 571.21 141.42C571.19 141.087 571.18 140.667 571.18 140.16C571.247 140.147 571.327 140.123 571.42 140.09C571.507 140.063 571.593 140.03 571.68 139.99C571.767 139.95 571.843 139.91 571.91 139.87C571.903 140.143 571.9 140.403 571.9 140.65C571.893 140.897 571.893 141.113 571.9 141.3C571.9 141.487 571.9 141.617 571.9 141.69C571.907 141.803 571.93 141.877 571.97 141.91C572.003 141.95 572.067 141.97 572.16 141.97L578.11 141.97ZM577.83 138.86L577.83 139.58L573.73 139.58L573.73 138.86L577.83 138.86ZM579.81 137.28L579.81 140.43L579.18 140.43L579.18 137.28L579.81 137.28ZM580.43 137.37L580.28 138.18C579.887 137.967 579.483 137.71 579.07 137.41C578.657 137.11 578.25 136.77 577.85 136.39C577.457 136.01 577.087 135.583 576.74 135.11C576.8 135.063 576.863 135.007 576.93 134.94C577.003 134.88 577.07 134.817 577.13 134.75C577.19 134.683 577.237 134.62 577.27 134.56C577.577 135.013 577.91 135.42 578.27 135.78C578.63 136.14 578.997 136.453 579.37 136.72C579.743 136.987 580.097 137.203 580.43 137.37ZM579.81 140.17L579.81 140.34L579.85 140.46L579.52 140.97C579.293 140.857 579.06 140.72 578.82 140.56C578.587 140.407 578.36 140.247 578.14 140.08C577.927 139.913 577.737 139.75 577.57 139.59C577.63 139.523 577.693 139.437 577.76 139.33C577.827 139.23 577.88 139.14 577.92 139.06C578.073 139.193 578.253 139.33 578.46 139.47C578.667 139.617 578.877 139.75 579.09 139.87C579.303 139.997 579.497 140.097 579.67 140.17L579.81 140.17ZM578.67 144.53L578.67 153.48L577.95 153.48L577.95 144.53L578.67 144.53ZM576.31 147.8L576.31 151.79L575.59 151.79L575.59 147.8L576.31 147.8ZM576.31 151.52L576.31 152.3C576.31 152.3 576.287 152.297 576.24 152.29C576.193 152.29 576.14 152.287 576.08 152.28C576.027 152.28 575.98 152.277 575.94 152.27C574.987 152.203 574.21 152.133 573.61 152.06C573.017 151.987 572.56 151.903 572.24 151.81C571.92 151.717 571.693 151.603 571.56 151.47C571.44 151.357 571.357 151.233 571.31 151.1C571.263 150.967 571.233 150.803 571.22 150.61C571.207 150.437 571.203 150.197 571.21 149.89C571.217 149.583 571.23 149.263 571.25 148.93C571.357 148.923 571.48 148.893 571.62 148.84C571.753 148.793 571.873 148.733 571.98 148.66C571.953 149.02 571.937 149.36 571.93 149.68C571.917 150 571.91 150.223 571.91 150.35C571.91 150.463 571.917 150.557 571.93 150.63C571.943 150.71 571.977 150.777 572.03 150.83C572.123 150.937 572.32 151.03 572.62 151.11C572.927 151.19 573.367 151.263 573.94 151.33C574.52 151.397 575.267 151.46 576.18 151.52L576.31 151.52ZM578.27 147.62L578.27 148.46C577.737 148.433 577.197 148.39 576.65 148.33C576.11 148.27 575.573 148.173 575.04 148.04C574.513 147.913 574.01 147.723 573.53 147.47C573.05 147.223 572.61 146.897 572.21 146.49C571.81 146.083 571.46 145.577 571.16 144.97C571.26 144.91 571.37 144.827 571.49 144.72C571.603 144.62 571.697 144.52 571.77 144.42C572.037 145.007 572.353 145.49 572.72 145.87C573.093 146.25 573.5 146.553 573.94 146.78C574.387 147.007 574.853 147.177 575.34 147.29C575.827 147.403 576.317 147.48 576.81 147.52C577.31 147.567 577.797 147.6 578.27 147.62ZM580.43 148.58L580.43 149.35L578.36 149.35L578.36 148.58L580.43 148.58ZM578.67 154.99L578.67 162.6L577.94 162.6L577.94 155.73L571.2 155.73L571.2 154.99L578.67 154.99ZM578.67 162.32L578.67 163.07L572.2 163.07C571.953 163.07 571.763 163.037 571.63 162.97C571.497 162.903 571.397 162.78 571.33 162.6C571.27 162.42 571.233 162.173 571.22 161.86C571.207 161.547 571.2 161.16 571.2 160.7C571.273 160.693 571.357 160.673 571.45 160.64C571.537 160.613 571.63 160.583 571.73 160.55C571.823 160.517 571.907 160.48 571.98 160.44C571.967 160.68 571.96 160.91 571.96 161.13C571.953 161.357 571.953 161.55 571.96 161.71C571.96 161.877 571.96 161.993 571.96 162.06C571.96 162.167 571.977 162.237 572.01 162.27C572.05 162.303 572.113 162.32 572.2 162.32L578.67 162.32ZM580.42 158.38L580.27 159.31C579.91 159.163 579.543 159 579.17 158.82C578.797 158.64 578.477 158.473 578.21 158.32L578.39 157.61C578.577 157.703 578.79 157.797 579.03 157.89C579.27 157.99 579.51 158.083 579.75 158.17C579.997 158.263 580.22 158.333 580.42 158.38ZM576.61 157.04L576.61 157.73L572.58 157.73L572.58 157.04L576.61 157.04ZM576.61 157.36L576.61 160.96L573.3 160.96L573.3 157.36L573.98 157.36L573.98 160.26L575.94 160.26L575.94 157.36L576.61 157.36Z" fill="black"/>
<rect x="93.5" y="342.5" width="234" height="109" stroke="black"/>
<rect x="550.5" y="514" width="234" height="109" transform="rotate(-90 550.5 514)" stroke="black"/>
<ellipse cx="116" cy="362.5" rx="12" ry="11.5" fill="#D9D9D9"/>
<ellipse cx="570.5" cy="491.5" rx="12" ry="11.5" transform="rotate(-90 570.5 491.5)" fill="#D9D9D9"/>
<circle cx="163.5" cy="362.5" r="11.5" fill="#D9D9D9"/>
<circle cx="570.5" cy="444" r="11.5" transform="rotate(-90 570.5 444)" fill="#D9D9D9"/>
<circle cx="210.5" cy="362.5" r="11.5" fill="#D9D9D9"/>
<circle cx="570.5" cy="397" r="11.5" transform="rotate(-90 570.5 397)" fill="#D9D9D9"/>
<ellipse cx="258" cy="362.5" rx="12" ry="11.5" fill="#D9D9D9"/>
<ellipse cx="570.5" cy="349.5" rx="12" ry="11.5" transform="rotate(-90 570.5 349.5)" fill="#D9D9D9"/>
<ellipse cx="305" cy="362.5" rx="12" ry="11.5" fill="#D9D9D9"/>
<ellipse cx="570.5" cy="302.5" rx="12" ry="11.5" transform="rotate(-90 570.5 302.5)" fill="#D9D9D9"/>
<circle cx="116" cy="398" r="12" fill="#D9D9D9"/>
<circle cx="606" cy="491.5" r="12" transform="rotate(-90 606 491.5)" fill="#D9D9D9"/>
<ellipse cx="163.5" cy="398" rx="11.5" ry="12" fill="#D9D9D9"/>
<ellipse cx="606" cy="444" rx="11.5" ry="12" transform="rotate(-90 606 444)" fill="#D9D9D9"/>
<ellipse cx="210.5" cy="398" rx="11.5" ry="12" fill="#D9D9D9"/>
<ellipse cx="606" cy="397" rx="11.5" ry="12" transform="rotate(-90 606 397)" fill="#D9D9D9"/>
<circle cx="258" cy="398" r="12" fill="#D9D9D9"/>
<circle cx="606" cy="349.5" r="12" transform="rotate(-90 606 349.5)" fill="#D9D9D9"/>
<circle cx="305" cy="398" r="12" fill="#D9D9D9"/>
<circle cx="606" cy="302.5" r="12" transform="rotate(-90 606 302.5)" fill="#D9D9D9"/>
<ellipse cx="116" cy="432.5" rx="12" ry="11.5" fill="#D9D9D9"/>
<ellipse cx="640.5" cy="491.5" rx="12" ry="11.5" transform="rotate(-90 640.5 491.5)" fill="#D9D9D9"/>
<circle cx="163.5" cy="432.5" r="11.5" fill="#D9D9D9"/>
<circle cx="640.5" cy="444" r="11.5" transform="rotate(-90 640.5 444)" fill="#D9D9D9"/>
<circle cx="210.5" cy="432.5" r="11.5" fill="#D9D9D9"/>
<circle cx="640.5" cy="397" r="11.5" transform="rotate(-90 640.5 397)" fill="#D9D9D9"/>
<ellipse cx="258" cy="432.5" rx="12" ry="11.5" fill="#D9D9D9"/>
<ellipse cx="640.5" cy="349.5" rx="12" ry="11.5" transform="rotate(-90 640.5 349.5)" fill="#D9D9D9"/>
<ellipse cx="305" cy="432.5" rx="12" ry="11.5" fill="#D9D9D9"/>
<ellipse cx="640.5" cy="302.5" rx="12" ry="11.5" transform="rotate(-90 640.5 302.5)" fill="#D9D9D9"/>
<path d="M210 303L207.113 308L212.887 308L210 303ZM210 398L210.5 398L210.5 307.5L210 307.5L209.5 307.5L209.5 398L210 398Z" fill="black"/>
<path d="M606 254L603.113 259L608.887 259L606 254ZM606 398L606.5 398L606.5 258.5L606 258.5L605.5 258.5L605.5 398L606 398Z" fill="black"/>
<path d="M360 398L355 395.113V400.887L360 398ZM210 398V398.5H355.5V398V397.5H210V398Z" fill="black"/>
<path d="M695 398L690 395.113V400.887L695 398ZM606 398V398.5H690.5V398V397.5H606V398Z" fill="black"/>
<circle cx="280" cy="131" r="15" fill="#D9D9D9"/>
<circle cx="280" cy="176" r="15" fill="#D9D9D9"/>
<circle cx="280" cy="86" r="15" fill="#D9D9D9"/>
<circle cx="340" cy="131" r="15" fill="#D9D9D9"/>
<circle cx="340" cy="176" r="15" fill="#D9D9D9"/>
<circle cx="340" cy="86" r="15" fill="#D9D9D9"/>
<circle cx="400" cy="131" r="15" fill="#D9D9D9"/>
<circle cx="400" cy="176" r="15" fill="#D9D9D9"/>
<circle cx="400" cy="86" r="15" fill="#D9D9D9"/>
<circle cx="460" cy="131" r="15" fill="#D9D9D9"/>
<circle cx="460" cy="176" r="15" fill="#D9D9D9"/>
<circle cx="460" cy="86" r="15" fill="#D9D9D9"/>
<circle cx="520" cy="131" r="15" fill="#D9D9D9"/>
<circle cx="520" cy="176" r="15" fill="#D9D9D9"/>
<circle cx="520" cy="86" r="15" fill="#D9D9D9"/>
</svg>
