<svg width="636" height="201" xmlns="http://www.w3.org/2000/svg" xmlns:xlink="http://www.w3.org/1999/xlink" xml:space="preserve" overflow="hidden"><g transform="translate(-335 -488)"><path d="M365.134 562.811 381.345 562.811 380.9 564.797C379.873 565.013 379.137 565.257 378.691 565.527 378.245 565.797 377.847 566.202 377.495 566.743 377.144 567.283 376.779 568.127 376.401 569.276 376.023 570.424 375.55 572.295 374.983 574.889L372.105 587.817 373.443 587.817C374.577 587.817 375.611 587.628 376.543 587.249 377.475 586.871 378.563 586.182 379.805 585.182 381.048 584.183 383.027 582.346 385.743 579.671 388.458 576.996 390.39 574.963 391.538 573.571 392.686 572.18 393.524 570.978 394.051 569.964 394.578 568.951 394.841 568.026 394.841 567.188 394.841 566.513 394.571 565.966 394.03 565.547 393.49 565.128 392.72 564.878 391.72 564.797L392.166 562.811 409.552 562.811 409.107 564.797C408.026 564.959 406.803 565.52 405.439 566.479 404.074 567.438 401.987 569.309 399.177 572.092L383.453 587.411 392.085 608.161C392.977 610.296 393.713 611.836 394.294 612.782 394.875 613.727 395.57 614.477 396.381 615.031 397.192 615.585 398.191 615.956 399.38 616.145L398.934 618.131 383.291 618.131 383.737 616.145C385.195 616.01 385.925 615.362 385.925 614.2 385.925 613.471 385.776 612.64 385.479 611.708 385.182 610.776 384.831 609.81 384.425 608.81L379.157 595.922C378.535 594.382 377.995 593.301 377.536 592.68 377.077 592.059 376.59 591.626 376.077 591.383 375.564 591.14 374.766 591.018 373.686 591.018L371.416 591.018 368.052 606.338C367.701 607.959 367.472 609.235 367.363 610.168 367.255 611.1 367.201 611.931 367.201 612.66 367.201 613.876 367.505 614.734 368.113 615.234 368.721 615.733 369.741 616.037 371.173 616.145L370.727 618.131 354.516 618.131 354.962 616.145C355.989 615.983 356.759 615.72 357.272 615.355 357.785 614.99 358.218 614.484 358.569 613.835 358.92 613.187 359.244 612.397 359.542 611.464 359.839 610.532 360.285 608.729 360.879 606.054L367.769 574.848C368.363 572.146 368.66 569.971 368.66 568.323 368.66 567.053 368.343 566.168 367.708 565.669 367.073 565.169 366.067 564.878 364.689 564.797Z" fill-rule="evenodd"/><text fill="#000000" fill-opacity="0" font-family="Arial,Arial_MSFontService,sans-serif" font-size="55.3198" x="354.516" y="611.216">𝐾</text><path d="M421.163 604.564C423.089 604.564 424.862 604.683 426.48 604.922 428.098 605.16 429.672 605.508 431.201 605.964L429.771 612.696 427.12 612.696C426.902 610.909 426.311 609.588 425.348 608.734 424.385 607.88 422.891 607.453 420.865 607.453 420.051 607.453 419.297 607.563 418.602 607.781 417.907 608 417.311 608.302 416.815 608.69 416.318 609.077 415.931 609.538 415.653 610.075 415.375 610.611 415.236 611.196 415.236 611.832 415.236 612.408 415.305 612.934 415.444 613.411 415.583 613.887 415.856 614.354 416.264 614.81 416.671 615.267 417.246 615.744 417.991 616.24 418.736 616.737 419.714 617.302 420.925 617.938 422.196 618.633 423.253 619.298 424.097 619.933 424.941 620.569 425.611 621.214 426.108 621.87 426.604 622.525 426.951 623.225 427.15 623.969 427.349 624.714 427.448 625.543 427.448 626.456 427.448 627.866 427.16 629.132 426.584 630.254 426.008 631.376 425.204 632.324 424.172 633.099 423.139 633.873 421.923 634.469 420.523 634.886 419.123 635.303 417.589 635.511 415.921 635.511 414.094 635.511 412.297 635.392 410.53 635.154 408.763 634.915 406.896 634.508 404.93 633.932L406.479 627.141 409.07 627.141C409.17 628.988 409.751 630.373 410.813 631.297 411.875 632.22 413.518 632.682 415.742 632.682 417.728 632.682 419.292 632.255 420.433 631.401 421.575 630.547 422.146 629.356 422.146 627.827 422.146 627.132 422.077 626.531 421.938 626.025 421.799 625.518 421.526 625.037 421.119 624.58 420.711 624.123 420.155 623.652 419.451 623.165 418.746 622.679 417.827 622.118 416.695 621.482 415.524 620.827 414.516 620.182 413.672 619.546 412.828 618.911 412.133 618.266 411.587 617.61 411.041 616.955 410.639 616.27 410.381 615.555 410.123 614.84 409.994 614.076 409.994 613.262 409.994 612.011 410.257 610.854 410.783 609.792 411.309 608.729 412.059 607.811 413.032 607.036 414.005 606.262 415.176 605.656 416.547 605.22 417.917 604.783 419.456 604.564 421.163 604.564Z" fill-rule="evenodd"/><text fill="#000000" fill-opacity="0" font-family="Arial,Arial_MSFontService,sans-serif" font-size="30.9468" x="404.93" y="631.643">𝑠</text><path d="M466.297 600.137 516.227 600.137 516.227 605.527 466.297 605.527ZM466.297 583.318 516.227 583.318 516.227 588.708 466.297 588.708Z" fill-rule="evenodd"/><text fill="#000000" fill-opacity="0" font-family="Arial,Arial_MSFontService,sans-serif" font-size="22.209" x="466.297" y="602.751">=</text><path d="M691.903 500.363 729.188 500.363 726.392 512.805 722.501 512.805C722.393 510.455 722.191 508.685 721.893 507.496 721.596 506.307 721.238 505.49 720.819 505.044 720.401 504.599 719.901 504.301 719.32 504.153 718.739 504.004 717.908 503.93 716.828 503.93L703.616 503.93 698.995 525.166 706.736 525.166C708.654 525.166 710.12 524.714 711.133 523.809 712.147 522.903 713.167 521.411 714.193 519.33L717.881 519.33 714.234 534.893 710.789 534.893C710.789 532.731 710.654 531.266 710.384 530.496 710.113 529.726 709.715 529.239 709.188 529.037 708.661 528.834 707.709 528.733 706.331 528.733L698.225 528.733 693.038 552.117 705.034 552.117C706.628 552.117 707.891 551.955 708.823 551.631 709.755 551.306 710.634 550.779 711.458 550.05 712.282 549.32 713.106 548.301 713.93 546.99 714.754 545.68 715.733 543.903 716.868 541.661L720.799 541.661 717.233 555.683 681.285 555.683 681.731 553.697C682.758 553.535 683.528 553.272 684.041 552.907 684.554 552.542 684.987 552.036 685.338 551.387 685.689 550.739 686.013 549.949 686.31 549.017 686.608 548.084 687.053 546.281 687.648 543.606L694.537 512.4C695.132 509.698 695.429 507.523 695.429 505.875 695.429 504.605 695.112 503.72 694.477 503.221 693.842 502.721 692.835 502.43 691.457 502.349Z" fill-rule="evenodd"/><text fill="#000000" fill-opacity="0" font-family="Arial,Arial_MSFontService,sans-serif" font-size="55.3198" x="681.285" y="548.768">𝐸</text><path d="M743.807 542.116C745.733 542.116 747.505 542.236 749.124 542.474 750.742 542.712 752.316 543.06 753.845 543.516L752.415 550.248 749.764 550.248C749.546 548.461 748.955 547.14 747.992 546.286 747.029 545.432 745.534 545.006 743.509 545.006 742.695 545.006 741.94 545.115 741.245 545.333 740.55 545.552 739.955 545.854 739.458 546.242 738.962 546.629 738.575 547.091 738.297 547.627 738.019 548.163 737.88 548.749 737.88 549.384 737.88 549.96 737.949 550.486 738.088 550.963 738.227 551.439 738.5 551.906 738.907 552.362 739.314 552.819 739.89 553.296 740.635 553.792 741.379 554.289 742.357 554.854 743.569 555.49 744.839 556.185 745.897 556.85 746.741 557.486 747.585 558.121 748.255 558.766 748.751 559.422 749.248 560.077 749.595 560.777 749.794 561.521 749.992 562.266 750.092 563.095 750.092 564.008 750.092 565.418 749.804 566.684 749.228 567.806 748.652 568.928 747.848 569.876 746.815 570.651 745.783 571.425 744.566 572.021 743.167 572.438 741.767 572.855 740.233 573.063 738.565 573.063 736.738 573.063 734.941 572.944 733.174 572.706 731.406 572.467 729.54 572.06 727.574 571.485L729.123 564.694 731.714 564.694C731.813 566.54 732.394 567.925 733.457 568.849 734.519 569.772 736.162 570.234 738.386 570.234 740.372 570.234 741.935 569.807 743.077 568.953 744.219 568.099 744.79 566.908 744.79 565.379 744.79 564.684 744.72 564.083 744.581 563.577 744.442 563.07 744.169 562.589 743.762 562.132 743.355 561.675 742.799 561.204 742.094 560.717 741.389 560.231 740.471 559.67 739.339 559.034 738.168 558.379 737.16 557.734 736.316 557.098 735.472 556.463 734.777 555.818 734.231 555.162 733.685 554.507 733.283 553.822 733.025 553.107 732.767 552.392 732.638 551.628 732.638 550.814 732.638 549.563 732.901 548.406 733.427 547.344 733.953 546.281 734.703 545.363 735.676 544.589 736.649 543.814 737.82 543.208 739.19 542.772 740.56 542.335 742.099 542.116 743.807 542.116Z" fill-rule="evenodd"/><text fill="#000000" fill-opacity="0" font-family="Arial,Arial_MSFontService,sans-serif" font-size="30.9468" x="727.574" y="569.195">𝑠</text><path d="M788.859 611.2C796.749 613.281 802.807 617.773 807.036 624.676 811.264 631.579 813.378 639.907 813.378 649.661 813.378 659.442 811.271 667.77 807.056 674.646 802.841 681.522 796.776 686 788.859 688.081L787.887 684.96C794.128 682.88 798.768 678.773 801.808 672.64 804.847 666.507 806.367 658.712 806.367 649.256 806.367 640.123 804.854 632.538 801.828 626.5 798.802 620.461 794.114 616.401 787.765 614.321ZM595.197 611.2 596.292 614.321C589.969 616.401 585.288 620.461 582.249 626.5 579.209 632.538 577.689 640.123 577.689 649.256 577.689 658.712 579.209 666.507 582.249 672.64 585.288 678.773 589.929 682.88 596.17 684.96L595.197 688.081C587.281 686 581.215 681.522 577 674.646 572.786 667.77 570.678 659.442 570.678 649.661 570.678 639.907 572.792 631.579 577.021 624.676 581.249 617.773 587.308 613.281 595.197 611.2Z" fill-rule="evenodd"/><path d="M623.801 617.346 626.03 617.346C625.868 619.94 625.787 623.534 625.787 628.127L625.787 662.737C625.787 664.304 625.875 665.486 626.051 666.283 626.226 667.08 626.537 667.729 626.983 668.228 627.429 668.728 628.07 669.12 628.908 669.404 629.745 669.687 630.799 669.904 632.069 670.052 633.339 670.201 635.014 670.302 637.094 670.356L637.094 673.315 607.145 673.315 607.145 670.356C610.144 670.221 612.285 670.039 613.568 669.809 614.852 669.579 615.831 669.235 616.507 668.776 617.182 668.316 617.675 667.668 617.986 666.83 618.297 665.993 618.452 664.628 618.452 662.737L618.452 629.869C618.452 628.789 618.263 627.998 617.884 627.498 617.506 626.999 616.952 626.749 616.223 626.749 615.358 626.749 614.129 627.194 612.535 628.086 610.941 628.978 608.968 630.207 606.618 631.774L604.835 628.653Z" fill-rule="evenodd"/><text fill="#000000" fill-opacity="0" font-family="Arial,Arial_MSFontService,sans-serif" font-size="55.9683" x="604.835" y="666.319">1</text><path d="M689.913 623.547 695.668 623.547 695.668 646.891 717.756 646.891 717.756 652.281 695.668 652.281 695.668 675.625 689.913 675.625 689.913 652.281 667.826 652.281 667.826 646.891 689.913 646.891Z" fill-rule="evenodd"/><text fill="#000000" fill-opacity="0" font-family="Arial,Arial_MSFontService,sans-serif" font-size="52.0776" x="667.826" y="669.115">+</text><path d="M752.695 633.922C754.262 633.922 755.491 634.192 756.383 634.733 757.275 635.273 757.984 636.104 758.511 637.225 759.038 638.346 759.416 639.9 759.645 641.886 759.875 643.871 760.064 647.087 760.213 651.531 760.361 655.976 760.436 661.413 760.436 667.843 763.246 664.763 765.657 661.791 767.67 658.927 769.683 656.063 771.331 653.017 772.614 649.788 773.898 646.56 774.539 643.338 774.539 640.123 774.539 638.907 774.445 637.718 774.256 636.556L774.701 634.57 782.807 634.57C782.185 640.568 780.389 646.215 777.417 651.511 774.445 656.806 768.811 664.196 760.517 673.679L754.64 673.679C754.424 666.682 754.141 660.035 753.789 653.74 753.492 648.66 753.208 645.189 752.938 643.324 752.614 641.298 752.155 639.947 751.56 639.272 751.128 638.812 750.507 638.583 749.696 638.583 749.048 638.583 748.338 638.846 747.568 639.373 746.798 639.9 745.886 640.704 744.833 641.784L742.563 639.515C744.427 637.84 745.839 636.664 746.798 635.989 747.757 635.313 748.71 634.8 749.655 634.449 750.601 634.098 751.614 633.922 752.695 633.922Z" fill-rule="evenodd"/><text fill="#000000" fill-opacity="0" font-family="Arial,Arial_MSFontService,sans-serif" font-size="39.7573" x="742.563" y="668.71">𝜈</text><path d="M849.642 621.561C848.21 621.561 846.697 621.615 845.103 621.723L839.916 645.189 844.698 645.189C848.615 645.189 851.709 644.662 853.979 643.608 856.248 642.554 858.045 640.825 859.369 638.421 860.693 636.016 861.355 633.422 861.355 630.639 861.355 629.477 861.246 628.444 861.03 627.539 860.814 626.634 860.531 625.884 860.179 625.29 859.828 624.695 859.382 624.168 858.842 623.709 858.302 623.25 857.626 622.851 856.815 622.514 856.005 622.176 855.066 621.933 853.999 621.784 852.932 621.635 851.479 621.561 849.642 621.561ZM833.391 617.995 851.425 617.995C854.289 617.995 856.626 618.164 858.437 618.501 860.247 618.839 861.794 619.346 863.077 620.021 864.36 620.697 865.434 621.568 866.299 622.635 867.163 623.702 867.812 624.905 868.244 626.242 868.677 627.579 868.893 629.005 868.893 630.518 868.893 634.679 867.623 638.218 865.083 641.136 862.543 644.054 858.801 646.269 853.857 647.782L853.857 648.228C855.154 649.201 856.201 650.363 856.998 651.714 857.795 653.064 858.437 654.942 858.923 657.347L859.855 662.048C860.152 663.534 860.49 664.871 860.868 666.06 861.246 667.249 861.699 668.195 862.226 668.897 862.753 669.6 863.347 670.126 864.009 670.478 864.671 670.829 865.637 671.113 866.907 671.329L866.502 673.315 855.275 673.315C854.411 670.91 853.641 668.046 852.965 664.723L851.182 656.131C850.885 654.645 850.527 653.395 850.108 652.382 849.689 651.369 849.19 650.586 848.609 650.032 848.028 649.478 847.352 649.113 846.582 648.937 845.812 648.762 844.873 648.674 843.766 648.674L839.146 648.674 836.309 661.521C836.065 662.575 835.897 663.412 835.802 664.034 835.708 664.655 835.626 665.31 835.559 665.999 835.491 666.688 835.458 667.303 835.458 667.843 835.458 668.681 835.593 669.336 835.863 669.809 836.133 670.282 836.538 670.626 837.079 670.842 837.619 671.059 838.551 671.221 839.875 671.329L839.429 673.315 822.773 673.315 823.218 671.329C824.245 671.167 825.015 670.903 825.528 670.538 826.042 670.174 826.474 669.667 826.825 669.019 827.177 668.37 827.501 667.58 827.798 666.648 828.095 665.716 828.541 663.912 829.135 661.237L836.025 630.031C836.619 627.33 836.917 625.195 836.917 623.628 836.917 622.304 836.606 621.386 835.984 620.872 835.363 620.359 834.35 620.062 832.945 619.981Z" fill-rule="evenodd"/><text fill="#000000" fill-opacity="0" font-family="Arial,Arial_MSFontService,sans-serif" font-size="55.3198" x="822.773" y="666.4">𝑅</text><path d="M563.583 592.125 719.583 592.125 875.583 592.125 875.583 597.125 719.583 597.125 563.583 597.125Z" fill-rule="evenodd"/><path d="M920.589 562.811 936.8 562.811 936.354 564.797C935.327 565.013 934.591 565.257 934.145 565.527 933.699 565.797 933.301 566.202 932.949 566.743 932.598 567.283 932.233 568.127 931.855 569.276 931.477 570.424 931.004 572.295 930.437 574.889L921.764 614.403 931.734 614.403C933.544 614.403 934.969 614.227 936.009 613.876 937.049 613.525 938.036 612.883 938.968 611.951 939.9 611.019 940.812 609.756 941.703 608.161 942.595 606.567 943.5 604.582 944.419 602.204L948.35 602.204 944.257 618.131 909.97 618.131 910.416 616.145C911.443 615.983 912.213 615.72 912.726 615.355 913.24 614.99 913.672 614.484 914.023 613.835 914.374 613.187 914.699 612.397 914.996 611.464 915.293 610.532 915.739 608.729 916.333 606.054L923.223 574.848C923.817 572.146 924.115 569.971 924.115 568.323 924.115 567.053 923.797 566.168 923.162 565.669 922.527 565.169 921.521 564.878 920.143 564.797Z" fill-rule="evenodd"/><text fill="#000000" fill-opacity="0" font-family="Arial,Arial_MSFontService,sans-serif" font-size="55.3198" x="909.97" y="611.216">𝐿</text></g></svg>