<svg width="147" height="104" xmlns="http://www.w3.org/2000/svg" xmlns:xlink="http://www.w3.org/1999/xlink" xml:space="preserve" overflow="hidden"><defs><clipPath id="clip0"><rect x="219" y="247" width="147" height="104"/></clipPath></defs><g clip-path="url(#clip0)" transform="translate(-219 -247)"><path d="M39.8647 41.858C39.8647 40.7571 40.7571 39.8647 41.858 39.8647L182.381 39.8647C183.482 39.8647 184.374 40.7571 184.374 41.858L184.374 138.53C184.374 139.631 183.482 140.523 182.381 140.523L41.858 140.523C40.7571 140.523 39.8647 139.631 39.8647 138.53L39.8647 41.858Z" fill="#FFFFFF" transform="matrix(1 0 0 1.0034 180.749 208.282)"/><path d="M41.858 40.8614 182.381 40.8614 182.381 38.8681 41.858 38.8681 41.858 40.8614ZM183.378 41.858 183.378 138.53 185.371 138.53 185.371 41.858 183.378 41.858ZM182.381 139.527 41.858 139.527 41.858 141.52 182.381 141.52 182.381 139.527ZM40.8614 138.53 40.8614 41.858 38.8681 41.858 38.8681 138.53 40.8614 138.53ZM41.858 139.527C41.3075 139.527 40.8614 139.08 40.8614 138.53L38.8681 138.53C38.8681 140.181 40.2067 141.52 41.858 141.52L41.858 139.527ZM183.378 138.53C183.378 139.08 182.931 139.527 182.381 139.527L182.381 141.52C184.033 141.52 185.371 140.181 185.371 138.53L183.378 138.53ZM182.381 40.8614C182.931 40.8614 183.378 41.3075 183.378 41.858L185.371 41.858C185.371 40.2067 184.033 38.8681 182.381 38.8681L182.381 40.8614ZM41.858 38.8681C40.2067 38.8681 38.8681 40.2067 38.8681 41.858L40.8614 41.858C40.8614 41.3075 41.3075 40.8614 41.858 40.8614L41.858 38.8681Z" fill="#000000" fill-opacity="0.1" transform="matrix(1 0 0 1.0034 180.749 208.282)"/><path d="M67.8185 53.1238 68.8869 53.1238 68.8869 58.657 67.8185 58.657 67.8185 53.1238ZM63.9676 59.534 69.0703 59.534 69.0703 60.3791 63.9676 60.3791 63.9676 59.534ZM63.9676 58.2264 65.028 58.2264 65.028 59.6935 63.9676 59.6935 63.9676 58.2264ZM62.8354 53.9131 67.2763 53.9131 67.2763 54.7423 62.8354 54.7423 62.8354 53.9131ZM65.0599 54.9894C66.1442 54.9894 66.9096 55.5715 66.9096 56.4166 66.9096 57.2697 66.1442 57.8358 65.0599 57.8358 63.9835 57.8358 63.2181 57.2697 63.2181 56.4166 63.2181 55.5715 63.9835 54.9894 65.0599 54.9894ZM65.0599 55.8027C64.5655 55.8027 64.2227 56.0259 64.2227 56.4166 64.2227 56.8152 64.5655 57.0305 65.0599 57.0305 65.5622 57.0305 65.897 56.8152 65.897 56.4166 65.897 56.0259 65.5622 55.8027 65.0599 55.8027ZM64.5257 53.1158 65.594 53.1158 65.594 54.3915 64.5257 54.3915 64.5257 53.1158ZM71.8602 54.2878 72.7053 54.2878 72.7053 55.117C72.7053 56.8232 72.0117 58.4896 70.6244 59.1194L70.0264 58.2823C71.2622 57.7321 71.8602 56.3688 71.8602 55.117L71.8602 54.2878ZM72.0994 54.2878 72.9365 54.2878 72.9365 55.117C72.9365 56.3129 73.5265 57.5886 74.7623 58.0989L74.1883 58.936C72.785 58.3301 72.0994 56.7594 72.0994 55.117L72.0994 54.2878ZM70.3214 53.8334 74.4594 53.8334 74.4594 54.7024 70.3214 54.7024 70.3214 53.8334ZM75.145 53.1238 76.2134 53.1238 76.2134 60.5067 75.145 60.5067 75.145 53.1238Z" transform="matrix(1 0 0 1.0034 180.749 208.282)"/><path d="M129.095 53.5463 130.02 53.5463 130.02 54.0805C130.02 55.6831 128.88 57.1023 126.966 57.477L126.512 56.6C128.178 56.3129 129.095 55.1409 129.095 54.0805L129.095 53.5463ZM129.31 53.5463 130.227 53.5463 130.227 54.0805C130.227 55.1648 131.136 56.3129 132.81 56.6L132.356 57.477C130.442 57.1023 129.31 55.707 129.31 54.0805L129.31 53.5463ZM126.36 58.7447 133.042 58.7447 133.042 59.6058 126.36 59.6058 126.36 58.7447ZM133.694 58.7846 140.376 58.7846 140.376 59.6536 133.694 59.6536 133.694 58.7846ZM134.205 53.7616 139.826 53.7616 139.826 54.6067 134.205 54.6067 134.205 53.7616ZM134.237 56.8152 139.802 56.8152 139.802 57.6683 134.237 57.6683 134.237 56.8152ZM135.209 54.5429 136.27 54.5429 136.27 56.895 135.209 56.895 135.209 54.5429ZM137.769 54.5429 138.821 54.5429 138.821 56.895 137.769 56.895 137.769 54.5429ZM146.092 53.1317 147.161 53.1317 147.161 57.6046 146.092 57.6046 146.092 53.1317ZM141.404 56.4565 142.05 56.4565C143.485 56.4565 144.418 56.4246 145.486 56.2492L145.606 57.0943C144.506 57.2856 143.525 57.3096 142.05 57.3096L141.404 57.3096 141.404 56.4565ZM141.396 53.5623 144.793 53.5623 144.793 55.8106 142.449 55.8106 142.449 56.9348 141.404 56.9348 141.404 55.0213 143.748 55.0213 143.748 54.4074 141.396 54.4074 141.396 53.5623ZM144.673 57.7401C146.236 57.7401 147.209 58.2424 147.209 59.1274 147.209 60.0044 146.236 60.5147 144.673 60.5147 143.11 60.5147 142.154 60.0044 142.154 59.1274 142.154 58.2424 143.11 57.7401 144.673 57.7401ZM144.673 58.5613C143.708 58.5613 143.206 58.7367 143.206 59.1274 143.206 59.5101 143.708 59.6935 144.673 59.6935 145.646 59.6935 146.148 59.5101 146.148 59.1274 146.148 58.7367 145.646 58.5613 144.673 58.5613Z" transform="matrix(1 0 0 1.0034 180.749 208.282)"/><path d="M78.5373 122.584 83.716 113.615 88.8946 122.584 78.5373 122.584Z" stroke="#FF0000" stroke-width="0.996619" fill="#FFFFFF" transform="matrix(1 0 0 1.0034 180.749 208.282)"/><path d="M69.2383 70.5989 83.1909 111.46" stroke="#000000" stroke-width="0.996619" fill="none" transform="matrix(1 0 0 1.0034 180.749 208.282)"/><path d="M138.005 68.6056 151.957 109.467" stroke="#000000" stroke-width="0.996619" fill="none" transform="matrix(1 0 0 1.0034 180.749 208.282)"/><path d="M84.7126 111.123C84.7126 111.949 84.0433 112.618 83.2177 112.618 82.392 112.618 81.7227 111.949 81.7227 111.123 81.7227 110.297 82.392 109.628 83.2177 109.628 84.0433 109.628 84.7126 110.297 84.7126 111.123Z" transform="matrix(1 0 0 1.0034 180.749 208.282)"/><path d="M70.7599 70.2616C70.7599 71.0872 70.0906 71.7565 69.265 71.7565 68.4394 71.7565 67.7701 71.0872 67.7701 70.2616 67.7701 69.436 68.4394 68.7667 69.265 68.7667 70.0906 68.7667 70.7599 69.436 70.7599 70.2616Z" transform="matrix(1 0 0 1.0034 180.749 208.282)"/><path d="M84.7126 111.123C84.7126 111.949 84.0433 112.618 83.2177 112.618 82.392 112.618 81.7227 111.949 81.7227 111.123 81.7227 110.297 82.392 109.628 83.2177 109.628 84.0433 109.628 84.7126 110.297 84.7126 111.123Z" transform="matrix(1 0 0 1.0034 180.749 208.282)"/><path d="M70.7599 70.2616C70.7599 71.0872 70.0906 71.7565 69.265 71.7565 68.4394 71.7565 67.7701 71.0872 67.7701 70.2616 67.7701 69.436 68.4394 68.7667 69.265 68.7667 70.0906 68.7667 70.7599 69.436 70.7599 70.2616Z" transform="matrix(1 0 0 1.0034 180.749 208.282)"/><path d="M153.479 109.13C153.479 109.955 152.81 110.625 151.984 110.625 151.159 110.625 150.489 109.955 150.489 109.13 150.489 108.304 151.159 107.635 151.984 107.635 152.81 107.635 153.479 108.304 153.479 109.13Z" transform="matrix(1 0 0 1.0034 180.749 208.282)"/><path d="M139.527 68.2684C139.527 69.094 138.857 69.7633 138.032 69.7633 137.206 69.7633 136.537 69.094 136.537 68.2684 136.537 67.4427 137.206 66.7734 138.032 66.7734 138.857 66.7734 139.527 67.4427 139.527 68.2684Z" transform="matrix(1 0 0 1.0034 180.749 208.282)"/><path d="M153.479 109.13C153.479 109.955 152.81 110.625 151.984 110.625 151.159 110.625 150.489 109.955 150.489 109.13 150.489 108.304 151.159 107.635 151.984 107.635 152.81 107.635 153.479 108.304 153.479 109.13Z" transform="matrix(1 0 0 1.0034 180.749 208.282)"/><path d="M139.527 68.2684C139.527 69.094 138.857 69.7633 138.032 69.7633 137.206 69.7633 136.537 69.094 136.537 68.2684 136.537 67.4427 137.206 66.7734 138.032 66.7734 138.857 66.7734 139.527 67.4427 139.527 68.2684Z" transform="matrix(1 0 0 1.0034 180.749 208.282)"/><path d="M149.991 109.628 148.496 110.126 146.503 109.13 146.503 112.12 143.513 110.126 144.011 113.615 141.52 112.12 139.028 113.615" stroke="#7B7B7B" stroke-width="0.498309" fill="none" transform="matrix(1 0 0 1.0034 180.749 208.282)"/><path d="M80.3176 112.391 78.8227 112.889 76.8294 111.892 76.8294 114.882 73.8396 112.889 74.3379 116.377 71.8463 114.882 69.3548 116.377" stroke="#7B7B7B" stroke-width="0.498309" fill="none" transform="matrix(1 0 0 1.0034 180.749 208.282)"/><path d="M153.945 111.442 152.981 115.109 156.967 115.109 155.473 119.096 159.459 118.598 157.964 123.082" stroke="#FF0000" stroke-width="0.996619" fill="none" transform="matrix(1 0 0 1.0034 180.749 208.282)"/></g></svg>